<svg id="svg" version="1.1" xmlns="http://www.w3.org/2000/svg" xmlns:xlink="http://www.w3.org/1999/xlink" width="400" height="400" viewBox="0, 0, 400,400"><g id="svgg"><path id="path0" d="M182.600 4.800 C 182.758 5.056,181.497 5.200,179.104 5.200 C 177.045 5.200,175.189 5.368,174.980 5.573 C 174.771 5.778,173.399 5.998,171.932 6.062 C 170.464 6.126,169.350 6.319,169.455 6.489 C 169.561 6.660,168.456 6.800,167.000 6.800 C 165.337 6.800,164.445 6.949,164.600 7.200 C 164.752 7.446,164.079 7.600,162.847 7.600 C 161.747 7.600,160.736 7.780,160.600 8.000 C 160.464 8.220,159.763 8.400,159.043 8.400 C 158.323 8.400,157.609 8.524,157.457 8.676 C 157.305 8.828,156.510 9.006,155.691 9.071 C 153.192 9.271,151.022 9.677,150.584 10.027 C 150.355 10.210,149.549 10.468,148.794 10.601 C 148.039 10.734,147.326 10.974,147.210 11.135 C 147.095 11.295,146.550 11.413,146.000 11.395 C 145.450 11.378,144.640 11.567,144.200 11.815 C 143.760 12.063,143.130 12.245,142.800 12.220 C 142.470 12.194,142.110 12.275,142.000 12.400 C 141.718 12.721,136.127 14.533,135.420 14.533 C 135.098 14.533,134.928 14.683,135.041 14.867 C 135.155 15.050,134.697 15.200,134.024 15.200 C 133.351 15.200,132.800 15.380,132.800 15.600 C 132.800 15.820,132.476 16.000,132.080 16.000 C 131.684 16.000,131.189 16.164,130.980 16.365 C 130.771 16.566,130.150 16.791,129.600 16.865 C 129.050 16.939,128.494 17.144,128.364 17.320 C 128.234 17.496,127.739 17.669,127.264 17.705 C 126.789 17.741,126.400 17.912,126.400 18.085 C 126.400 18.258,126.040 18.400,125.600 18.400 C 125.160 18.400,124.800 18.580,124.800 18.800 C 124.800 19.020,124.451 19.200,124.024 19.200 C 123.597 19.200,123.136 19.380,123.000 19.600 C 122.864 19.820,122.313 20.000,121.776 20.000 C 121.239 20.000,120.799 20.135,120.797 20.300 C 120.793 20.659,118.856 21.600,118.120 21.600 C 117.834 21.600,117.600 21.780,117.600 22.000 C 117.600 22.220,117.255 22.400,116.833 22.400 C 116.412 22.400,116.007 22.535,115.933 22.700 C 115.814 22.968,111.296 25.350,110.800 25.406 C 110.690 25.418,110.195 25.653,109.700 25.928 C 109.205 26.203,108.800 26.319,108.800 26.186 C 108.800 26.052,108.515 26.227,108.168 26.575 C 107.820 26.923,107.370 27.105,107.168 26.980 C 106.965 26.855,106.800 26.943,106.800 27.176 C 106.800 27.409,106.429 27.600,105.976 27.600 C 105.523 27.600,105.264 27.780,105.400 28.000 C 105.616 28.349,105.134 28.561,104.348 28.463 C 104.209 28.446,103.776 28.785,103.386 29.216 C 102.995 29.647,102.344 30.000,101.938 30.000 C 101.532 30.000,101.200 30.180,101.200 30.400 C 101.200 30.620,100.829 30.800,100.376 30.800 C 99.923 30.800,99.664 30.980,99.800 31.200 C 99.936 31.420,99.722 31.607,99.324 31.616 C 98.926 31.625,97.977 32.165,97.215 32.816 C 96.453 33.467,95.598 34.000,95.315 34.000 C 95.032 34.000,94.800 34.158,94.800 34.351 C 94.800 34.545,94.260 34.927,93.600 35.200 C 92.940 35.473,92.400 35.855,92.400 36.049 C 92.400 36.242,92.130 36.400,91.800 36.400 C 91.470 36.400,91.200 36.580,91.200 36.800 C 91.200 37.020,90.829 37.200,90.376 37.200 C 89.923 37.200,89.664 37.380,89.800 37.600 C 89.936 37.820,89.833 38.000,89.571 38.000 C 89.308 38.000,88.791 38.349,88.422 38.775 C 88.052 39.201,87.499 39.606,87.193 39.675 C 86.887 39.744,86.246 40.174,85.770 40.630 C 85.293 41.087,84.340 41.693,83.652 41.979 C 82.963 42.264,82.400 42.745,82.400 43.049 C 82.400 43.556,81.893 43.780,81.070 43.637 C 80.889 43.606,80.843 43.746,80.968 43.948 C 81.093 44.151,80.881 44.437,80.498 44.584 C 80.114 44.731,79.771 44.795,79.736 44.726 C 79.701 44.657,79.276 45.104,78.791 45.721 C 78.306 46.338,77.824 46.757,77.721 46.654 C 77.392 46.325,76.030 47.725,76.282 48.133 C 76.415 48.348,76.340 48.410,76.115 48.271 C 75.891 48.132,75.385 48.375,74.991 48.809 C 74.598 49.244,74.034 49.600,73.738 49.600 C 73.442 49.600,73.200 49.876,73.200 50.213 C 73.200 50.549,72.912 50.936,72.560 51.071 C 71.685 51.406,70.032 53.099,70.309 53.376 C 70.432 53.499,70.233 53.600,69.867 53.600 C 69.500 53.600,69.200 53.759,69.200 53.953 C 69.200 54.148,68.840 54.401,68.400 54.516 C 67.960 54.631,67.600 55.012,67.600 55.363 C 67.600 55.739,67.263 56.000,66.776 56.000 C 66.323 56.000,66.064 56.180,66.200 56.400 C 66.336 56.620,66.244 56.800,65.995 56.800 C 65.519 56.800,64.593 57.590,64.471 58.100 C 64.380 58.482,62.800 60.074,62.800 59.783 C 62.800 59.453,59.709 62.773,58.979 63.889 C 58.625 64.428,58.241 64.775,58.126 64.659 C 57.796 64.329,56.000 66.292,56.000 66.982 C 56.000 67.322,55.724 67.600,55.387 67.600 C 55.051 67.600,54.659 67.901,54.518 68.269 C 54.377 68.636,53.393 69.824,52.331 70.909 C 51.269 71.994,50.400 73.163,50.400 73.507 C 50.400 73.852,50.296 74.029,50.168 73.901 C 50.040 73.773,49.275 74.418,48.468 75.334 C 47.661 76.251,46.850 77.110,46.666 77.245 C 46.482 77.379,46.389 77.559,46.459 77.645 C 46.727 77.974,45.311 79.579,45.000 79.297 C 44.819 79.134,44.787 79.202,44.928 79.450 C 45.070 79.697,44.757 80.361,44.234 80.925 C 43.712 81.489,43.385 82.052,43.509 82.175 C 43.632 82.299,43.437 82.400,43.074 82.400 C 42.705 82.400,42.305 82.839,42.165 83.397 C 42.027 83.946,41.754 84.295,41.557 84.174 C 41.361 84.052,41.200 84.323,41.200 84.776 C 41.200 85.229,41.050 85.600,40.868 85.600 C 40.685 85.600,40.280 86.095,39.968 86.700 C 39.655 87.305,39.085 88.149,38.700 88.575 C 38.315 89.002,38.000 89.508,38.000 89.699 C 38.000 89.891,37.820 89.936,37.600 89.800 C 37.373 89.660,37.200 89.996,37.200 90.576 C 37.200 91.139,37.033 91.600,36.829 91.600 C 36.625 91.600,35.798 92.686,34.992 94.013 C 34.186 95.341,33.047 96.998,32.463 97.696 C 31.878 98.393,31.670 98.824,32.000 98.652 C 32.330 98.480,32.240 98.674,31.800 99.083 C 31.360 99.493,30.942 100.092,30.870 100.414 C 30.799 100.736,30.574 101.060,30.370 101.133 C 30.167 101.207,29.996 101.477,29.991 101.733 C 29.986 101.990,29.630 102.650,29.200 103.200 C 28.770 103.750,28.414 104.526,28.409 104.924 C 28.404 105.322,28.220 105.536,28.000 105.400 C 27.780 105.264,27.600 105.523,27.600 105.976 C 27.600 106.429,27.409 106.800,27.176 106.800 C 26.943 106.800,26.855 106.965,26.980 107.168 C 27.105 107.370,26.944 107.799,26.623 108.120 C 26.301 108.442,26.148 108.815,26.283 108.950 C 26.418 109.085,26.242 109.511,25.893 109.898 C 25.543 110.284,25.239 110.690,25.217 110.800 C 24.970 112.044,24.643 112.800,24.353 112.800 C 24.159 112.800,24.000 113.034,24.000 113.320 C 24.000 114.056,23.059 115.993,22.700 115.997 C 22.535 115.999,22.400 116.360,22.400 116.800 C 22.400 117.240,22.220 117.600,22.000 117.600 C 21.780 117.600,21.600 117.960,21.600 118.400 C 21.600 118.840,21.420 119.200,21.200 119.200 C 20.980 119.200,20.800 119.472,20.800 119.805 C 20.800 120.138,20.641 120.723,20.447 121.105 C 20.104 121.778,19.859 122.350,18.736 125.100 C 18.444 125.815,18.069 126.400,17.902 126.400 C 17.736 126.400,17.621 126.535,17.647 126.700 C 17.813 127.750,17.542 128.811,17.167 128.580 C 16.908 128.419,16.772 128.610,16.827 129.056 C 16.878 129.465,16.616 130.485,16.246 131.321 C 15.875 132.158,15.466 133.370,15.337 134.015 C 15.208 134.660,14.983 135.113,14.836 135.022 C 14.690 134.932,14.530 135.332,14.483 135.911 C 14.435 136.491,14.216 137.144,13.998 137.362 C 13.779 137.581,13.600 138.354,13.600 139.080 C 13.600 139.806,13.420 140.400,13.200 140.400 C 12.980 140.400,12.800 140.760,12.800 141.200 C 12.800 141.640,12.609 142.000,12.376 142.000 C 12.143 142.000,12.063 142.178,12.197 142.396 C 12.332 142.613,12.142 143.424,11.775 144.197 C 11.408 144.970,11.204 145.973,11.323 146.426 C 11.451 146.917,11.319 147.333,10.994 147.458 C 10.695 147.572,10.544 147.909,10.657 148.205 C 10.771 148.502,10.595 149.342,10.266 150.072 C 9.937 150.802,9.561 152.030,9.432 152.800 C 9.302 153.570,9.099 154.740,8.981 155.400 C 8.862 156.060,8.661 157.542,8.534 158.693 C 8.406 159.845,8.144 160.689,7.951 160.570 C 7.758 160.450,7.600 161.364,7.600 162.600 C 7.600 163.996,7.449 164.754,7.200 164.600 C 6.949 164.445,6.800 165.337,6.800 167.000 C 6.800 168.456,6.660 169.561,6.489 169.455 C 6.319 169.350,6.125 170.462,6.059 171.927 C 5.993 173.392,5.758 174.702,5.536 174.840 C 5.313 174.977,5.147 175.204,5.166 175.345 C 5.403 177.117,5.115 182.395,4.792 182.195 C 4.270 181.873,4.272 217.164,4.794 217.793 C 4.993 218.032,5.190 219.797,5.232 221.714 C 5.274 223.631,5.464 225.200,5.654 225.200 C 5.844 225.200,6.000 226.471,6.000 228.024 C 6.000 229.804,6.148 230.756,6.400 230.600 C 6.651 230.445,6.800 231.337,6.800 233.000 C 6.800 234.663,6.949 235.555,7.200 235.400 C 7.449 235.246,7.600 236.004,7.600 237.400 C 7.600 238.643,7.762 239.547,7.963 239.423 C 8.163 239.300,8.416 240.144,8.525 241.299 C 8.635 242.455,8.834 243.940,8.968 244.600 C 9.101 245.260,9.320 246.520,9.453 247.400 C 9.586 248.280,9.859 249.205,10.060 249.456 C 10.261 249.707,10.465 250.472,10.513 251.155 C 10.561 251.839,10.696 252.399,10.813 252.399 C 11.102 252.400,12.070 255.744,12.142 256.992 C 12.174 257.546,12.335 258.000,12.500 258.000 C 12.665 258.000,12.800 258.360,12.800 258.800 C 12.800 259.240,12.980 259.600,13.200 259.600 C 13.420 259.600,13.600 260.062,13.600 260.626 C 13.600 261.191,13.781 261.991,14.003 262.405 C 14.224 262.819,14.443 263.617,14.490 264.179 C 14.536 264.740,14.671 265.200,14.790 265.200 C 15.195 265.200,17.096 270.698,16.899 271.300 C 16.844 271.465,16.980 271.600,17.200 271.600 C 17.420 271.600,17.600 271.870,17.600 272.200 C 17.600 272.530,17.780 272.800,18.000 272.800 C 18.220 272.800,18.400 273.239,18.400 273.776 C 18.400 274.313,18.580 274.864,18.800 275.000 C 19.020 275.136,19.200 275.597,19.200 276.024 C 19.200 276.451,19.380 276.800,19.600 276.800 C 19.820 276.800,20.000 277.160,20.000 277.600 C 20.000 278.040,20.180 278.400,20.400 278.400 C 20.620 278.400,20.800 278.940,20.800 279.600 C 20.800 280.260,20.980 280.800,21.200 280.800 C 21.420 280.800,21.600 281.160,21.600 281.600 C 21.600 282.040,21.780 282.400,22.000 282.400 C 22.220 282.400,22.400 282.760,22.400 283.200 C 22.400 283.640,22.580 284.000,22.800 284.000 C 23.020 284.000,23.200 284.360,23.200 284.800 C 23.200 285.240,23.380 285.600,23.600 285.600 C 23.820 285.600,24.000 285.960,24.000 286.400 C 24.000 286.840,24.159 287.200,24.353 287.200 C 24.655 287.200,24.896 287.749,25.193 289.109 C 25.228 289.269,25.543 289.716,25.893 290.102 C 26.242 290.489,26.418 290.915,26.283 291.050 C 26.148 291.185,26.301 291.558,26.623 291.880 C 26.944 292.201,27.105 292.630,26.980 292.832 C 26.855 293.035,26.943 293.200,27.176 293.200 C 27.409 293.200,27.600 293.571,27.600 294.024 C 27.600 294.477,27.780 294.736,28.000 294.600 C 28.220 294.464,28.423 294.543,28.450 294.776 C 28.477 295.009,28.523 295.374,28.550 295.587 C 28.578 295.800,28.915 296.342,29.300 296.792 C 29.685 297.241,30.000 297.800,30.000 298.033 C 30.000 298.266,30.272 298.729,30.604 299.061 C 30.936 299.393,31.105 299.830,30.980 300.032 C 30.855 300.235,30.943 300.400,31.176 300.400 C 31.409 300.400,31.600 300.642,31.600 300.938 C 31.600 301.234,31.960 301.802,32.400 302.200 C 32.840 302.598,33.200 303.177,33.200 303.486 C 33.200 303.794,33.380 303.936,33.600 303.800 C 33.820 303.664,34.000 303.841,34.000 304.193 C 34.000 304.817,34.294 305.275,35.667 306.795 C 36.033 307.201,36.254 307.613,36.157 307.710 C 36.060 307.807,36.255 308.114,36.590 308.392 C 36.926 308.670,37.200 309.247,37.200 309.673 C 37.200 310.099,37.353 310.353,37.540 310.237 C 37.727 310.122,38.117 310.471,38.407 311.014 C 38.698 311.556,39.085 312.000,39.268 312.000 C 39.450 312.000,39.600 312.225,39.600 312.500 C 39.601 312.775,40.051 313.523,40.600 314.162 C 41.150 314.801,41.600 315.444,41.600 315.590 C 41.600 315.736,42.134 316.455,42.788 317.186 C 43.441 317.918,43.863 318.698,43.726 318.920 C 43.589 319.142,43.665 319.207,43.896 319.064 C 44.281 318.827,44.523 319.130,44.803 320.200 C 44.860 320.420,45.243 320.835,45.654 321.123 C 46.064 321.410,46.400 321.916,46.400 322.246 C 46.400 322.577,46.560 322.749,46.755 322.628 C 46.950 322.508,47.207 322.785,47.328 323.245 C 47.451 323.717,47.736 323.963,47.983 323.811 C 48.223 323.662,48.370 323.692,48.310 323.878 C 48.153 324.361,49.843 326.424,50.147 326.120 C 50.286 325.981,50.400 326.158,50.400 326.513 C 50.400 326.869,50.715 327.344,51.100 327.568 C 51.485 327.792,51.650 327.981,51.467 327.988 C 51.284 327.995,51.824 328.682,52.667 329.516 C 53.510 330.351,54.408 331.386,54.663 331.816 C 54.917 332.247,55.336 332.551,55.593 332.490 C 55.849 332.430,55.957 332.546,55.831 332.749 C 55.581 333.154,57.772 335.695,58.093 335.373 C 58.202 335.264,58.568 335.597,58.906 336.113 C 59.683 337.298,63.650 341.200,64.079 341.200 C 64.256 341.200,64.400 341.398,64.400 341.640 C 64.400 342.288,66.820 344.435,67.251 344.169 C 67.454 344.043,67.570 344.151,67.510 344.407 C 67.449 344.664,67.742 345.083,68.160 345.337 C 68.961 345.825,70.265 346.956,74.200 350.575 C 75.520 351.789,76.836 352.786,77.124 352.791 C 77.412 352.796,77.536 352.980,77.400 353.200 C 77.264 353.420,77.423 353.600,77.754 353.600 C 78.084 353.600,78.590 353.936,78.877 354.346 C 79.165 354.757,79.533 355.122,79.696 355.157 C 80.684 355.373,81.162 355.738,80.936 356.104 C 80.793 356.335,80.858 356.411,81.080 356.274 C 81.302 356.137,82.090 356.566,82.830 357.227 C 83.571 357.888,84.580 358.530,85.074 358.654 C 85.568 358.778,86.080 359.222,86.213 359.640 C 86.345 360.058,86.762 360.400,87.139 360.400 C 87.515 360.400,88.083 360.760,88.400 361.200 C 88.717 361.640,89.217 362.000,89.512 362.000 C 89.806 362.000,89.936 362.180,89.800 362.400 C 89.664 362.620,89.813 362.800,90.131 362.800 C 90.897 362.800,92.845 363.822,92.581 364.086 C 92.467 364.199,92.920 364.518,93.587 364.795 C 94.254 365.071,94.800 365.455,94.800 365.649 C 94.800 365.842,95.171 366.000,95.624 366.000 C 96.077 366.000,96.336 366.180,96.200 366.400 C 96.064 366.620,96.177 366.800,96.451 366.800 C 96.724 366.800,97.394 367.205,97.939 367.700 C 98.483 368.195,98.791 368.362,98.623 368.070 C 98.371 367.635,98.462 367.632,99.132 368.051 C 99.581 368.331,99.861 368.702,99.753 368.875 C 99.646 369.049,99.809 369.095,100.115 368.977 C 100.421 368.860,100.903 369.042,101.185 369.382 C 101.467 369.722,101.918 370.000,102.187 370.000 C 102.456 370.000,103.002 370.360,103.400 370.800 C 103.798 371.240,104.366 371.600,104.662 371.600 C 104.958 371.600,105.200 371.780,105.200 372.000 C 105.200 372.220,105.560 372.400,106.000 372.400 C 106.440 372.400,106.800 372.599,106.800 372.843 C 106.800 373.086,107.065 373.184,107.389 373.059 C 107.715 372.935,108.158 373.140,108.377 373.517 C 108.596 373.892,108.781 374.061,108.788 373.891 C 108.795 373.721,109.287 373.901,109.882 374.291 C 110.478 374.681,111.018 374.955,111.082 374.901 C 111.309 374.709,114.400 376.193,114.400 376.494 C 114.400 376.662,114.760 376.800,115.200 376.800 C 115.640 376.800,116.000 376.980,116.000 377.200 C 116.000 377.420,116.360 377.600,116.800 377.600 C 117.240 377.600,117.600 377.780,117.600 378.000 C 117.600 378.220,118.050 378.400,118.600 378.400 C 119.150 378.400,119.600 378.580,119.600 378.800 C 119.600 379.020,119.870 379.200,120.200 379.200 C 120.530 379.200,120.800 379.380,120.800 379.600 C 120.800 379.820,121.239 380.000,121.776 380.000 C 122.313 380.000,122.864 380.180,123.000 380.400 C 123.136 380.620,123.597 380.800,124.024 380.800 C 124.451 380.800,124.800 380.980,124.800 381.200 C 124.800 381.420,125.351 381.600,126.024 381.600 C 126.737 381.600,127.144 381.767,127.000 382.000 C 126.864 382.220,127.123 382.400,127.576 382.400 C 128.029 382.400,128.400 382.560,128.400 382.755 C 128.400 382.950,128.940 383.220,129.600 383.355 C 130.260 383.490,131.338 383.710,131.996 383.845 C 132.654 383.979,133.093 384.249,132.972 384.445 C 132.852 384.640,133.213 384.800,133.776 384.800 C 134.339 384.800,134.803 385.025,134.806 385.300 C 134.810 385.633,134.942 385.600,135.200 385.200 C 135.458 384.800,135.590 384.767,135.594 385.100 C 135.597 385.375,135.960 385.600,136.400 385.600 C 136.840 385.600,137.200 385.741,137.200 385.913 C 137.200 386.085,137.695 386.266,138.300 386.316 C 138.905 386.366,139.460 386.585,139.533 386.803 C 139.607 387.022,140.382 387.200,141.257 387.200 C 142.237 387.200,142.750 387.357,142.595 387.609 C 142.443 387.854,142.793 387.993,143.471 387.957 C 144.092 387.924,145.274 388.192,146.098 388.553 C 146.922 388.914,147.687 389.207,147.798 389.205 C 147.909 389.202,148.045 389.215,148.100 389.233 C 148.155 389.251,148.737 389.353,149.393 389.459 C 150.048 389.565,150.678 389.797,150.793 389.974 C 150.907 390.152,151.720 390.407,152.600 390.543 C 153.480 390.678,154.650 390.880,155.200 390.991 C 155.750 391.102,157.100 391.305,158.200 391.442 C 159.300 391.578,160.503 391.850,160.874 392.045 C 161.244 392.240,162.189 392.400,162.974 392.400 C 163.758 392.400,164.400 392.552,164.400 392.738 C 164.400 392.924,165.405 393.109,166.634 393.150 C 169.395 393.240,169.730 393.302,170.078 393.788 C 170.551 394.449,170.888 393.712,170.469 392.934 C 170.251 392.530,163.532 385.740,155.537 377.844 C 115.102 337.913,54.393 277.135,54.603 276.795 C 54.742 276.571,54.553 276.520,54.151 276.674 C 53.616 276.879,53.521 276.784,53.726 276.249 C 53.873 275.865,53.827 275.660,53.622 275.786 C 53.419 275.912,52.939 275.516,52.556 274.907 C 52.172 274.298,50.369 272.450,48.550 270.800 L 45.242 267.800 45.396 258.400 C 45.481 253.230,45.732 247.110,45.954 244.800 C 46.505 239.070,47.107 233.646,47.352 232.200 C 47.464 231.540,47.763 229.560,48.017 227.800 C 48.832 222.138,50.507 212.953,51.591 208.200 C 52.620 203.691,53.685 199.227,54.073 197.800 C 54.312 196.920,54.652 195.660,54.827 195.000 C 56.317 189.390,56.791 187.721,57.210 186.600 C 57.374 186.160,57.727 184.990,57.993 184.000 C 58.260 183.010,58.640 181.887,58.839 181.505 C 59.038 181.123,59.200 180.536,59.200 180.200 C 59.200 179.864,59.359 179.277,59.554 178.895 C 59.749 178.513,60.298 176.940,60.774 175.400 C 61.251 173.860,61.804 172.240,62.004 171.800 C 62.203 171.360,62.810 169.650,63.351 168.000 C 64.277 165.183,68.195 154.911,69.372 152.220 C 69.665 151.549,70.216 150.280,70.596 149.400 C 70.975 148.520,71.736 146.810,72.286 145.600 C 72.836 144.390,73.604 142.680,73.994 141.800 C 75.527 138.337,81.697 126.095,82.806 124.317 C 84.205 122.074,88.303 119.187,97.600 113.894 C 101.083 111.911,106.537 109.200,107.043 109.200 C 107.349 109.200,107.600 109.020,107.600 108.800 C 107.600 108.580,107.853 108.400,108.162 108.400 C 108.471 108.400,109.506 108.014,110.462 107.543 C 111.418 107.072,112.605 106.532,113.100 106.343 C 113.595 106.154,114.405 105.837,114.900 105.637 C 127.177 100.688,144.429 96.800,154.109 96.800 L 157.465 96.800 159.489 98.900 C 167.548 107.259,169.928 109.304,171.287 109.032 C 176.364 108.019,190.714 107.006,200.000 107.006 C 213.808 107.006,231.479 108.829,244.500 111.596 C 245.545 111.818,247.165 112.156,248.100 112.346 C 249.035 112.537,250.095 112.818,250.456 112.972 C 250.817 113.126,248.462 110.623,245.223 107.409 C 238.658 100.897,238.648 100.877,240.932 98.500 L 242.567 96.800 245.906 96.800 C 254.698 96.800,274.627 101.112,283.200 104.869 C 283.750 105.110,284.605 105.463,285.100 105.654 C 287.425 106.549,287.917 106.751,289.600 107.506 C 301.432 112.811,315.148 120.984,316.819 123.724 C 317.247 124.426,317.598 124.754,317.599 124.453 C 317.599 124.152,335.003 141.387,356.274 162.753 C 377.545 184.119,395.100 201.600,395.285 201.600 C 395.470 201.600,395.605 197.370,395.585 192.200 C 395.565 187.030,395.405 182.800,395.229 182.800 C 395.053 182.800,394.874 181.225,394.833 179.300 C 394.791 177.375,394.586 175.629,394.378 175.420 C 394.170 175.211,394.000 173.906,394.000 172.520 C 394.000 171.134,393.850 170.000,393.667 170.000 C 393.483 170.000,393.321 169.775,393.307 169.500 C 393.292 169.225,393.234 167.965,393.178 166.700 C 393.122 165.435,392.924 164.400,392.738 164.400 C 392.552 164.400,392.400 163.489,392.400 162.376 C 392.400 161.263,392.237 160.454,392.037 160.577 C 391.837 160.700,391.584 159.856,391.475 158.701 C 391.365 157.545,391.166 156.060,391.032 155.400 C 390.899 154.740,390.678 153.480,390.543 152.600 C 390.407 151.720,390.148 150.905,389.967 150.788 C 389.785 150.671,389.593 149.918,389.538 149.114 C 389.484 148.310,389.296 147.741,389.120 147.849 C 388.944 147.958,388.797 147.722,388.794 147.324 C 388.791 146.926,388.539 145.884,388.234 145.009 C 387.930 144.135,387.742 143.100,387.817 142.709 C 387.893 142.319,387.784 142.000,387.577 142.000 C 387.370 142.000,387.200 141.640,387.200 141.200 C 387.200 140.760,387.020 140.400,386.800 140.400 C 386.580 140.400,386.400 139.938,386.400 139.374 C 386.400 138.809,386.219 138.009,385.997 137.595 C 385.776 137.181,385.557 136.383,385.510 135.821 C 385.464 135.260,385.285 134.800,385.113 134.800 C 384.941 134.800,384.800 134.350,384.800 133.800 C 384.800 133.250,384.664 132.800,384.497 132.800 C 384.172 132.800,383.200 129.984,383.200 129.040 C 383.200 128.725,383.012 128.404,382.782 128.327 C 382.552 128.251,382.335 127.791,382.298 127.305 C 382.261 126.819,382.016 126.338,381.753 126.237 C 381.491 126.137,381.146 125.463,380.987 124.740 C 380.828 124.018,380.513 123.060,380.287 122.613 C 379.339 120.740,379.200 120.382,379.200 119.805 C 379.200 119.472,379.020 119.200,378.800 119.200 C 378.580 119.200,378.400 118.840,378.400 118.400 C 378.400 117.960,378.265 117.599,378.100 117.597 C 377.741 117.593,376.800 115.656,376.800 114.920 C 376.800 114.634,376.662 114.400,376.494 114.400 C 376.184 114.400,374.750 111.467,374.558 110.440 C 374.500 110.132,374.221 109.737,373.938 109.562 C 373.655 109.387,373.544 109.122,373.693 108.974 C 373.841 108.826,373.699 108.442,373.377 108.120 C 373.056 107.799,372.895 107.370,373.020 107.168 C 373.145 106.965,373.057 106.800,372.824 106.800 C 372.591 106.800,372.400 106.459,372.400 106.043 C 372.400 105.626,372.119 105.178,371.775 105.046 C 371.431 104.914,371.254 104.635,371.383 104.427 C 371.512 104.219,371.298 103.871,370.908 103.653 C 370.519 103.435,370.257 103.199,370.326 103.128 C 370.537 102.913,369.877 101.433,369.319 100.868 C 369.029 100.575,368.898 100.166,369.026 99.958 C 369.154 99.750,369.029 99.630,368.748 99.690 C 368.467 99.751,368.229 99.496,368.219 99.125 C 368.208 98.753,367.797 98.073,367.305 97.613 C 366.813 97.154,366.298 96.334,366.162 95.792 C 366.026 95.249,365.787 94.885,365.630 94.981 C 365.473 95.078,365.121 94.537,364.847 93.779 C 364.573 93.020,364.180 92.400,363.974 92.400 C 363.768 92.400,363.600 92.130,363.600 91.800 C 363.600 91.470,363.420 91.200,363.200 91.200 C 362.980 91.200,362.800 90.829,362.800 90.376 C 362.800 89.923,362.620 89.664,362.400 89.800 C 362.180 89.936,362.000 89.848,362.000 89.605 C 362.000 89.362,361.564 88.728,361.031 88.195 C 360.498 87.662,359.946 86.860,359.804 86.413 C 359.662 85.966,359.378 85.600,359.173 85.600 C 358.968 85.600,358.800 85.240,358.800 84.800 C 358.800 84.360,358.665 83.999,358.500 83.997 C 358.335 83.996,357.752 83.321,357.204 82.497 C 356.656 81.674,355.981 80.856,355.704 80.680 C 355.427 80.504,355.200 80.089,355.200 79.757 C 355.200 79.424,355.065 79.236,354.900 79.337 C 354.735 79.439,354.150 78.890,353.600 78.119 C 353.050 77.347,352.018 76.042,351.307 75.218 C 350.596 74.393,350.131 73.602,350.274 73.459 C 350.417 73.317,350.306 73.200,350.027 73.200 C 349.516 73.200,347.200 70.944,347.200 70.446 C 347.200 70.298,346.840 69.917,346.400 69.600 C 345.960 69.283,345.600 68.787,345.600 68.499 C 345.600 68.211,345.285 67.856,344.900 67.710 C 343.899 67.331,343.200 66.557,343.200 65.829 C 343.200 65.483,342.960 65.200,342.666 65.200 C 342.372 65.200,341.651 64.660,341.063 64.000 C 340.475 63.340,340.092 62.800,340.212 62.800 C 340.599 62.800,337.106 59.427,336.283 59.006 C 335.847 58.783,335.482 58.420,335.473 58.200 C 335.451 57.650,334.556 56.800,334.000 56.800 C 333.417 56.800,332.400 55.793,332.400 55.216 C 332.400 54.973,332.085 54.657,331.700 54.512 C 331.315 54.367,330.505 53.724,329.900 53.082 C 329.295 52.440,328.800 52.024,328.800 52.158 C 328.800 52.291,328.469 52.085,328.063 51.700 C 327.658 51.315,327.399 50.865,327.487 50.700 C 327.575 50.535,327.408 50.400,327.116 50.400 C 326.824 50.400,325.422 49.320,324.000 48.000 C 322.578 46.680,321.176 45.600,320.884 45.600 C 320.592 45.600,320.464 45.420,320.600 45.200 C 320.736 44.980,320.576 44.800,320.243 44.800 C 319.911 44.800,319.496 44.573,319.320 44.296 C 319.144 44.019,318.326 43.344,317.503 42.796 C 316.679 42.248,316.004 41.665,316.003 41.500 C 316.001 41.335,315.640 41.200,315.200 41.200 C 314.760 41.200,314.400 41.032,314.400 40.827 C 314.400 40.622,314.034 40.338,313.587 40.196 C 313.140 40.054,312.338 39.502,311.805 38.969 C 311.272 38.436,310.638 38.000,310.395 38.000 C 310.152 38.000,310.064 37.820,310.200 37.600 C 310.336 37.380,310.092 37.200,309.657 37.200 C 309.222 37.200,308.807 37.065,308.733 36.900 C 308.530 36.443,306.358 35.011,304.900 34.373 C 304.185 34.061,303.600 33.669,303.600 33.502 C 303.600 33.336,303.373 33.200,303.096 33.200 C 302.819 33.200,302.368 32.840,302.093 32.400 C 301.818 31.960,301.224 31.600,300.773 31.600 C 300.315 31.600,300.065 31.419,300.206 31.190 C 300.345 30.965,300.311 30.827,300.130 30.885 C 299.611 31.049,294.407 28.312,294.611 27.983 C 294.711 27.820,294.155 27.568,293.375 27.422 C 292.596 27.276,291.854 26.885,291.727 26.555 C 291.601 26.224,291.263 26.044,290.978 26.153 C 290.692 26.263,290.252 26.104,290.000 25.800 C 289.748 25.496,289.285 25.346,288.971 25.467 C 288.657 25.587,288.400 25.486,288.400 25.243 C 288.400 24.999,288.130 24.800,287.800 24.800 C 287.470 24.800,287.200 24.620,287.200 24.400 C 287.200 24.180,286.840 24.000,286.400 24.000 C 285.960 24.000,285.600 23.820,285.600 23.600 C 285.600 23.380,285.240 23.200,284.800 23.200 C 284.360 23.200,284.000 23.020,284.000 22.800 C 284.000 22.580,283.640 22.400,283.200 22.400 C 282.760 22.400,282.400 22.220,282.400 22.000 C 282.400 21.780,282.040 21.600,281.600 21.600 C 281.160 21.600,280.800 21.420,280.800 21.200 C 280.800 20.980,280.528 20.800,280.195 20.800 C 279.862 20.800,279.232 20.620,278.795 20.400 C 278.358 20.180,277.642 19.820,277.205 19.600 C 276.768 19.380,276.138 19.200,275.805 19.200 C 275.472 19.200,275.200 19.020,275.200 18.800 C 275.200 18.580,274.840 18.400,274.400 18.400 C 273.960 18.400,273.600 18.220,273.600 18.000 C 273.600 17.780,273.465 17.621,273.300 17.647 C 272.292 17.807,271.190 17.540,271.406 17.190 C 271.545 16.965,271.511 16.829,271.330 16.889 C 270.798 17.063,267.600 15.904,267.600 15.536 C 267.600 15.351,266.959 15.200,266.176 15.200 C 265.393 15.200,264.841 15.057,264.949 14.883 C 265.056 14.709,264.755 14.537,264.279 14.501 C 263.803 14.465,263.051 14.263,262.607 14.051 C 262.163 13.840,260.945 13.433,259.900 13.146 C 258.855 12.860,258.000 12.524,258.000 12.400 C 258.000 12.276,257.534 12.136,256.964 12.089 C 256.395 12.042,255.720 11.874,255.465 11.716 C 254.999 11.429,254.818 11.400,252.600 11.262 C 251.629 11.202,251.515 11.105,252.000 10.756 C 252.498 10.398,252.475 10.365,251.864 10.564 C 251.458 10.695,250.558 10.547,249.864 10.235 C 249.169 9.923,247.970 9.561,247.200 9.432 C 246.430 9.302,245.260 9.099,244.600 8.981 C 243.940 8.862,242.458 8.661,241.307 8.534 C 240.155 8.406,239.311 8.144,239.430 7.951 C 239.550 7.758,238.636 7.600,237.400 7.600 C 236.004 7.600,235.246 7.449,235.400 7.200 C 235.555 6.949,234.663 6.800,233.000 6.800 C 231.337 6.800,230.445 6.651,230.600 6.400 C 230.756 6.148,229.812 6.000,228.047 6.000 C 226.507 6.000,225.136 5.820,225.000 5.600 C 224.863 5.379,223.063 5.200,220.976 5.200 C 218.725 5.200,217.200 5.038,217.200 4.800 C 217.200 4.539,211.125 4.400,199.776 4.400 C 188.263 4.400,182.437 4.536,182.600 4.800 M274.101 215.000 C 274.105 215.880,274.187 216.193,274.283 215.695 C 274.379 215.198,274.375 214.478,274.275 214.095 C 274.175 213.713,274.096 214.120,274.101 215.000 M351.693 226.400 C 351.693 227.170,351.775 227.485,351.876 227.100 C 351.976 226.715,351.976 226.085,351.876 225.700 C 351.775 225.315,351.693 225.630,351.693 226.400 M352.493 232.000 C 352.493 232.770,352.575 233.085,352.676 232.700 C 352.776 232.315,352.776 231.685,352.676 231.300 C 352.575 230.915,352.493 231.230,352.493 232.000 M353.301 238.200 C 353.305 239.080,353.387 239.393,353.483 238.895 C 353.579 238.398,353.575 237.678,353.475 237.295 C 353.375 236.913,353.296 237.320,353.301 238.200 M354.120 246.400 C 354.120 247.610,354.195 248.105,354.287 247.500 C 354.378 246.895,354.378 245.905,354.287 245.300 C 354.195 244.695,354.120 245.190,354.120 246.400 M354.493 250.000 C 354.493 250.770,354.575 251.085,354.676 250.700 C 354.776 250.315,354.776 249.685,354.676 249.300 C 354.575 248.915,354.493 249.230,354.493 250.000 M388.246 253.025 C 388.105 253.391,387.797 253.530,387.503 253.361 C 387.226 253.202,387.140 253.226,387.312 253.414 C 387.891 254.051,388.637 253.910,388.694 253.153 C 388.763 252.237,388.569 252.182,388.246 253.025 M354.889 261.467 C 354.840 265.023,354.635 267.993,354.432 268.067 C 353.863 268.273,346.333 275.666,346.511 275.844 C 346.598 275.931,348.593 274.115,350.945 271.808 L 355.220 267.615 355.099 261.307 L 354.978 255.000 354.889 261.467 M296.788 259.100 L 294.200 261.800 296.900 259.212 C 298.385 257.788,299.600 256.573,299.600 256.512 C 299.600 256.217,299.193 256.592,296.788 259.100 M386.265 257.025 C 386.469 257.557,386.385 257.680,385.932 257.506 C 385.287 257.259,257.448 384.723,257.365 385.696 C 257.341 385.973,257.294 386.502,257.261 386.871 C 257.227 387.240,256.885 387.624,256.500 387.726 C 256.115 387.828,256.282 387.893,256.871 387.871 C 257.460 387.848,257.867 387.709,257.776 387.560 C 257.684 387.412,257.879 387.066,258.209 386.792 C 258.624 386.448,258.686 386.144,258.409 385.811 C 258.096 385.433,364.520 278.306,383.956 259.434 L 385.569 257.867 385.960 258.895 C 386.379 259.996,387.180 260.734,387.054 259.902 C 387.012 259.626,386.836 259.173,386.663 258.897 C 386.465 258.580,386.618 258.283,387.074 258.097 C 387.838 257.785,388.262 256.800,387.633 256.800 C 387.431 256.800,386.979 256.690,386.628 256.555 C 386.143 256.369,386.056 256.482,386.265 257.025 M384.952 260.900 C 384.982 261.453,384.796 261.758,384.470 261.690 C 384.179 261.630,384.033 261.730,384.147 261.914 C 384.260 262.098,357.004 289.597,323.577 323.023 C 284.527 362.072,262.800 384.077,262.800 384.576 C 262.800 385.345,262.794 385.345,262.194 384.576 C 261.800 384.072,261.625 384.004,261.694 384.383 C 261.769 384.795,261.421 384.965,260.500 384.963 C 259.362 384.962,259.200 385.093,259.200 386.014 C 259.200 386.669,259.420 387.067,259.782 387.067 C 260.103 387.067,260.272 386.917,260.159 386.733 C 260.045 386.550,260.143 386.378,260.376 386.350 C 260.985 386.278,261.264 386.189,262.534 385.664 C 263.157 385.405,263.832 385.296,264.034 385.421 C 264.235 385.545,264.403 385.412,264.406 385.124 C 264.411 384.743,264.518 384.764,264.800 385.200 C 265.195 385.811,265.425 385.286,265.225 384.232 C 265.186 384.030,265.470 384.120,265.854 384.432 C 266.301 384.795,266.445 384.819,266.253 384.500 C 266.054 384.169,266.230 383.983,266.776 383.950 C 267.229 383.923,267.780 383.855,268.000 383.800 C 268.220 383.745,268.591 383.678,268.824 383.650 C 269.057 383.623,269.144 383.433,269.018 383.229 C 268.886 383.016,269.419 382.937,270.275 383.043 C 271.092 383.145,271.636 383.103,271.484 382.951 C 271.085 382.552,271.981 381.599,272.749 381.606 C 273.315 381.611,273.322 381.663,272.800 382.000 C 272.439 382.233,272.390 382.390,272.676 382.394 C 272.938 382.397,273.264 382.220,273.400 382.000 C 273.536 381.780,273.997 381.600,274.424 381.600 C 274.851 381.600,275.200 381.420,275.200 381.200 C 275.200 380.980,275.472 380.800,275.805 380.800 C 276.393 380.800,276.818 380.633,278.695 379.662 C 279.187 379.408,279.847 379.200,280.161 379.200 C 280.476 379.200,280.793 379.065,280.867 378.900 C 281.059 378.468,284.372 376.800,285.038 376.800 C 285.347 376.800,285.600 376.662,285.600 376.494 C 285.600 376.184,288.533 374.750,289.560 374.558 C 289.868 374.500,290.263 374.221,290.438 373.938 C 290.613 373.655,290.879 373.545,291.028 373.695 C 291.177 373.844,291.631 373.569,292.036 373.083 C 292.478 372.554,292.779 372.412,292.787 372.729 C 292.797 373.125,292.958 373.099,293.432 372.625 C 293.780 372.277,294.258 372.112,294.494 372.258 C 294.730 372.404,294.814 372.347,294.681 372.130 C 294.547 371.914,295.329 371.255,296.419 370.667 C 297.508 370.078,298.400 369.700,298.400 369.827 C 298.400 369.954,298.685 369.773,299.032 369.425 C 299.380 369.077,299.830 368.895,300.032 369.020 C 300.235 369.145,300.400 369.057,300.400 368.824 C 300.400 368.591,300.661 368.400,300.980 368.400 C 301.299 368.400,301.744 368.085,301.968 367.700 C 302.192 367.315,302.381 367.142,302.388 367.316 C 302.395 367.489,302.794 367.264,303.275 366.816 C 303.757 366.367,304.398 366.000,304.699 366.000 C 305.001 366.000,305.136 365.820,305.000 365.600 C 304.864 365.380,305.053 365.200,305.419 365.200 C 305.785 365.200,306.767 364.660,307.600 364.000 C 308.433 363.340,309.269 362.795,309.458 362.789 C 309.646 362.782,310.603 362.062,311.586 361.189 C 312.568 360.315,313.603 359.600,313.886 359.600 C 314.168 359.600,314.400 359.420,314.400 359.200 C 314.400 358.980,314.771 358.800,315.224 358.800 C 315.677 358.800,315.936 358.620,315.800 358.400 C 315.664 358.180,315.794 358.000,316.088 358.000 C 316.383 358.000,316.883 357.640,317.200 357.200 C 317.517 356.760,318.107 356.400,318.512 356.400 C 318.916 356.400,319.148 356.239,319.026 356.042 C 318.816 355.702,319.500 355.246,320.064 355.351 C 320.209 355.378,320.718 354.903,321.196 354.296 C 321.673 353.689,322.230 353.295,322.432 353.420 C 322.634 353.545,322.800 353.367,322.800 353.024 C 322.800 352.681,322.958 352.445,323.152 352.500 C 323.345 352.555,323.967 352.105,324.533 351.500 C 325.099 350.895,325.761 350.400,326.005 350.400 C 326.248 350.400,326.336 350.220,326.200 350.000 C 326.064 349.780,326.215 349.600,326.536 349.600 C 326.857 349.600,328.008 348.745,329.095 347.700 C 330.182 346.655,331.415 345.605,331.836 345.367 C 332.256 345.129,332.778 344.544,332.995 344.067 C 333.212 343.590,333.630 343.200,333.923 343.200 C 334.543 343.200,335.450 342.381,335.473 341.800 C 335.482 341.580,335.830 341.212,336.245 340.981 C 337.071 340.524,340.565 337.200,340.221 337.200 C 340.104 337.200,340.316 336.840,340.693 336.400 C 341.070 335.960,341.618 335.600,341.913 335.600 C 342.207 335.600,342.336 335.420,342.200 335.200 C 342.064 334.980,342.233 334.800,342.576 334.800 C 342.919 334.800,343.200 334.519,343.200 334.176 C 343.200 333.833,343.380 333.664,343.600 333.800 C 343.960 334.022,344.173 333.497,344.047 332.700 C 344.021 332.535,344.197 332.445,344.437 332.500 C 344.678 332.555,345.083 332.241,345.337 331.802 C 345.592 331.362,346.565 330.214,347.500 329.249 C 348.435 328.284,349.200 327.338,349.200 327.147 C 349.200 326.956,349.470 326.800,349.800 326.800 C 350.130 326.800,350.400 326.521,350.400 326.181 C 350.400 325.840,350.895 325.099,351.500 324.533 C 352.105 323.967,352.555 323.345,352.500 323.152 C 352.445 322.958,352.681 322.800,353.024 322.800 C 353.367 322.800,353.545 322.634,353.420 322.432 C 353.295 322.230,353.611 321.735,354.123 321.332 C 354.635 320.929,355.075 320.510,355.101 320.400 C 355.336 319.410,355.756 318.849,356.104 319.064 C 356.340 319.210,356.406 319.133,356.254 318.888 C 356.106 318.648,356.438 317.998,356.992 317.444 C 357.547 316.890,358.000 316.238,358.000 315.995 C 358.000 315.752,358.180 315.664,358.400 315.800 C 358.620 315.936,358.800 315.677,358.800 315.224 C 358.800 314.771,358.991 314.400,359.224 314.400 C 359.457 314.400,359.558 314.255,359.448 314.078 C 359.339 313.901,360.048 312.874,361.025 311.795 C 362.001 310.716,362.800 309.635,362.800 309.392 C 362.800 309.149,363.167 308.557,363.616 308.075 C 364.064 307.594,364.321 307.200,364.187 307.200 C 364.053 307.200,364.226 306.917,364.571 306.571 C 364.917 306.226,365.200 305.675,365.200 305.348 C 365.200 305.021,365.342 304.840,365.515 304.948 C 365.688 305.055,366.083 304.571,366.392 303.873 C 366.701 303.175,367.324 302.274,367.777 301.871 C 368.230 301.469,368.330 301.256,368.000 301.400 C 367.660 301.548,367.746 301.339,368.200 300.917 C 368.640 300.507,369.059 299.910,369.132 299.590 C 369.205 299.270,369.445 298.896,369.666 298.759 C 369.887 298.622,370.053 298.396,370.034 298.255 C 369.907 297.306,370.058 296.789,370.400 297.000 C 370.620 297.136,370.800 296.878,370.800 296.427 C 370.800 295.976,371.160 295.382,371.600 295.107 C 372.040 294.832,372.400 294.291,372.400 293.904 C 372.400 293.517,372.580 293.200,372.800 293.200 C 373.020 293.200,373.200 292.840,373.200 292.400 C 373.200 291.960,373.370 291.600,373.577 291.600 C 373.784 291.600,373.884 291.235,373.798 290.789 C 373.712 290.343,373.812 290.084,374.021 290.213 C 374.229 290.342,374.423 290.257,374.450 290.024 C 374.599 288.765,376.025 285.600,376.443 285.600 C 376.640 285.600,376.800 285.251,376.800 284.824 C 376.800 284.397,376.992 283.928,377.227 283.783 C 377.462 283.638,377.558 283.267,377.440 282.960 C 377.316 282.637,377.474 282.400,377.813 282.400 C 378.136 282.400,378.400 282.051,378.400 281.624 C 378.400 281.197,378.580 280.736,378.800 280.600 C 379.020 280.464,379.200 279.913,379.200 279.376 C 379.200 278.839,379.336 278.400,379.502 278.400 C 379.863 278.400,380.557 276.838,381.230 274.513 C 381.499 273.585,381.872 272.921,382.059 273.037 C 382.247 273.152,382.400 272.776,382.400 272.200 C 382.400 271.515,382.559 271.251,382.858 271.436 C 383.173 271.631,383.254 271.394,383.116 270.673 C 383.006 270.098,383.065 269.577,383.247 269.514 C 383.428 269.451,383.640 268.980,383.718 268.467 C 383.796 267.954,384.026 267.414,384.230 267.267 C 384.433 267.120,384.663 266.640,384.740 266.200 C 384.817 265.760,385.003 265.310,385.154 265.200 C 385.304 265.090,385.417 264.640,385.404 264.200 C 385.390 263.760,385.552 263.040,385.763 262.600 C 386.466 261.130,386.406 260.000,385.625 260.000 C 385.130 260.000,384.919 260.282,384.952 260.900 M341.200 280.070 C 339.689 281.417,339.625 281.526,340.800 280.751 C 342.419 279.682,343.359 278.826,343.147 278.614 C 343.066 278.532,342.189 279.188,341.200 280.070 M335.032 284.459 C 328.909 288.692,329.137 288.823,335.400 284.670 C 339.560 281.911,339.383 282.043,339.167 281.858 C 339.075 281.780,337.214 282.950,335.032 284.459 M194.300 283.099 C 197.875 283.166,203.725 283.166,207.300 283.099 C 210.875 283.033,207.950 282.979,200.800 282.979 C 193.650 282.979,190.725 283.033,194.300 283.099 M328.800 288.433 L 327.800 289.248 329.100 288.614 C 329.815 288.265,330.400 287.894,330.400 287.790 C 330.400 287.392,329.763 287.648,328.800 288.433 M302.400 299.200 C 301.576 299.464,301.541 299.526,302.200 299.554 C 302.640 299.573,303.270 299.413,303.600 299.200 C 304.301 298.747,303.814 298.747,302.400 299.200 M299.200 300.000 C 297.816 300.291,297.814 300.295,299.000 300.341 C 299.660 300.367,300.470 300.213,300.800 300.000 C 301.466 299.570,301.245 299.570,299.200 300.000 M294.500 301.076 C 294.885 301.176,295.515 301.176,295.900 301.076 C 296.285 300.975,295.970 300.893,295.200 300.893 C 294.430 300.893,294.115 300.975,294.500 301.076 M289.905 301.883 C 290.402 301.979,291.122 301.975,291.505 301.875 C 291.887 301.775,291.480 301.696,290.600 301.701 C 289.720 301.705,289.407 301.787,289.905 301.883 M283.500 302.682 C 283.995 302.778,284.805 302.778,285.300 302.682 C 285.795 302.587,285.390 302.509,284.400 302.509 C 283.410 302.509,283.005 302.587,283.500 302.682 " stroke="none" fill="#5c6cc4" fill-rule="evenodd"></path><path id="path1" d="M149.400 97.632 C 145.922 97.933,143.440 98.295,138.800 99.179 C 135.951 99.721,131.390 100.803,128.800 101.551 C 128.030 101.773,126.770 102.124,126.000 102.330 C 124.328 102.778,120.918 103.905,119.800 104.380 C 119.360 104.566,118.370 104.939,117.600 105.207 C 116.830 105.475,115.660 105.921,115.000 106.199 C 108.185 109.065,106.077 110.020,102.800 111.724 C 97.722 114.364,95.611 115.542,94.338 116.446 C 93.754 116.861,93.163 117.200,93.025 117.200 C 92.351 117.200,84.380 122.906,83.691 123.882 C 81.990 126.291,71.200 148.348,71.200 149.416 C 71.200 149.522,70.819 150.462,70.353 151.504 C 68.898 154.763,68.486 155.745,67.796 157.600 C 67.427 158.590,66.979 159.760,66.800 160.200 C 64.903 164.853,58.934 182.179,57.945 185.900 C 57.625 187.107,57.418 187.844,56.428 191.300 C 54.650 197.506,52.995 204.232,51.556 211.100 C 51.360 212.035,51.021 213.655,50.802 214.700 C 49.362 221.571,47.582 233.528,46.768 241.800 C 45.681 252.849,45.235 267.403,45.975 267.667 C 46.181 267.740,48.296 269.696,50.675 272.013 C 60.419 281.505,71.742 289.007,83.900 294.028 C 85.740 294.788,86.635 295.131,88.000 295.600 C 88.770 295.864,89.760 296.223,90.200 296.397 C 97.416 299.248,111.663 301.950,123.069 302.632 L 127.538 302.899 128.869 301.389 C 129.601 300.558,130.613 299.411,131.117 298.839 C 132.797 296.935,140.254 287.828,141.746 285.859 C 144.310 282.473,144.311 282.547,141.699 281.792 C 135.438 279.985,125.679 275.825,120.600 272.799 C 119.500 272.144,118.060 271.332,117.400 270.996 C 111.067 267.767,95.930 254.000,98.712 254.000 C 98.970 254.000,102.707 256.107,107.600 259.011 C 113.630 262.590,131.636 270.707,138.611 272.990 C 140.365 273.564,142.160 274.185,142.600 274.371 C 143.040 274.557,144.210 274.930,145.200 275.201 C 146.190 275.471,147.450 275.831,148.000 276.000 C 148.550 276.169,149.810 276.529,150.800 276.800 C 151.790 277.071,153.050 277.433,153.600 277.604 C 154.150 277.775,155.680 278.127,157.000 278.387 C 158.320 278.647,160.030 279.019,160.800 279.213 C 161.570 279.408,162.830 279.662,163.600 279.779 C 164.370 279.895,166.080 280.176,167.400 280.402 C 184.874 283.404,215.816 283.399,232.800 280.392 C 234.230 280.139,236.210 279.788,237.200 279.613 C 249.329 277.464,262.371 273.260,277.200 266.718 C 281.971 264.613,290.981 259.917,297.335 256.223 C 302.972 252.945,302.976 253.728,297.350 259.345 C 287.645 269.035,273.903 276.981,258.900 281.578 C 257.305 282.067,256.000 282.611,256.000 282.787 C 256.000 283.270,265.411 294.957,269.861 300.000 C 270.346 300.550,271.113 301.430,271.566 301.955 C 272.585 303.137,283.165 302.653,291.741 301.032 C 297.189 300.002,300.466 299.292,302.000 298.808 C 302.550 298.635,303.810 298.268,304.800 297.993 C 307.080 297.359,311.154 296.050,312.200 295.614 C 312.640 295.431,313.630 295.051,314.400 294.770 C 321.934 292.021,337.403 283.236,340.400 280.005 C 340.510 279.886,341.590 278.989,342.800 278.012 C 344.010 277.034,346.805 274.476,349.010 272.327 C 351.216 270.178,353.360 268.171,353.775 267.868 C 355.130 266.877,354.139 246.890,351.966 231.400 C 351.153 225.602,350.200 219.791,349.606 217.000 C 349.418 216.120,349.056 214.320,348.800 213.000 C 347.990 208.821,346.381 201.742,345.527 198.600 C 345.044 196.824,344.685 195.478,343.981 192.800 C 343.720 191.810,343.370 190.550,343.202 190.000 C 343.034 189.450,342.518 187.740,342.055 186.200 C 339.076 176.291,333.831 161.210,332.353 158.305 C 332.159 157.923,332.000 157.426,332.000 157.201 C 332.000 156.976,331.619 155.938,331.153 154.896 C 330.688 153.853,330.079 152.460,329.801 151.800 C 329.139 150.229,328.089 147.794,327.216 145.800 C 325.944 142.896,317.261 125.426,316.441 124.122 C 315.769 123.051,307.767 117.200,306.975 117.200 C 306.837 117.200,306.210 116.834,305.582 116.387 C 303.470 114.883,290.167 108.000,289.372 108.000 C 289.273 108.000,288.338 107.622,287.296 107.160 C 275.641 101.997,259.780 98.100,247.459 97.373 L 243.118 97.117 241.559 98.640 C 239.582 100.571,239.568 100.522,242.300 101.355 C 248.091 103.121,252.370 104.499,254.300 105.218 C 255.455 105.648,257.435 106.378,258.700 106.839 C 261.537 107.874,262.114 108.105,264.496 109.160 C 265.538 109.622,266.495 110.000,266.621 110.000 C 267.372 110.000,282.542 117.458,287.000 120.019 C 290.684 122.136,299.640 127.889,300.000 128.371 C 300.110 128.518,300.830 129.073,301.600 129.605 C 302.997 130.568,304.052 131.682,303.804 131.930 C 303.675 132.059,300.678 130.792,295.058 128.233 C 293.486 127.517,289.770 125.985,286.800 124.828 C 283.830 123.672,281.040 122.570,280.600 122.380 C 279.648 121.970,269.037 118.487,264.858 117.214 C 234.086 107.839,196.631 105.043,168.200 109.999 C 167.100 110.190,164.940 110.555,163.400 110.808 C 155.205 112.157,141.680 115.228,135.014 117.253 C 131.041 118.460,122.753 121.173,121.800 121.579 C 121.360 121.766,120.370 122.136,119.600 122.400 C 118.202 122.880,117.374 123.199,115.300 124.054 C 113.940 124.614,113.097 124.940,110.800 125.796 C 109.810 126.164,108.460 126.709,107.800 127.006 C 94.337 133.069,94.005 133.138,99.499 128.734 C 100.662 127.802,107.261 123.380,108.869 122.456 C 116.735 117.935,119.749 116.311,124.200 114.195 C 130.595 111.155,133.128 110.000,133.400 110.000 C 133.515 110.000,134.462 109.622,135.504 109.160 C 137.889 108.104,138.446 107.881,141.400 106.800 C 142.720 106.317,144.160 105.771,144.600 105.585 C 145.756 105.099,152.014 103.052,156.200 101.790 C 160.640 100.453,160.448 100.693,158.593 98.793 C 156.850 97.008,156.753 96.996,149.400 97.632 M159.194 188.238 C 161.874 188.942,166.678 191.237,168.357 192.615 C 168.883 193.047,169.915 193.910,170.649 194.534 C 179.350 201.929,182.222 217.730,176.658 227.600 C 176.224 228.370,175.595 229.540,175.259 230.200 C 173.426 233.802,166.608 239.215,161.400 241.203 C 148.050 246.300,132.071 238.634,126.792 224.600 C 124.764 219.208,124.811 210.364,126.895 205.200 C 130.664 195.860,137.570 189.935,147.400 187.606 C 149.632 187.077,156.092 187.423,159.194 188.238 M254.800 188.224 C 267.070 191.938,274.578 202.103,274.574 215.000 C 274.573 220.218,274.413 221.123,272.697 225.600 C 270.968 230.113,265.513 236.731,262.020 238.553 C 255.114 242.157,253.557 242.593,247.600 242.593 C 222.974 242.593,210.733 210.356,229.351 194.534 C 231.834 192.425,232.285 192.105,234.445 190.928 C 240.997 187.356,248.596 186.347,254.800 188.224 " stroke="none" fill="#fbfbfb" fill-rule="evenodd"></path><path id="path2" d="M159.800 101.398 C 159.323 101.559,154.460 103.014,152.200 103.673 C 151.320 103.929,150.429 104.288,150.220 104.470 C 150.011 104.651,149.437 104.800,148.944 104.800 C 148.451 104.800,147.936 104.980,147.800 105.200 C 147.664 105.420,147.124 105.600,146.600 105.600 C 146.076 105.600,145.536 105.780,145.400 106.000 C 145.264 106.220,144.801 106.400,144.371 106.400 C 143.941 106.400,143.277 106.559,142.895 106.753 C 142.513 106.948,141.750 107.284,141.200 107.500 C 140.650 107.716,139.705 108.097,139.100 108.346 C 138.495 108.596,137.505 109.004,136.900 109.254 C 136.295 109.503,135.440 109.847,135.000 110.019 C 131.070 111.550,115.611 119.134,112.200 121.204 C 111.100 121.872,109.930 122.540,109.600 122.689 C 109.270 122.838,108.820 123.103,108.600 123.277 C 108.380 123.452,106.760 124.538,105.000 125.690 C 101.801 127.785,101.474 128.022,99.600 129.598 C 98.864 130.217,98.811 130.340,99.400 130.063 C 101.097 129.266,104.236 127.885,105.000 127.600 C 105.440 127.436,106.700 126.896,107.800 126.400 C 108.900 125.904,110.160 125.366,110.600 125.203 C 111.648 124.815,113.113 124.228,114.600 123.600 C 116.153 122.944,117.081 122.590,118.800 122.000 C 119.570 121.736,120.560 121.366,121.000 121.179 C 126.035 119.035,142.777 114.252,151.800 112.380 C 152.900 112.152,154.610 111.784,155.600 111.561 C 157.919 111.041,160.975 110.480,163.000 110.202 C 165.144 109.908,168.800 109.107,168.800 108.931 C 168.800 108.854,167.150 107.083,165.133 104.995 C 161.786 101.531,160.993 100.996,159.800 101.398 M240.800 101.863 C 240.800 102.054,243.275 104.661,246.300 107.656 L 251.800 113.101 257.600 114.561 C 267.039 116.937,278.153 120.448,281.295 122.047 C 281.677 122.241,282.264 122.400,282.600 122.400 C 282.936 122.400,283.523 122.559,283.905 122.753 C 284.621 123.117,286.246 123.811,288.000 124.500 C 288.550 124.716,289.313 125.052,289.695 125.247 C 290.077 125.441,290.662 125.600,290.995 125.600 C 291.328 125.600,291.600 125.780,291.600 126.000 C 291.600 126.220,291.872 126.400,292.204 126.400 C 292.537 126.400,293.662 126.778,294.704 127.240 C 295.747 127.702,297.050 128.278,297.600 128.521 C 298.150 128.764,298.735 129.026,298.900 129.105 C 299.942 129.599,298.918 128.415,297.600 127.600 C 296.720 127.056,296.000 126.474,296.000 126.306 C 296.000 126.138,295.764 126.000,295.475 126.000 C 295.187 126.000,294.564 125.640,294.092 125.200 C 293.620 124.760,293.119 124.400,292.978 124.400 C 292.838 124.400,292.246 124.061,291.662 123.647 C 288.629 121.496,276.426 115.115,269.300 111.954 C 268.365 111.539,266.745 110.817,265.700 110.349 C 262.966 109.125,261.719 108.629,257.800 107.207 C 256.480 106.728,255.087 106.170,254.705 105.968 C 254.323 105.766,253.684 105.600,253.285 105.600 C 252.886 105.600,252.389 105.451,252.180 105.270 C 251.971 105.088,250.990 104.707,250.000 104.424 C 249.010 104.141,247.840 103.767,247.400 103.594 C 246.960 103.421,245.520 102.965,244.200 102.580 C 242.880 102.195,241.575 101.798,241.300 101.697 C 241.025 101.597,240.800 101.671,240.800 101.863 M321.444 131.820 C 323.070 135.022,324.400 137.902,324.400 138.220 C 324.400 138.539,324.580 138.800,324.800 138.800 C 325.020 138.800,325.200 139.160,325.200 139.600 C 325.200 140.040,325.380 140.400,325.600 140.400 C 325.820 140.400,326.000 140.645,326.000 140.944 C 326.000 141.396,327.172 144.012,328.846 147.295 C 329.041 147.677,329.200 148.262,329.200 148.595 C 329.200 148.928,329.380 149.200,329.600 149.200 C 329.820 149.200,330.000 149.472,330.000 149.805 C 330.000 150.138,330.157 150.723,330.350 151.105 C 331.914 154.211,332.400 155.379,332.400 156.038 C 332.400 156.457,332.541 156.800,332.713 156.800 C 332.885 156.800,333.270 157.629,333.569 158.642 C 333.868 159.655,334.448 161.176,334.856 162.022 C 335.265 162.869,335.600 163.804,335.600 164.101 C 335.600 164.397,335.749 164.811,335.930 165.020 C 336.112 165.229,336.505 166.210,336.802 167.200 C 337.100 168.190,337.463 169.180,337.608 169.400 C 337.753 169.620,338.552 171.960,339.382 174.600 C 340.212 177.240,341.051 179.713,341.246 180.095 C 341.441 180.477,341.600 181.231,341.600 181.771 C 341.600 182.311,341.780 182.864,342.000 183.000 C 342.220 183.136,342.400 183.676,342.400 184.200 C 342.400 184.724,342.580 185.264,342.800 185.400 C 343.020 185.536,343.200 186.177,343.200 186.824 C 343.200 187.471,343.380 188.000,343.600 188.000 C 343.820 188.000,344.000 188.540,344.000 189.200 C 344.000 189.860,344.180 190.400,344.400 190.400 C 344.620 190.400,344.800 191.030,344.800 191.800 C 344.800 193.849,344.576 194.031,355.340 183.260 L 365.274 173.320 359.961 167.760 C 357.038 164.702,348.397 155.900,340.759 148.200 C 333.120 140.500,325.110 132.355,322.959 130.100 C 320.808 127.845,318.922 126.000,318.768 126.000 C 318.614 126.000,319.818 128.619,321.444 131.820 M148.600 188.076 C 147.280 188.289,145.887 188.629,145.505 188.832 C 145.123 189.034,144.484 189.200,144.085 189.200 C 143.686 189.200,143.189 189.351,142.980 189.536 C 142.771 189.721,141.970 190.113,141.200 190.408 C 135.675 192.524,130.156 198.740,127.179 206.200 C 126.210 208.630,125.617 218.795,126.331 220.761 C 126.538 221.333,126.947 222.610,127.240 223.600 C 129.466 231.123,135.630 237.381,144.200 240.819 C 146.666 241.808,156.546 242.414,157.336 241.624 C 157.569 241.391,158.266 241.200,158.885 241.200 C 159.504 241.200,160.323 241.036,160.705 240.835 C 161.087 240.634,162.445 239.986,163.722 239.395 C 167.936 237.444,174.763 231.239,174.793 229.333 C 174.797 229.077,174.935 228.807,175.100 228.733 C 175.763 228.438,177.503 224.238,178.388 220.794 C 179.141 217.861,178.664 209.159,177.610 206.600 C 177.429 206.160,177.051 205.170,176.771 204.400 C 176.490 203.630,175.932 202.522,175.530 201.938 C 175.129 201.354,174.800 200.679,174.800 200.438 C 174.800 200.197,174.620 200.000,174.400 200.000 C 174.180 200.000,174.000 199.801,174.000 199.558 C 174.000 198.812,169.126 193.996,166.800 192.445 C 162.959 189.884,159.731 188.698,155.244 188.198 C 154.058 188.066,152.618 187.897,152.044 187.823 C 151.470 187.749,149.920 187.863,148.600 188.076 M244.200 188.273 C 242.880 188.367,241.629 188.614,241.420 188.822 C 241.211 189.030,240.707 189.200,240.301 189.200 C 239.894 189.200,238.816 189.560,237.906 190.000 C 236.995 190.440,236.014 190.800,235.725 190.800 C 235.436 190.800,235.200 190.936,235.200 191.102 C 235.200 191.269,234.630 191.657,233.934 191.965 C 231.254 193.151,226.001 198.962,224.138 202.800 C 220.860 209.555,220.106 218.685,222.447 223.295 C 222.641 223.677,222.800 224.352,222.800 224.795 C 222.800 225.238,222.980 225.600,223.200 225.600 C 223.420 225.600,223.600 225.834,223.600 226.120 C 223.600 226.856,224.541 228.793,224.900 228.797 C 225.065 228.799,225.200 229.070,225.200 229.400 C 225.200 229.730,225.380 230.000,225.600 230.000 C 225.820 230.000,226.000 230.182,226.000 230.403 C 226.000 231.141,229.209 234.569,231.491 236.270 C 232.321 236.889,233.090 237.501,233.200 237.630 C 233.310 237.759,233.985 238.119,234.700 238.430 C 235.415 238.741,236.000 239.131,236.000 239.298 C 236.000 239.464,236.360 239.600,236.800 239.600 C 237.240 239.600,237.600 239.780,237.600 240.000 C 237.600 240.220,238.039 240.400,238.576 240.400 C 239.113 240.400,239.664 240.580,239.800 240.800 C 239.936 241.020,240.656 241.200,241.400 241.200 C 242.144 241.200,242.864 241.380,243.000 241.600 C 243.140 241.827,245.137 242.000,247.624 242.000 C 250.275 242.000,252.000 241.842,252.000 241.600 C 252.000 241.380,252.720 241.200,253.600 241.200 C 254.480 241.200,255.200 241.020,255.200 240.800 C 255.200 240.580,255.740 240.400,256.400 240.400 C 257.060 240.400,257.600 240.220,257.600 240.000 C 257.600 239.780,257.960 239.600,258.400 239.600 C 258.840 239.600,259.200 239.420,259.200 239.200 C 259.200 238.980,259.393 238.800,259.628 238.800 C 262.638 238.800,272.400 227.457,272.400 223.959 C 272.400 223.542,272.580 223.200,272.800 223.200 C 273.020 223.200,273.200 222.491,273.200 221.624 C 273.200 220.757,273.380 219.936,273.600 219.800 C 273.829 219.659,274.000 217.604,274.000 215.000 C 274.000 212.396,273.829 210.341,273.600 210.200 C 273.380 210.064,273.200 209.344,273.200 208.600 C 273.200 207.856,273.020 207.136,272.800 207.000 C 272.580 206.864,272.400 206.422,272.400 206.017 C 272.400 204.052,268.599 198.242,265.323 195.200 C 261.423 191.577,259.553 190.494,254.400 188.870 C 252.722 188.341,247.525 188.037,244.200 188.273 M103.600 259.332 C 108.374 264.010,116.191 269.839,120.600 272.008 C 121.260 272.333,121.890 272.693,122.000 272.809 C 122.215 273.035,128.015 275.878,130.531 276.990 C 132.857 278.019,138.246 279.960,141.600 280.978 C 144.463 281.847,145.572 282.825,144.520 283.552 C 144.323 283.688,143.729 284.430,143.200 285.200 C 142.671 285.970,141.951 286.870,141.600 287.200 C 141.249 287.530,140.529 288.430,140.000 289.200 C 139.471 289.970,138.937 290.690,138.812 290.800 C 138.688 290.910,137.337 292.530,135.809 294.400 C 134.282 296.270,132.845 298.000,132.616 298.245 C 132.387 298.490,131.223 299.812,130.030 301.184 L 127.860 303.678 123.430 303.414 C 111.363 302.694,102.292 301.032,91.600 297.583 C 89.510 296.909,87.350 296.163,86.800 295.925 C 86.250 295.687,85.440 295.360,85.000 295.197 C 82.311 294.203,75.038 290.689,74.867 290.302 C 74.793 290.136,74.388 290.000,73.967 290.000 C 73.545 290.000,73.200 289.864,73.200 289.698 C 73.200 289.531,72.615 289.141,71.900 288.831 C 70.197 288.091,60.996 282.004,59.200 280.429 C 58.430 279.754,57.620 279.205,57.400 279.208 C 56.803 279.217,125.391 347.240,153.954 374.967 L 158.865 379.734 207.023 331.577 C 238.331 300.270,255.044 283.284,254.790 283.030 C 254.067 282.307,255.809 280.800,257.369 280.800 C 257.615 280.800,259.519 279.090,261.600 277.000 C 265.057 273.528,265.645 272.336,263.295 273.562 C 262.913 273.762,261.430 274.229,260.000 274.600 C 258.570 274.971,257.087 275.438,256.705 275.638 C 256.323 275.837,255.659 276.000,255.229 276.000 C 254.799 276.000,254.336 276.180,254.200 276.400 C 254.064 276.620,253.423 276.800,252.776 276.800 C 252.129 276.800,251.600 276.980,251.600 277.200 C 251.600 277.420,250.981 277.600,250.224 277.600 C 249.467 277.600,248.736 277.780,248.600 278.000 C 248.464 278.220,247.744 278.400,247.000 278.400 C 246.256 278.400,245.536 278.580,245.400 278.800 C 245.264 279.020,244.454 279.200,243.600 279.200 C 242.746 279.200,241.936 279.380,241.800 279.600 C 241.664 279.820,240.854 280.000,240.000 280.000 C 239.146 280.000,238.336 280.180,238.200 280.400 C 238.064 280.620,236.973 280.800,235.776 280.800 C 234.579 280.800,233.600 280.980,233.600 281.200 C 233.600 281.424,232.493 281.600,231.080 281.600 C 229.694 281.600,228.389 281.767,228.180 281.971 C 227.483 282.652,221.162 282.865,200.600 282.904 C 180.909 282.940,177.792 282.808,169.800 281.596 C 168.260 281.363,166.100 281.072,165.000 280.949 C 163.900 280.827,162.829 280.563,162.620 280.363 C 162.411 280.163,161.567 280.000,160.744 280.000 C 159.921 280.000,159.136 279.820,159.000 279.600 C 158.864 279.380,158.054 279.200,157.200 279.200 C 156.346 279.200,155.536 279.020,155.400 278.800 C 155.264 278.580,154.544 278.400,153.800 278.400 C 153.056 278.400,152.336 278.220,152.200 278.000 C 152.064 277.780,151.434 277.600,150.800 277.600 C 150.166 277.600,149.536 277.420,149.400 277.200 C 149.264 276.980,148.634 276.800,148.000 276.800 C 147.366 276.800,146.736 276.620,146.600 276.400 C 146.464 276.180,146.001 276.000,145.571 276.000 C 145.141 276.000,144.477 275.838,144.095 275.639 C 143.713 275.440,142.590 275.049,141.600 274.769 C 140.610 274.490,139.629 274.112,139.420 273.930 C 139.211 273.749,138.714 273.600,138.315 273.600 C 137.916 273.600,137.277 273.436,136.895 273.235 C 136.513 273.035,133.590 271.843,130.400 270.587 C 123.960 268.052,107.906 260.306,106.800 259.200 C 106.690 259.090,105.880 258.623,105.000 258.162 C 104.120 257.700,102.720 256.935,101.888 256.462 C 99.388 255.037,99.628 255.440,103.600 259.332 " stroke="none" fill="#475189" fill-rule="evenodd"></path><path id="path3" d="M159.850 101.119 C 159.726 101.320,160.030 101.407,160.525 101.312 C 161.245 101.175,162.214 101.961,165.335 105.214 C 167.485 107.455,169.327 109.206,169.428 109.105 C 169.529 109.004,167.801 107.139,165.587 104.961 C 161.788 101.223,160.372 100.274,159.850 101.119 M244.600 106.792 C 247.680 109.905,250.560 112.642,251.000 112.874 C 251.440 113.107,249.190 110.620,246.000 107.350 C 242.810 104.079,239.930 101.342,239.600 101.267 C 239.270 101.193,241.520 103.679,244.600 106.792 M317.764 125.000 C 317.925 125.660,318.250 126.380,318.487 126.600 C 318.782 126.875,318.829 126.843,318.635 126.500 C 318.480 126.225,318.460 126.000,318.591 126.000 C 319.031 126.000,361.732 169.350,364.131 172.232 L 365.157 173.464 354.981 183.611 C 344.964 193.600,344.811 193.777,345.176 194.979 C 345.529 196.145,345.963 197.813,346.767 201.100 C 346.969 201.925,347.317 203.320,347.542 204.200 C 351.595 220.104,354.563 241.718,355.073 259.043 L 355.322 267.485 351.737 271.043 C 349.765 272.999,347.373 275.230,346.421 276.000 C 345.468 276.770,344.129 277.943,343.445 278.607 C 342.760 279.270,341.570 280.252,340.800 280.787 C 340.030 281.323,339.310 281.882,339.200 282.029 C 338.792 282.574,329.711 288.335,327.200 289.641 C 325.770 290.385,324.540 291.130,324.467 291.297 C 324.393 291.463,323.988 291.600,323.567 291.600 C 323.145 291.600,322.800 291.780,322.800 292.000 C 322.800 292.220,322.451 292.400,322.024 292.400 C 321.597 292.400,321.136 292.580,321.000 292.800 C 320.864 293.020,320.403 293.200,319.976 293.200 C 319.549 293.200,319.200 293.380,319.200 293.600 C 319.200 293.820,318.928 294.000,318.595 294.000 C 318.262 294.000,317.677 294.159,317.295 294.353 C 316.913 294.548,316.060 294.929,315.400 295.200 C 314.740 295.471,313.887 295.852,313.505 296.047 C 313.123 296.241,312.448 296.400,312.005 296.400 C 311.562 296.400,311.200 296.580,311.200 296.800 C 311.200 297.020,310.761 297.200,310.224 297.200 C 309.687 297.200,309.136 297.380,309.000 297.600 C 308.864 297.820,308.234 298.000,307.600 298.000 C 306.966 298.000,306.349 298.159,306.229 298.354 C 306.108 298.549,305.513 298.804,304.905 298.921 C 304.297 299.038,303.080 299.343,302.200 299.597 C 296.835 301.150,286.947 302.662,278.835 303.170 C 272.906 303.541,271.840 303.404,270.790 302.137 C 270.454 301.731,268.654 299.588,266.790 297.373 C 261.900 291.564,260.275 289.584,259.623 288.637 C 259.306 288.177,258.937 287.710,258.804 287.600 C 258.671 287.490,258.125 286.770,257.592 286.000 C 257.058 285.230,256.302 284.251,255.911 283.825 C 254.736 282.543,255.066 282.152,258.100 281.228 C 260.632 280.457,263.492 279.462,266.200 278.412 C 277.214 274.139,288.540 267.004,296.295 259.454 C 300.191 255.660,300.574 255.067,298.302 256.343 C 297.536 256.773,296.480 257.367,295.955 257.662 C 295.430 257.958,294.910 258.290,294.800 258.400 C 294.585 258.615,293.430 259.236,286.584 262.821 C 282.350 265.038,272.131 269.713,269.200 270.774 C 268.430 271.053,267.350 271.467,266.800 271.694 C 266.250 271.921,265.350 272.284,264.800 272.500 C 264.250 272.716,263.487 273.052,263.105 273.247 C 262.723 273.441,262.059 273.600,261.629 273.600 C 261.199 273.600,260.738 273.777,260.604 273.994 C 260.311 274.468,262.813 274.065,263.380 273.547 C 263.589 273.356,264.125 273.200,264.572 273.200 C 265.180 273.200,264.431 274.157,261.600 277.000 C 259.519 279.090,257.615 280.800,257.369 280.800 C 255.809 280.800,254.067 282.307,254.790 283.030 C 255.044 283.284,238.348 300.253,207.072 331.528 L 158.963 379.635 157.982 378.786 C 153.529 374.936,58.000 280.475,58.000 279.923 C 58.000 279.719,58.208 279.681,58.462 279.838 C 58.741 280.011,58.815 279.948,58.649 279.679 C 58.498 279.435,58.103 279.339,57.771 279.467 C 57.414 279.603,57.215 279.499,57.284 279.212 C 57.348 278.944,57.041 278.517,56.603 278.263 C 56.165 278.008,55.212 277.193,54.485 276.452 C 53.758 275.710,53.065 275.202,52.945 275.322 C 52.745 275.522,120.791 343.526,155.692 378.005 C 163.773 385.988,170.490 392.853,170.619 393.260 C 170.805 393.847,171.258 394.000,172.803 394.000 C 173.876 394.000,174.864 394.180,175.000 394.400 C 175.136 394.620,176.857 394.800,178.824 394.800 C 180.838 394.800,182.400 394.967,182.400 395.183 C 182.400 395.422,188.777 395.576,199.229 395.591 C 212.721 395.611,216.000 395.515,215.770 395.108 C 215.540 394.701,215.590 394.699,216.021 395.100 C 216.662 395.694,217.755 395.774,217.400 395.200 C 217.242 394.944,218.521 394.800,220.953 394.800 C 223.055 394.800,224.863 394.621,225.000 394.400 C 225.136 394.180,226.507 394.000,228.047 394.000 C 229.812 394.000,230.756 393.852,230.600 393.600 C 230.447 393.353,231.138 393.200,232.403 393.200 C 233.530 393.200,234.756 393.039,235.126 392.843 C 235.820 392.476,237.594 392.133,240.893 391.731 C 241.934 391.604,242.708 391.374,242.613 391.221 C 242.518 391.068,243.017 390.975,243.720 391.015 C 244.424 391.055,245.180 390.983,245.400 390.855 C 245.620 390.727,245.980 390.589,246.200 390.548 C 246.420 390.507,247.225 390.357,247.990 390.215 C 248.754 390.073,249.474 389.826,249.590 389.665 C 249.705 389.505,250.250 389.391,250.800 389.413 C 251.350 389.435,252.152 389.280,252.583 389.068 C 253.014 388.856,253.734 388.657,254.183 388.625 C 254.632 388.594,254.967 388.386,254.927 388.164 C 254.887 387.942,255.427 387.742,256.127 387.719 C 258.396 387.645,259.200 387.204,259.200 386.034 C 259.200 385.091,259.356 384.962,260.500 384.963 C 261.421 384.965,261.769 384.795,261.694 384.383 C 261.625 384.004,261.800 384.072,262.194 384.576 C 262.794 385.345,262.800 385.345,262.800 384.576 C 262.800 384.077,284.527 362.072,323.577 323.023 C 357.004 289.597,384.260 262.098,384.147 261.914 C 384.033 261.730,384.179 261.630,384.470 261.690 C 384.801 261.759,384.981 261.447,384.949 260.863 C 384.906 260.080,385.056 259.956,385.859 260.109 C 386.387 260.210,386.933 260.109,387.071 259.885 C 387.216 259.651,387.126 259.598,386.861 259.762 C 386.577 259.938,386.238 259.627,385.984 258.958 L 385.569 257.867 383.956 259.434 C 364.845 277.991,258.096 385.433,258.402 385.803 C 258.675 386.132,258.549 386.503,257.995 387.005 C 257.206 387.719,257.195 387.709,257.335 386.427 C 257.516 384.776,384.872 257.099,385.932 257.506 C 386.375 257.676,386.469 257.557,386.280 257.064 C 386.065 256.505,386.206 256.430,387.111 256.622 C 388.178 256.850,388.183 256.840,387.400 256.173 C 386.673 255.554,386.668 255.516,387.345 255.751 C 387.898 255.943,388.030 255.855,387.859 255.409 C 387.725 255.061,387.832 254.850,388.114 254.905 C 388.381 254.957,388.600 254.730,388.600 254.400 C 388.600 254.070,388.390 253.800,388.133 253.800 C 387.877 253.800,387.537 253.671,387.379 253.513 C 387.221 253.354,387.481 253.300,387.957 253.392 C 388.473 253.491,388.720 253.395,388.571 253.152 C 388.433 252.929,388.653 252.474,389.060 252.141 C 389.773 251.557,389.771 251.543,389.000 251.768 C 388.255 251.986,388.248 251.964,388.900 251.457 C 389.635 250.885,389.886 250.176,389.205 250.597 C 388.657 250.936,389.215 249.542,389.907 248.842 C 390.323 248.421,390.342 248.211,389.984 247.990 C 389.660 247.790,389.647 247.650,389.943 247.548 C 390.182 247.467,390.437 247.000,390.511 246.510 C 390.585 246.021,390.755 245.511,390.889 245.378 C 391.022 245.244,391.055 244.520,390.962 243.768 C 390.869 243.015,390.944 242.400,391.130 242.400 C 391.315 242.400,391.484 242.175,391.504 241.900 C 391.525 241.625,391.584 240.725,391.636 239.900 C 391.687 239.075,391.862 238.400,392.023 238.400 C 392.321 238.400,392.607 236.813,393.049 232.706 C 393.184 231.444,393.426 230.492,393.585 230.591 C 393.744 230.689,393.914 229.567,393.961 228.097 C 394.009 226.627,394.262 225.159,394.524 224.835 C 394.912 224.355,394.889 224.312,394.400 224.600 C 393.915 224.886,393.889 224.843,394.266 224.376 C 394.839 223.667,395.181 219.295,395.423 209.600 L 395.607 202.200 356.540 163.000 C 327.028 133.388,317.544 124.094,317.764 125.000 M318.806 127.250 C 318.797 127.605,320.833 131.200,321.042 131.200 C 321.138 131.200,320.860 130.525,320.424 129.700 C 319.478 127.911,318.815 126.906,318.806 127.250 M299.200 128.754 C 299.200 129.025,298.992 129.119,298.738 128.962 C 298.445 128.781,298.385 128.853,298.575 129.159 C 298.739 129.425,299.082 129.572,299.337 129.486 C 299.591 129.400,300.010 129.615,300.267 129.964 C 300.524 130.313,300.839 130.495,300.966 130.368 C 301.093 130.240,300.748 129.714,300.198 129.199 C 299.647 128.681,299.200 128.482,299.200 128.754 M98.794 129.808 C 98.415 130.264,98.493 130.336,99.219 130.196 C 100.380 129.973,100.572 129.752,99.846 129.473 C 99.523 129.349,99.049 129.500,98.794 129.808 M333.100 158.586 C 333.464 159.568,333.823 160.310,333.898 160.235 C 334.125 160.008,333.027 156.800,332.722 156.800 C 332.566 156.800,332.736 157.604,333.100 158.586 M334.713 162.619 C 335.084 163.620,335.439 164.282,335.503 164.091 C 335.631 163.706,334.493 160.800,334.214 160.800 C 334.117 160.800,334.342 161.619,334.713 162.619 M336.045 166.027 C 336.283 166.782,336.571 167.808,336.686 168.306 C 336.801 168.804,337.054 169.310,337.248 169.430 C 337.441 169.549,337.600 170.051,337.600 170.544 C 337.600 171.037,337.752 171.611,337.937 171.820 C 338.123 172.029,338.593 173.245,338.982 174.522 C 339.370 175.800,339.781 176.752,339.895 176.639 C 340.092 176.442,338.120 170.232,337.596 169.400 C 337.457 169.180,337.100 168.190,336.802 167.200 C 336.505 166.210,336.115 165.232,335.937 165.027 C 335.760 164.822,335.808 165.272,336.045 166.027 M340.006 177.876 C 340.003 178.358,340.180 178.864,340.400 179.000 C 340.909 179.315,340.909 178.388,340.400 177.600 C 340.085 177.112,340.011 177.164,340.006 177.876 M340.800 180.553 C 340.800 180.883,340.980 181.264,341.200 181.400 C 341.420 181.536,341.600 181.377,341.600 181.047 C 341.600 180.717,341.420 180.336,341.200 180.200 C 340.980 180.064,340.800 180.223,340.800 180.553 M246.833 187.744 C 246.925 187.823,248.170 187.986,249.600 188.106 C 251.160 188.237,251.800 188.195,251.200 188.002 C 250.212 187.684,246.511 187.465,246.833 187.744 M244.500 188.276 C 244.885 188.376,245.515 188.376,245.900 188.276 C 246.285 188.175,245.970 188.093,245.200 188.093 C 244.430 188.093,244.115 188.175,244.500 188.276 M343.206 188.300 C 343.224 189.177,343.988 189.759,343.994 188.900 C 343.997 188.405,343.820 188.000,343.600 188.000 C 343.380 188.000,343.203 188.135,343.206 188.300 M344.006 190.900 C 344.020 192.042,344.788 192.626,344.794 191.500 C 344.797 190.895,344.620 190.400,344.400 190.400 C 344.180 190.400,344.003 190.625,344.006 190.900 M170.600 195.600 C 171.906 196.920,173.065 198.000,173.175 198.000 C 173.285 198.000,172.306 196.920,171.000 195.600 C 169.694 194.280,168.535 193.200,168.425 193.200 C 168.315 193.200,169.294 194.280,170.600 195.600 M266.220 195.970 C 267.552 197.416,269.051 199.275,269.553 200.100 C 270.664 201.927,271.131 202.107,270.123 200.319 C 269.725 199.614,268.140 197.756,266.600 196.189 C 263.820 193.360,263.818 193.359,266.220 195.970 M228.585 196.100 L 226.600 198.200 228.700 196.215 C 230.651 194.371,230.983 194.000,230.685 194.000 C 230.622 194.000,229.677 194.945,228.585 196.100 M273.228 209.076 C 273.213 209.558,273.380 210.064,273.600 210.200 C 274.073 210.492,274.073 210.101,273.600 209.000 C 273.269 208.229,273.255 208.231,273.228 209.076 M125.728 215.200 C 125.728 216.630,125.801 217.215,125.889 216.500 C 125.978 215.785,125.978 214.615,125.889 213.900 C 125.801 213.185,125.728 213.770,125.728 215.200 M178.901 215.000 C 178.905 215.880,178.987 216.193,179.083 215.695 C 179.179 215.198,179.175 214.478,179.075 214.095 C 178.975 213.713,178.896 214.120,178.901 215.000 M266.502 233.513 C 263.570 236.668,263.226 237.320,265.833 234.783 C 267.459 233.201,269.469 230.778,269.127 230.813 C 269.057 230.820,267.876 232.035,266.502 233.513 M262.400 237.200 C 261.850 237.630,261.597 237.986,261.838 237.991 C 262.079 237.996,262.602 237.640,263.000 237.200 C 263.912 236.192,263.688 236.192,262.400 237.200 M252.000 241.600 C 252.000 242.101,252.424 242.101,253.200 241.600 C 253.685 241.286,253.628 241.211,252.900 241.206 C 252.405 241.203,252.000 241.380,252.000 241.600 M103.000 259.200 C 104.750 260.960,106.271 262.400,106.381 262.400 C 106.491 262.400,105.150 260.960,103.400 259.200 C 101.650 257.440,100.129 256.000,100.019 256.000 C 99.909 256.000,101.250 257.440,103.000 259.200 M111.167 266.145 C 111.700 266.801,113.200 267.793,113.200 267.489 C 113.200 267.413,112.615 266.922,111.900 266.399 C 111.096 265.810,110.816 265.713,111.167 266.145 M258.200 274.800 C 257.908 275.273,258.299 275.273,259.400 274.800 C 260.171 274.469,260.169 274.455,259.324 274.428 C 258.842 274.413,258.336 274.580,258.200 274.800 M253.000 276.400 C 252.864 276.620,253.023 276.800,253.353 276.800 C 253.683 276.800,254.064 276.620,254.200 276.400 C 254.336 276.180,254.177 276.000,253.847 276.000 C 253.517 276.000,253.136 276.180,253.000 276.400 M250.400 277.200 C 249.915 277.514,249.972 277.589,250.700 277.594 C 251.195 277.597,251.600 277.420,251.600 277.200 C 251.600 276.699,251.176 276.699,250.400 277.200 M247.200 278.000 C 246.712 278.315,246.764 278.389,247.476 278.394 C 247.958 278.397,248.464 278.220,248.600 278.000 C 248.915 277.491,247.988 277.491,247.200 278.000 M244.000 278.800 C 243.512 279.115,243.564 279.189,244.276 279.194 C 244.758 279.197,245.264 279.020,245.400 278.800 C 245.715 278.291,244.788 278.291,244.000 278.800 M159.000 279.600 C 159.136 279.820,159.642 279.987,160.124 279.972 C 160.969 279.945,160.971 279.931,160.200 279.600 C 159.099 279.127,158.708 279.127,159.000 279.600 M240.600 279.600 C 239.829 279.931,239.831 279.945,240.676 279.972 C 241.158 279.987,241.664 279.820,241.800 279.600 C 242.092 279.127,241.701 279.127,240.600 279.600 M162.604 280.406 C 162.738 280.623,163.407 280.800,164.090 280.800 C 165.601 280.800,165.449 280.600,163.680 280.263 C 162.855 280.106,162.452 280.160,162.604 280.406 M236.400 280.400 C 235.445 280.706,235.457 280.722,236.676 280.760 C 237.378 280.782,238.064 280.620,238.200 280.400 C 238.484 279.940,237.836 279.940,236.400 280.400 M167.200 281.205 C 167.530 281.416,168.325 281.591,168.967 281.594 C 170.514 281.602,170.177 281.371,168.200 281.068 C 167.110 280.901,166.791 280.945,167.200 281.205 M231.800 281.200 C 230.606 281.504,230.607 281.506,232.100 281.553 C 232.925 281.579,233.600 281.420,233.600 281.200 C 233.600 280.759,233.532 280.759,231.800 281.200 M143.675 281.848 C 144.047 281.958,144.436 282.443,144.541 282.925 C 144.700 283.658,144.720 283.639,144.666 282.804 C 144.621 282.128,144.343 281.782,143.800 281.727 C 143.224 281.669,143.189 281.702,143.675 281.848 M172.400 282.004 C 172.944 282.352,176.758 282.594,176.367 282.256 C 176.275 282.177,175.210 282.001,174.000 281.866 C 172.530 281.702,171.999 281.748,172.400 282.004 M225.800 282.000 L 224.200 282.286 226.076 282.343 C 227.108 282.374,228.064 282.220,228.200 282.000 C 228.468 281.566,228.222 281.566,225.800 282.000 M61.600 282.146 C 61.600 282.256,62.140 282.730,62.800 283.200 C 63.460 283.670,64.000 283.964,64.000 283.854 C 64.000 283.744,63.460 283.270,62.800 282.800 C 62.140 282.330,61.600 282.036,61.600 282.146 M179.600 282.831 C 180.571 283.112,188.600 283.275,187.800 282.998 C 187.580 282.922,185.420 282.788,183.000 282.701 C 180.580 282.614,179.050 282.673,179.600 282.831 M216.800 282.800 L 213.400 283.051 217.000 283.119 C 218.980 283.157,220.870 283.013,221.200 282.800 C 221.691 282.483,221.655 282.425,221.000 282.481 C 220.560 282.518,218.670 282.662,216.800 282.800 M133.804 296.396 C 133.174 297.054,132.735 297.656,132.829 297.734 C 132.923 297.812,133.513 297.274,134.139 296.538 C 135.554 294.877,135.345 294.788,133.804 296.396 M131.201 299.398 C 130.686 299.948,130.339 300.464,130.432 300.546 C 130.524 300.628,131.019 300.178,131.530 299.547 C 132.676 298.135,132.474 298.044,131.201 299.398 M128.817 302.182 C 128.097 302.949,127.404 303.194,125.648 303.306 L 123.400 303.449 125.625 303.524 C 127.624 303.592,127.967 303.478,129.000 302.400 C 129.632 301.740,130.057 301.200,129.945 301.200 C 129.832 301.200,129.324 301.642,128.817 302.182 M108.900 301.876 C 109.285 301.976,109.915 301.976,110.300 301.876 C 110.685 301.775,110.370 301.693,109.600 301.693 C 108.830 301.693,108.515 301.775,108.900 301.876 M115.105 302.683 C 115.602 302.779,116.322 302.775,116.705 302.675 C 117.087 302.575,116.680 302.496,115.800 302.501 C 114.920 302.505,114.607 302.587,115.105 302.683 M118.100 303.076 C 118.485 303.176,119.115 303.176,119.500 303.076 C 119.885 302.975,119.570 302.893,118.800 302.893 C 118.030 302.893,117.715 302.975,118.100 303.076 M271.549 382.265 C 271.047 382.874,271.085 382.887,272.000 382.411 C 273.341 381.714,273.442 381.600,272.716 381.600 C 272.376 381.600,271.851 381.899,271.549 382.265 M266.725 383.993 C 266.134 384.171,265.549 384.246,265.425 384.159 C 265.301 384.071,265.295 384.125,265.410 384.277 C 265.824 384.822,267.126 384.771,267.607 384.191 C 267.877 383.866,268.031 383.615,267.949 383.634 C 267.867 383.653,267.316 383.815,266.725 383.993 " stroke="none" fill="#5361a9" fill-rule="evenodd"></path><path id="path4" d="M148.400 97.231 C 147.567 97.425,149.007 97.474,151.955 97.351 L 156.910 97.145 158.455 98.654 C 160.435 100.587,160.440 100.571,157.575 101.375 C 154.757 102.166,145.772 105.077,144.600 105.579 C 144.160 105.768,142.720 106.317,141.400 106.800 C 138.446 107.881,137.889 108.104,135.504 109.160 C 134.462 109.622,133.515 110.000,133.400 110.000 C 133.128 110.000,130.595 111.155,124.200 114.195 C 119.749 116.311,116.735 117.935,108.869 122.456 C 107.261 123.380,100.662 127.802,99.499 128.734 C 94.005 133.138,94.337 133.069,107.800 127.006 C 108.460 126.709,109.810 126.164,110.800 125.796 C 113.097 124.940,113.940 124.614,115.300 124.054 C 117.374 123.199,118.202 122.880,119.600 122.400 C 120.370 122.136,121.360 121.763,121.800 121.573 C 122.240 121.382,124.628 120.564,127.108 119.754 C 129.587 118.944,131.533 118.200,131.433 118.100 C 131.127 117.794,116.708 122.793,111.000 125.183 C 110.079 125.569,107.868 126.513,105.700 127.445 C 104.875 127.800,103.052 128.617,101.648 129.261 C 100.245 129.905,98.914 130.371,98.690 130.297 C 98.169 130.123,111.023 121.200,111.795 121.200 C 111.888 121.200,112.918 120.634,114.082 119.942 C 119.463 116.746,138.256 108.000,139.743 108.000 C 140.031 108.000,140.386 107.881,140.532 107.735 C 140.930 107.336,144.086 106.240,157.028 102.002 C 157.704 101.781,158.514 101.594,158.828 101.587 C 160.871 101.542,161.007 100.441,159.197 98.597 L 157.433 96.800 153.617 96.853 C 151.518 96.882,149.170 97.052,148.400 97.231 M240.802 98.598 C 238.777 100.662,238.843 100.815,242.200 101.806 C 248.045 103.531,259.040 107.306,259.468 107.735 C 259.614 107.881,259.975 108.000,260.271 108.000 C 260.567 108.000,261.662 108.381,262.704 108.847 C 263.747 109.312,265.140 109.922,265.800 110.203 C 271.255 112.520,273.725 113.661,278.600 116.116 C 281.680 117.667,285.343 119.625,286.741 120.468 C 288.138 121.311,289.347 122.000,289.427 122.000 C 289.602 122.000,294.429 125.043,295.000 125.513 C 295.220 125.694,296.810 126.793,298.533 127.955 C 301.682 130.080,302.359 131.029,299.914 129.895 C 297.453 128.752,292.732 126.690,291.000 126.000 C 290.560 125.825,289.511 125.378,288.669 125.008 C 284.552 123.194,269.258 117.914,268.681 118.106 C 268.458 118.181,270.868 119.093,274.038 120.133 C 277.207 121.174,280.160 122.183,280.600 122.375 C 281.040 122.568,283.830 123.672,286.800 124.828 C 289.770 125.985,293.486 127.517,295.058 128.233 C 300.678 130.792,303.675 132.059,303.804 131.930 C 304.052 131.682,302.997 130.568,301.600 129.605 C 300.830 129.073,300.110 128.518,300.000 128.371 C 299.640 127.889,290.684 122.136,287.000 120.019 C 282.542 117.458,267.372 110.000,266.621 110.000 C 266.495 110.000,265.538 109.622,264.496 109.160 C 262.118 108.107,261.521 107.867,258.800 106.878 C 257.590 106.438,255.790 105.773,254.800 105.401 C 252.392 104.496,250.685 103.936,245.000 102.185 C 239.187 100.395,239.526 100.720,241.426 98.770 L 243.000 97.154 248.000 97.361 C 251.452 97.504,252.505 97.457,251.400 97.207 C 250.520 97.009,248.172 96.836,246.183 96.823 L 242.567 96.800 240.802 98.598 M142.200 97.982 C 141.540 98.152,139.740 98.511,138.200 98.780 C 133.025 99.683,123.520 102.367,117.600 104.596 C 113.275 106.225,112.415 106.580,110.462 107.543 C 109.506 108.014,108.471 108.400,108.162 108.400 C 107.853 108.400,107.600 108.580,107.600 108.800 C 107.600 109.020,107.349 109.200,107.043 109.200 C 106.537 109.200,101.083 111.911,97.600 113.894 C 88.303 119.187,84.205 122.074,82.806 124.317 C 81.697 126.095,75.527 138.337,73.994 141.800 C 73.604 142.680,72.836 144.390,72.286 145.600 C 71.736 146.810,70.997 148.475,70.643 149.300 C 70.289 150.125,69.739 151.394,69.419 152.120 C 68.234 154.813,64.304 165.099,63.351 168.000 C 62.810 169.650,62.203 171.360,62.004 171.800 C 61.804 172.240,61.251 173.860,60.774 175.400 C 60.298 176.940,59.749 178.513,59.554 178.895 C 59.359 179.277,59.200 179.864,59.200 180.200 C 59.200 180.536,59.038 181.123,58.839 181.505 C 58.640 181.887,58.260 183.010,57.993 184.000 C 57.727 184.990,57.370 186.160,57.200 186.600 C 56.913 187.345,56.333 189.338,55.573 192.200 C 54.821 195.029,54.270 197.079,53.959 198.200 C 53.666 199.256,52.719 203.258,51.591 208.200 C 50.456 213.180,48.750 222.573,47.995 228.000 C 47.735 229.870,47.360 232.264,47.161 233.320 C 46.796 235.262,46.660 239.074,46.967 238.767 C 47.058 238.675,47.327 236.980,47.564 235.000 C 48.321 228.672,49.747 219.732,50.802 214.700 C 51.021 213.655,51.360 212.035,51.556 211.100 C 53.021 204.111,54.761 197.040,56.405 191.400 C 56.935 189.582,57.561 187.348,57.945 185.900 C 58.934 182.179,64.903 164.853,66.800 160.200 C 66.979 159.760,67.427 158.590,67.796 157.600 C 68.486 155.745,68.898 154.763,70.353 151.504 C 70.819 150.462,71.200 149.522,71.200 149.416 C 71.200 148.348,81.990 126.291,83.691 123.882 C 84.380 122.906,92.351 117.200,93.025 117.200 C 93.163 117.200,93.754 116.861,94.338 116.446 C 95.611 115.542,97.722 114.364,102.800 111.724 C 106.077 110.020,108.185 109.065,115.000 106.199 C 115.660 105.921,116.830 105.475,117.600 105.207 C 118.370 104.939,119.360 104.569,119.800 104.386 C 123.759 102.736,134.898 99.781,140.800 98.815 C 142.230 98.581,144.210 98.231,145.200 98.038 L 147.000 97.686 145.200 97.679 C 144.210 97.675,142.860 97.811,142.200 97.982 M254.800 98.038 C 255.790 98.231,257.770 98.581,259.200 98.815 C 267.798 100.223,279.445 103.682,287.296 107.160 C 288.338 107.622,289.273 108.000,289.372 108.000 C 290.167 108.000,303.470 114.883,305.582 116.387 C 306.210 116.834,306.837 117.200,306.975 117.200 C 307.767 117.200,315.769 123.051,316.441 124.122 C 316.883 124.825,319.330 129.630,321.880 134.800 C 326.746 144.668,326.908 145.016,329.753 151.700 C 330.058 152.415,330.688 153.853,331.153 154.896 C 331.619 155.938,332.000 156.976,332.000 157.201 C 332.000 157.426,332.167 157.923,332.371 158.305 C 332.575 158.687,332.866 159.360,333.017 159.800 C 333.169 160.240,333.366 160.408,333.456 160.172 C 333.596 159.805,331.527 154.555,328.424 147.400 C 327.946 146.300,327.251 144.682,326.878 143.805 C 323.378 135.572,316.434 122.913,314.698 121.600 C 308.903 117.219,293.714 108.885,287.000 106.403 C 286.222 106.115,284.940 105.595,283.100 104.821 C 279.140 103.156,268.140 99.986,263.000 99.029 C 261.020 98.660,258.645 98.188,257.723 97.979 C 256.800 97.771,255.360 97.619,254.523 97.643 L 253.000 97.686 254.800 98.038 M191.576 106.950 C 191.453 107.078,188.663 107.372,185.376 107.604 C 179.124 108.046,173.300 108.614,171.600 108.948 C 171.050 109.056,169.250 109.347,167.600 109.594 C 160.838 110.609,153.082 112.132,147.200 113.600 C 146.430 113.792,144.900 114.160,143.800 114.418 C 140.671 115.150,140.327 115.260,140.532 115.465 C 140.637 115.571,142.946 115.114,145.662 114.450 C 150.720 113.214,158.418 111.634,163.400 110.810 C 164.940 110.556,167.100 110.190,168.200 109.999 C 193.279 105.627,223.770 107.085,252.759 114.040 C 256.367 114.906,259.403 115.530,259.507 115.427 C 259.610 115.323,259.178 115.116,258.547 114.966 C 257.916 114.816,255.690 114.249,253.600 113.705 C 251.510 113.162,249.035 112.556,248.100 112.359 C 247.165 112.161,245.545 111.818,244.500 111.596 C 237.280 110.062,225.326 108.400,215.600 107.579 C 209.977 107.104,191.886 106.631,191.576 106.950 M136.600 116.301 C 135.500 116.640,134.780 116.979,135.000 117.053 C 135.220 117.128,136.480 116.848,137.800 116.431 C 139.120 116.014,139.840 115.675,139.400 115.678 C 138.960 115.681,137.700 115.961,136.600 116.301 M260.800 115.998 C 265.651 117.622,268.465 118.331,267.928 117.795 C 267.616 117.483,261.085 115.614,260.400 115.640 C 260.070 115.653,260.250 115.814,260.800 115.998 M132.400 117.600 C 131.903 117.921,131.938 117.988,132.600 117.988 C 133.040 117.988,133.670 117.813,134.000 117.600 C 134.497 117.279,134.462 117.212,133.800 117.212 C 133.360 117.212,132.730 117.387,132.400 117.600 M333.600 161.167 C 333.600 161.369,333.952 162.354,334.381 163.356 C 335.213 165.296,340.486 180.979,341.995 186.000 C 342.491 187.650,343.034 189.450,343.202 190.000 C 343.370 190.550,343.720 191.810,343.981 192.800 C 344.685 195.478,345.044 196.824,345.527 198.600 C 346.389 201.770,348.002 208.873,348.798 213.000 C 349.465 216.463,349.909 217.985,349.959 216.981 C 350.030 215.557,345.636 196.040,344.425 192.400 C 344.242 191.850,343.868 190.590,343.593 189.600 C 343.318 188.610,342.782 186.810,342.402 185.600 C 342.022 184.390,341.125 181.510,340.408 179.200 C 339.691 176.890,338.958 174.640,338.778 174.200 C 338.599 173.760,338.069 172.230,337.600 170.800 C 337.131 169.370,336.594 167.840,336.406 167.400 C 336.219 166.960,335.572 165.295,334.969 163.700 C 333.929 160.947,333.600 160.338,333.600 161.167 M147.400 187.606 C 138.837 189.634,132.072 194.717,128.506 201.800 C 123.594 211.559,124.078 221.498,129.904 230.489 C 133.426 235.924,139.031 239.951,145.998 242.051 C 149.608 243.139,157.462 242.707,161.400 241.203 C 166.608 239.215,173.426 233.802,175.259 230.200 C 175.595 229.540,176.224 228.370,176.658 227.600 C 182.222 217.730,179.350 201.929,170.649 194.534 C 167.827 192.136,167.319 191.787,164.594 190.374 C 159.744 187.860,151.756 186.574,147.400 187.606 M243.000 187.763 C 239.082 188.524,233.979 190.736,231.488 192.751 C 223.906 198.886,220.622 205.601,220.608 215.000 C 220.577 235.462,241.475 249.000,259.200 240.000 C 260.190 239.497,261.459 238.846,262.020 238.553 C 266.707 236.108,271.667 229.204,274.057 221.800 C 275.505 217.311,274.499 207.831,272.041 202.809 C 266.615 191.721,254.618 185.506,243.000 187.763 M156.400 188.175 C 166.603 190.078,174.959 197.115,177.565 206.000 C 177.855 206.990,178.286 208.325,178.522 208.966 C 179.134 210.628,179.057 219.841,178.414 221.800 C 176.188 228.587,173.102 233.292,168.686 236.634 C 151.461 249.670,127.416 238.623,125.788 216.924 C 124.840 204.277,132.967 192.163,144.600 188.885 C 149.628 187.469,151.884 187.333,156.400 188.175 M251.894 188.041 C 255.277 188.823,256.991 189.332,257.380 189.670 C 257.589 189.851,257.982 190.000,258.253 190.000 C 258.938 190.000,262.748 192.370,264.200 193.698 C 264.860 194.302,265.504 194.797,265.630 194.798 C 266.095 194.802,269.914 199.866,271.061 202.000 C 278.336 215.541,272.551 233.568,258.998 239.592 C 254.242 241.705,252.856 242.000,247.673 242.000 C 234.911 242.000,225.931 235.047,221.586 221.800 C 220.943 219.841,220.866 210.628,221.478 208.966 C 221.714 208.325,222.145 206.990,222.435 206.000 C 224.218 199.919,230.802 192.568,236.400 190.406 C 237.170 190.109,237.980 189.749,238.200 189.605 C 240.386 188.179,248.490 187.254,251.894 188.041 M350.080 219.000 C 350.080 219.660,350.224 220.650,350.400 221.200 C 350.711 222.172,350.720 222.167,350.720 221.000 C 350.720 220.340,350.576 219.350,350.400 218.800 C 350.089 217.828,350.080 217.833,350.080 219.000 M350.887 223.600 C 350.891 224.370,351.032 225.540,351.200 226.200 C 351.490 227.342,351.506 227.322,351.513 225.800 C 351.517 224.920,351.376 223.750,351.200 223.200 C 350.911 222.298,350.880 222.337,350.887 223.600 M351.663 228.600 C 351.654 229.260,351.795 230.520,351.977 231.400 L 352.308 233.000 352.314 231.200 C 352.317 230.210,352.176 228.950,352.000 228.400 C 351.687 227.424,351.679 227.428,351.663 228.600 M352.557 235.600 C 353.746 247.098,354.056 251.275,354.276 258.759 C 354.514 266.840,354.486 267.348,353.775 267.868 C 353.360 268.171,351.216 270.178,349.010 272.327 C 346.805 274.476,344.010 277.034,342.800 278.012 C 341.590 278.989,340.510 279.886,340.400 280.005 C 337.403 283.236,321.934 292.021,314.400 294.770 C 313.630 295.051,312.640 295.431,312.200 295.614 C 311.760 295.797,310.320 296.295,309.000 296.720 C 306.827 297.420,305.440 297.829,301.800 298.842 C 299.127 299.587,298.229 299.938,298.922 299.968 C 301.005 300.060,313.437 295.990,319.200 293.331 C 320.410 292.773,321.850 292.110,322.400 291.859 C 322.950 291.607,323.490 291.303,323.600 291.182 C 323.710 291.061,324.790 290.472,326.000 289.872 C 334.259 285.780,341.994 279.966,351.537 270.680 L 354.874 267.433 354.661 258.416 C 354.543 253.457,354.266 247.510,354.045 245.200 C 353.198 236.368,352.846 233.513,352.571 233.261 C 352.416 233.117,352.409 234.170,352.557 235.600 M46.300 240.956 C 46.135 242.032,46.023 244.012,46.051 245.356 L 46.101 247.800 46.464 245.000 C 46.664 243.460,46.776 241.480,46.714 240.600 L 46.600 239.000 46.300 240.956 M45.459 250.100 C 45.062 253.404,45.154 267.917,45.573 268.067 C 45.777 268.140,47.532 269.738,49.473 271.617 C 60.711 282.503,72.276 289.983,86.400 295.501 C 90.508 297.106,95.181 298.553,95.435 298.298 C 95.550 298.183,94.600 297.781,93.322 297.404 C 92.045 297.028,90.640 296.576,90.200 296.400 C 89.760 296.225,88.770 295.864,88.000 295.600 C 85.010 294.573,84.134 294.197,78.600 291.561 C 67.912 286.469,59.422 280.528,50.684 272.027 C 48.310 269.717,46.167 267.703,45.920 267.551 C 45.597 267.351,45.550 264.587,45.750 257.637 C 46.024 248.085,45.946 246.049,45.459 250.100 M98.400 254.346 C 98.400 256.341,111.956 268.220,117.400 270.996 C 118.060 271.332,119.500 272.144,120.600 272.799 C 125.679 275.825,135.438 279.985,141.699 281.792 C 144.311 282.547,144.310 282.473,141.746 285.859 C 140.254 287.828,132.797 296.935,131.117 298.839 C 130.613 299.411,129.605 300.554,128.878 301.378 L 127.556 302.878 122.478 302.665 C 119.061 302.522,118.054 302.564,119.400 302.791 C 120.500 302.978,122.871 303.146,124.668 303.165 L 127.937 303.200 131.468 299.077 C 135.445 294.435,137.170 292.352,140.046 288.716 C 141.141 287.332,142.258 285.930,142.527 285.600 C 144.841 282.768,144.862 282.270,142.700 281.606 C 138.256 280.243,135.875 279.420,133.400 278.394 C 132.960 278.211,131.795 277.733,130.811 277.331 C 123.528 274.355,113.985 268.665,107.807 263.613 C 105.456 261.691,99.095 255.171,99.336 254.930 C 99.471 254.796,99.810 254.872,100.090 255.100 C 100.620 255.531,102.252 256.474,106.000 258.517 C 107.210 259.176,108.380 259.847,108.600 260.007 C 109.568 260.714,116.247 264.089,121.200 266.374 C 129.340 270.130,129.958 270.400,130.401 270.400 C 130.626 270.400,131.123 270.559,131.505 270.753 C 132.138 271.075,133.219 271.542,135.400 272.434 C 136.569 272.913,145.344 275.758,148.600 276.715 C 151.313 277.511,153.537 278.064,159.400 279.399 C 163.739 280.387,174.184 282.005,175.879 281.952 C 177.651 281.897,176.412 281.661,169.800 280.793 C 167.820 280.533,165.678 280.158,165.040 279.960 C 164.402 279.762,163.425 279.600,162.869 279.600 C 162.312 279.600,161.304 279.431,160.628 279.224 C 159.953 279.017,158.320 278.638,157.000 278.381 C 155.680 278.124,154.150 277.775,153.600 277.604 C 153.050 277.433,151.790 277.071,150.800 276.800 C 149.810 276.529,148.550 276.169,148.000 276.000 C 147.450 275.831,146.190 275.471,145.200 275.201 C 144.210 274.930,143.040 274.557,142.600 274.371 C 142.160 274.185,140.365 273.564,138.611 272.990 C 131.636 270.707,113.630 262.590,107.600 259.011 C 99.505 254.207,98.400 253.646,98.400 254.346 M297.200 256.275 C 291.248 259.779,282.085 264.563,277.200 266.718 C 263.528 272.749,253.803 276.015,241.200 278.807 C 238.748 279.350,236.726 279.719,232.624 280.375 C 229.790 280.828,228.764 281.200,230.352 281.200 C 233.857 281.200,254.823 276.264,257.695 274.763 C 258.077 274.563,258.741 274.400,259.171 274.400 C 259.601 274.400,260.064 274.220,260.200 274.000 C 260.336 273.780,260.799 273.600,261.229 273.600 C 261.659 273.600,262.323 273.441,262.705 273.247 C 263.600 272.792,264.753 272.321,268.200 271.003 C 269.740 270.414,271.540 269.697,272.200 269.409 C 272.860 269.122,274.570 268.374,276.000 267.749 C 279.175 266.360,289.316 261.298,292.600 259.462 C 297.373 256.794,298.208 256.308,298.687 255.920 C 298.954 255.702,299.397 255.599,299.670 255.690 C 301.483 256.294,288.362 267.086,280.000 271.868 C 274.993 274.732,268.615 277.726,264.400 279.193 C 263.630 279.461,262.640 279.821,262.200 279.993 C 261.760 280.164,260.095 280.717,258.500 281.220 C 256.697 281.789,255.600 282.349,255.600 282.701 C 255.600 283.157,258.747 287.615,259.623 288.400 C 259.746 288.510,260.106 288.977,260.423 289.437 C 261.107 290.430,262.863 292.538,268.011 298.550 L 271.821 303.000 275.211 303.113 C 277.075 303.175,279.590 303.049,280.800 302.834 C 282.519 302.528,281.839 302.492,277.686 302.667 C 272.466 302.887,272.358 302.874,271.558 301.945 C 271.110 301.425,270.346 300.550,269.861 300.000 C 265.411 294.957,256.000 283.270,256.000 282.787 C 256.000 282.611,257.305 282.067,258.900 281.578 C 275.248 276.569,290.108 267.552,299.900 256.702 C 302.928 253.347,302.333 253.253,297.200 256.275 M224.000 281.600 C 222.606 281.893,222.608 281.895,224.400 281.924 C 225.390 281.941,226.920 281.805,227.800 281.623 L 229.400 281.292 227.400 281.299 C 226.300 281.302,224.770 281.438,224.000 281.600 M179.800 282.418 C 180.900 282.590,183.510 282.717,185.600 282.700 L 189.400 282.671 186.400 282.388 C 181.933 281.966,177.043 281.989,179.800 282.418 M213.400 282.400 C 210.650 282.654,210.672 282.659,214.600 282.694 C 216.800 282.714,219.500 282.590,220.600 282.418 C 223.214 282.011,217.758 281.997,213.400 282.400 M98.200 299.239 C 99.520 299.660,100.960 299.956,101.400 299.897 C 101.840 299.837,100.940 299.476,99.400 299.093 C 95.766 298.191,95.150 298.265,98.200 299.239 M103.000 300.400 C 103.440 300.589,104.340 300.738,105.000 300.732 C 106.170 300.721,106.175 300.712,105.200 300.400 C 103.733 299.930,101.906 299.930,103.000 300.400 M295.000 300.400 C 294.318 300.693,294.377 300.744,295.400 300.744 C 296.060 300.744,296.960 300.589,297.400 300.400 C 298.082 300.107,298.023 300.056,297.000 300.056 C 296.340 300.056,295.440 300.211,295.000 300.400 M107.000 301.200 C 107.440 301.389,108.520 301.535,109.400 301.525 C 110.929 301.506,110.947 301.492,109.800 301.200 C 108.021 300.747,105.947 300.747,107.000 301.200 M290.600 301.200 C 289.453 301.492,289.471 301.506,291.000 301.525 C 291.880 301.535,292.960 301.389,293.400 301.200 C 294.453 300.747,292.379 300.747,290.600 301.200 M112.000 302.000 C 112.550 302.176,113.990 302.314,115.200 302.307 L 117.400 302.293 115.400 301.982 C 112.573 301.541,110.601 301.552,112.000 302.000 M284.600 302.000 C 283.053 302.277,283.073 302.287,285.200 302.303 C 286.410 302.313,287.850 302.176,288.400 302.000 C 289.720 301.577,286.961 301.577,284.600 302.000 " stroke="none" fill="#9a9fc0" fill-rule="evenodd"></path></g></svg>