<svg id="svg" version="1.1" xmlns="http://www.w3.org/2000/svg" xmlns:xlink="http://www.w3.org/1999/xlink" width="400" height="436.8200836820084" viewBox="0, 0, 400,436.8200836820084"><g id="svgg"><path id="path0" d="M219.913 38.620 C 219.792 38.742,186.237 38.847,145.346 38.854 C 74.645 38.867,67.066 38.975,62.800 40.031 C 55.768 41.770,47.537 48.977,44.953 55.658 C 44.583 56.616,44.127 57.571,43.940 57.780 C 43.753 57.989,43.600 58.586,43.600 59.106 C 43.600 59.627,43.420 60.388,43.201 60.798 C 42.646 61.836,42.643 363.203,43.198 363.758 C 43.419 363.979,43.600 364.576,43.600 365.085 C 43.600 365.594,43.767 366.323,43.972 366.705 C 44.176 367.087,45.028 368.840,45.865 370.600 C 48.210 375.533,52.528 379.838,57.562 382.264 C 62.167 384.483,62.603 384.660,64.400 385.046 C 66.687 385.537,300.295 385.425,302.400 384.932 C 312.074 382.665,319.395 375.899,322.884 366.000 L 323.800 363.400 323.900 296.600 C 323.955 259.860,324.045 214.024,324.100 194.742 L 324.200 159.685 284.400 159.657 C 239.363 159.626,241.868 159.793,234.874 156.356 C 228.021 152.987,222.266 145.429,220.429 137.384 C 220.035 135.657,219.891 102.662,220.000 39.124 C 220.000 38.972,220.675 38.778,221.500 38.691 L 223.000 38.534 221.567 38.467 C 220.778 38.430,220.034 38.499,219.913 38.620 M188.000 151.917 C 188.770 152.399,189.670 152.920,190.000 153.074 C 190.330 153.229,190.834 153.586,191.120 153.869 C 191.406 154.151,191.856 154.521,192.120 154.691 C 197.428 158.105,197.115 168.365,191.550 173.369 C 187.984 176.575,190.020 176.431,149.968 176.308 L 114.600 176.200 113.000 175.261 C 104.310 170.161,103.770 156.980,112.083 152.904 C 116.288 150.842,112.898 150.995,153.800 151.020 L 186.600 151.041 188.000 151.917 M324.546 155.400 C 324.547 157.600,324.614 158.449,324.695 157.287 C 324.776 156.124,324.776 154.324,324.693 153.287 C 324.611 152.249,324.545 153.200,324.546 155.400 M252.879 216.869 C 262.965 221.598,263.235 234.956,253.348 240.005 L 251.400 241.000 183.600 241.099 L 115.800 241.199 113.200 239.867 C 102.789 234.535,103.841 220.541,114.954 216.514 L 117.400 215.628 184.000 215.714 L 250.600 215.800 252.879 216.869 M249.954 280.782 C 250.749 280.992,251.850 281.255,252.400 281.367 C 253.714 281.634,260.014 286.800,259.025 286.800 C 258.909 286.800,259.197 287.475,259.665 288.300 C 260.666 290.062,260.964 296.396,260.087 297.273 C 259.819 297.541,259.600 298.075,259.600 298.460 C 259.600 299.552,254.432 304.531,252.600 305.203 C 249.963 306.171,117.905 306.296,114.845 305.334 C 102.679 301.507,103.499 284.200,116.000 280.961 C 118.299 280.366,247.720 280.192,249.954 280.782 " stroke="none" fill="#844be4" fill-rule="evenodd"></path><path id="path1" d="M220.000 39.300 C 219.813 78.862,220.062 135.775,220.429 137.384 C 222.850 147.984,230.788 156.094,241.400 158.809 C 244.135 159.509,306.438 160.127,323.352 159.622 C 324.206 159.597,324.100 151.282,323.225 149.647 C 322.991 149.210,322.800 148.249,322.800 147.511 C 322.800 146.773,322.450 145.484,322.023 144.646 C 321.596 143.808,321.129 142.589,320.987 141.939 C 320.844 141.288,320.014 140.000,319.143 139.078 C 318.272 138.155,317.120 136.555,316.584 135.522 C 316.048 134.490,315.373 133.500,315.085 133.322 C 314.796 133.145,314.126 132.370,313.595 131.600 C 313.065 130.830,312.129 129.723,311.515 129.140 C 310.902 128.556,310.400 127.917,310.400 127.720 C 310.400 127.522,309.136 126.307,307.590 125.020 C 306.045 123.733,304.476 122.032,304.103 121.240 C 302.653 118.156,296.942 110.800,295.998 110.800 C 295.609 110.800,294.951 110.071,294.436 109.071 C 293.947 108.119,293.024 107.032,292.385 106.655 C 291.638 106.213,291.054 105.407,290.752 104.398 C 290.249 102.720,287.673 99.739,284.900 97.627 C 283.965 96.915,283.200 96.008,283.200 95.610 C 283.200 95.213,282.210 93.882,281.000 92.653 C 279.790 91.423,278.800 90.316,278.800 90.192 C 278.800 89.764,276.996 87.418,276.100 86.682 C 275.605 86.275,275.200 85.773,275.200 85.568 C 275.200 84.966,273.118 82.800,272.539 82.800 C 272.249 82.800,271.765 82.215,271.464 81.500 C 270.884 80.118,269.156 77.948,266.700 75.517 C 265.875 74.700,265.200 73.829,265.200 73.580 C 265.200 73.332,264.210 72.213,263.000 71.095 C 261.790 69.977,260.800 68.762,260.800 68.397 C 260.800 68.031,260.035 66.937,259.100 65.966 C 258.165 64.995,256.950 63.580,256.400 62.822 C 254.634 60.388,253.131 58.800,252.594 58.800 C 251.886 58.800,250.000 56.507,250.000 55.647 C 250.000 54.772,243.759 47.304,242.763 46.988 C 242.355 46.859,241.701 46.355,241.310 45.869 C 240.007 44.246,233.226 40.718,230.807 40.404 C 229.593 40.246,228.093 39.911,227.474 39.658 C 226.547 39.281,220.001 38.967,220.000 39.300 M233.889 47.866 C 234.071 48.412,232.601 48.971,231.984 48.590 C 231.694 48.411,231.712 48.147,232.044 47.747 C 232.588 47.092,233.654 47.160,233.889 47.866 " stroke="none" fill="#6333c3" fill-rule="evenodd"></path><path id="path2" d="M64.600 37.600 C 64.464 37.820,63.859 38.000,63.256 38.000 C 62.653 38.000,61.989 38.158,61.780 38.352 C 61.571 38.545,60.680 38.917,59.800 39.178 C 57.612 39.827,55.210 40.936,55.205 41.300 C 55.202 41.465,54.930 41.600,54.600 41.600 C 54.270 41.600,54.000 41.780,54.000 42.000 C 54.000 42.220,53.726 42.400,53.391 42.400 C 52.533 42.400,46.400 48.644,46.400 49.516 C 46.400 49.685,46.040 50.083,45.600 50.400 C 45.160 50.717,44.800 51.297,44.800 51.688 C 44.800 52.080,44.620 52.400,44.400 52.400 C 44.180 52.400,44.000 52.760,44.000 53.200 C 44.000 53.640,43.820 54.000,43.600 54.000 C 43.380 54.000,43.200 54.360,43.200 54.800 C 43.200 55.240,43.020 55.600,42.800 55.600 C 42.580 55.600,42.400 56.050,42.400 56.600 C 42.400 57.150,42.220 57.600,42.000 57.600 C 41.780 57.600,41.600 58.284,41.600 59.120 C 41.600 59.956,41.375 60.865,41.100 61.140 C 40.365 61.875,40.365 362.925,41.100 363.660 C 41.375 363.935,41.600 364.754,41.600 365.480 C 41.600 366.206,41.780 366.800,42.000 366.800 C 42.220 366.800,42.400 367.162,42.400 367.605 C 42.400 368.048,42.560 368.723,42.756 369.105 C 42.952 369.487,43.520 370.655,44.019 371.700 C 44.518 372.745,45.049 373.600,45.199 373.600 C 45.349 373.600,45.671 374.038,45.915 374.573 C 46.834 376.590,52.163 382.000,53.231 382.000 C 53.452 382.000,53.981 382.324,54.407 382.721 C 55.509 383.747,58.339 385.200,59.238 385.200 C 59.657 385.200,60.000 385.380,60.000 385.600 C 60.000 385.820,60.540 386.000,61.200 386.000 C 61.860 386.000,62.400 386.151,62.400 386.335 C 62.400 387.976,64.160 388.000,183.389 388.000 C 302.898 388.000,304.000 387.985,304.000 386.322 C 304.000 386.145,304.630 386.000,305.400 386.000 C 306.170 386.000,306.800 385.820,306.800 385.600 C 306.800 385.380,307.250 385.200,307.800 385.200 C 308.350 385.200,308.800 385.020,308.800 384.800 C 308.800 384.580,309.133 384.400,309.541 384.400 C 309.948 384.400,310.846 383.860,311.537 383.200 C 312.228 382.540,313.064 382.000,313.396 382.000 C 313.728 382.000,314.000 381.820,314.000 381.600 C 314.000 381.380,314.188 381.200,314.417 381.200 C 315.294 381.200,320.000 376.608,320.000 375.752 C 320.000 375.448,320.180 375.200,320.400 375.200 C 320.620 375.200,320.800 374.840,320.800 374.400 C 320.800 373.960,320.980 373.600,321.200 373.600 C 321.420 373.600,321.600 373.330,321.600 373.000 C 321.600 372.670,321.780 372.400,322.000 372.400 C 322.220 372.400,322.400 372.130,322.400 371.800 C 322.400 371.470,322.535 371.199,322.700 371.199 C 322.865 371.198,323.328 370.343,323.729 369.299 C 324.129 368.254,324.624 367.087,324.829 366.705 C 325.033 366.323,325.200 365.594,325.200 365.085 C 325.200 364.576,325.423 363.937,325.696 363.664 C 326.466 362.894,326.425 149.343,325.654 146.800 C 324.699 143.649,323.351 140.541,322.789 140.193 C 322.575 140.061,322.400 139.686,322.400 139.360 C 322.400 139.033,322.040 138.380,321.600 137.908 C 321.160 137.436,320.800 136.813,320.800 136.525 C 320.800 136.236,320.620 136.000,320.400 136.000 C 320.180 136.000,320.000 135.773,320.000 135.496 C 320.000 134.927,317.926 132.388,315.100 129.498 C 314.055 128.430,313.200 127.386,313.200 127.178 C 313.200 126.970,313.050 126.800,312.868 126.800 C 312.685 126.800,312.280 126.306,311.968 125.703 C 311.655 125.100,310.860 124.042,310.200 123.353 C 309.540 122.664,308.280 121.241,307.400 120.191 C 306.520 119.141,305.395 117.867,304.900 117.359 C 304.405 116.852,304.000 116.242,304.000 116.005 C 304.000 115.768,303.415 114.964,302.700 114.220 C 300.679 112.116,299.562 110.805,297.400 107.998 C 296.300 106.570,294.905 104.924,294.300 104.340 C 293.695 103.757,293.200 103.147,293.200 102.986 C 293.200 102.826,292.875 102.403,292.478 102.047 C 292.080 101.691,291.495 101.020,291.178 100.556 C 290.630 99.757,288.165 96.840,286.408 94.914 C 285.964 94.427,285.600 93.924,285.600 93.796 C 285.600 93.668,285.195 93.139,284.700 92.619 C 284.205 92.100,283.170 90.924,282.400 90.006 C 281.630 89.087,280.813 88.126,280.586 87.868 C 280.358 87.611,279.638 86.684,278.986 85.808 C 278.333 84.932,276.585 82.976,275.100 81.460 C 273.615 79.945,272.400 78.457,272.400 78.153 C 272.400 77.849,272.220 77.600,272.000 77.600 C 271.780 77.600,271.600 77.314,271.600 76.964 C 271.600 76.614,270.070 74.815,268.200 72.966 C 266.330 71.117,264.800 69.333,264.800 69.002 C 264.800 68.671,264.620 68.400,264.400 68.400 C 264.180 68.400,264.000 68.222,264.000 68.005 C 264.000 67.428,262.943 66.173,259.900 63.134 C 258.415 61.652,257.200 60.237,257.200 59.991 C 257.200 59.744,256.975 59.302,256.700 59.007 C 256.425 58.712,255.120 57.123,253.800 55.476 C 252.480 53.828,250.995 52.252,250.500 51.973 C 250.005 51.693,249.597 51.270,249.593 51.032 C 249.578 50.130,243.233 43.200,242.422 43.200 C 242.190 43.200,242.000 43.020,242.000 42.800 C 242.000 42.580,241.764 42.400,241.475 42.400 C 241.187 42.400,240.602 42.085,240.175 41.700 C 238.935 40.581,236.071 39.349,230.772 37.656 C 228.880 37.052,64.973 36.997,64.600 37.600 M230.029 38.634 C 230.385 39.064,230.923 39.195,231.693 39.041 C 232.487 38.883,232.899 38.993,233.058 39.407 C 233.183 39.733,233.716 40.000,234.243 40.000 C 234.769 40.000,235.200 40.180,235.200 40.400 C 235.200 40.620,235.560 40.800,236.000 40.800 C 236.440 40.800,236.800 40.980,236.800 41.200 C 236.800 41.420,237.160 41.600,237.600 41.600 C 238.040 41.600,238.400 41.780,238.400 42.000 C 238.400 42.220,238.670 42.400,239.000 42.400 C 239.330 42.400,239.600 42.580,239.600 42.800 C 239.600 43.020,239.881 43.200,240.225 43.200 C 240.934 43.200,248.141 50.265,249.610 52.400 C 250.140 53.170,250.760 54.006,250.987 54.258 C 251.214 54.510,252.120 55.567,253.000 56.608 C 253.880 57.648,255.050 58.990,255.600 59.590 C 256.150 60.190,257.050 61.277,257.600 62.004 C 258.150 62.732,258.825 63.555,259.100 63.835 C 259.375 64.114,259.600 64.470,259.600 64.625 C 259.600 64.779,259.921 65.197,260.314 65.553 C 260.707 65.909,261.442 66.740,261.947 67.400 C 262.452 68.060,263.622 69.410,264.548 70.400 C 265.473 71.390,266.670 72.830,267.207 73.600 C 267.743 74.370,268.547 75.380,268.991 75.845 C 270.788 77.723,273.801 81.310,274.733 82.682 C 275.279 83.485,276.595 85.054,277.658 86.170 C 278.722 87.287,279.594 88.337,279.596 88.504 C 279.598 88.671,280.162 89.391,280.848 90.104 C 281.535 90.817,282.568 92.030,283.144 92.800 C 283.720 93.570,284.472 94.470,284.815 94.800 C 285.157 95.130,285.871 96.030,286.400 96.800 C 286.929 97.570,287.641 98.470,287.981 98.800 C 288.322 99.130,289.498 100.480,290.596 101.800 C 291.693 103.120,292.773 104.396,292.996 104.637 C 293.218 104.877,293.850 105.668,294.400 106.396 C 294.950 107.123,295.850 108.209,296.400 108.808 C 296.950 109.407,297.879 110.505,298.465 111.249 C 299.051 111.992,299.861 112.985,300.265 113.456 C 300.669 113.926,301.630 115.071,302.400 116.000 C 303.170 116.929,304.121 118.074,304.512 118.544 C 304.904 119.015,305.714 119.995,306.312 120.722 C 308.073 122.862,310.532 125.673,311.500 126.653 C 311.995 127.154,312.400 127.752,312.400 127.982 C 312.400 128.212,312.580 128.400,312.800 128.400 C 313.020 128.400,313.200 128.604,313.200 128.853 C 313.200 129.102,313.517 129.597,313.904 129.953 C 314.292 130.309,315.140 131.314,315.790 132.186 C 316.440 133.058,317.653 134.453,318.486 135.286 C 319.319 136.119,320.000 137.030,320.000 137.312 C 320.000 137.593,320.360 138.083,320.800 138.400 C 321.240 138.717,321.600 139.286,321.600 139.665 C 321.600 140.043,321.780 140.464,322.000 140.600 C 322.220 140.736,322.400 141.197,322.400 141.624 C 322.400 142.051,322.580 142.400,322.800 142.400 C 323.020 142.400,323.200 142.940,323.200 143.600 C 323.200 144.260,323.361 144.800,323.558 144.800 C 324.622 144.800,325.435 354.551,324.395 361.000 C 323.870 364.261,323.271 366.713,322.761 367.695 C 322.562 368.077,322.400 368.752,322.400 369.195 C 322.400 369.638,322.220 370.000,322.000 370.000 C 321.780 370.000,321.600 370.360,321.600 370.800 C 321.600 371.240,321.420 371.600,321.200 371.600 C 320.980 371.600,320.800 371.851,320.800 372.159 C 320.800 373.057,315.629 378.775,312.904 380.889 C 311.013 382.357,306.674 384.251,302.200 385.562 C 300.347 386.105,65.890 385.997,63.800 385.452 C 57.278 383.753,50.076 378.643,46.530 373.200 C 45.338 371.369,43.740 367.652,42.749 364.400 C 42.020 362.010,41.917 61.932,42.645 60.361 C 42.889 59.832,43.319 58.680,43.600 57.800 C 44.156 56.054,45.358 53.486,46.765 51.030 C 48.236 48.463,54.986 42.400,56.372 42.400 C 56.607 42.400,56.801 42.265,56.803 42.100 C 56.807 41.741,58.744 40.800,59.480 40.800 C 59.766 40.800,60.000 40.620,60.000 40.400 C 60.000 40.180,60.439 40.000,60.976 40.000 C 61.513 40.000,62.052 39.839,62.174 39.642 C 62.709 38.776,70.134 38.670,147.000 38.440 C 191.660 38.306,228.493 38.152,228.851 38.098 C 229.209 38.044,229.739 38.286,230.029 38.634 M113.445 152.950 C 104.157 158.017,104.086 169.667,113.312 174.764 C 114.855 175.617,118.157 175.917,118.574 175.242 C 118.857 174.785,117.859 174.400,116.391 174.400 C 115.762 174.400,115.136 174.220,115.000 174.000 C 114.864 173.780,114.489 173.600,114.168 173.600 C 113.393 173.600,109.200 169.387,109.200 168.609 C 109.200 168.274,109.020 168.000,108.800 168.000 C 108.580 168.000,108.400 167.561,108.400 167.024 C 108.400 166.487,108.220 165.936,108.000 165.800 C 107.780 165.664,107.600 164.764,107.600 163.800 C 107.600 162.836,107.780 161.936,108.000 161.800 C 108.220 161.664,108.400 161.147,108.400 160.652 C 108.400 160.156,108.760 159.364,109.200 158.892 C 109.640 158.420,110.000 157.840,110.000 157.603 C 110.000 156.958,112.686 154.400,113.363 154.400 C 113.687 154.400,114.052 154.239,114.174 154.042 C 114.791 153.044,183.576 152.216,184.555 153.195 C 184.778 153.418,185.316 153.600,185.752 153.600 C 188.001 153.600,192.000 156.338,192.000 157.878 C 192.000 158.165,192.180 158.400,192.400 158.400 C 192.620 158.400,192.800 158.745,192.800 159.167 C 192.800 159.588,193.017 160.006,193.281 160.094 C 193.921 160.307,193.901 167.059,193.259 167.701 C 193.007 167.953,192.800 168.403,192.800 168.699 C 192.800 170.245,187.338 174.395,185.288 174.406 C 183.808 174.414,182.888 174.995,183.799 175.344 C 184.827 175.739,187.124 175.647,187.400 175.200 C 187.536 174.980,188.000 174.800,188.431 174.800 C 189.393 174.800,193.645 170.646,194.367 169.000 C 194.656 168.340,195.052 167.487,195.247 167.105 C 195.731 166.153,195.694 161.305,195.200 161.000 C 194.980 160.864,194.800 160.386,194.800 159.938 C 194.800 158.381,190.780 153.879,188.400 152.772 C 187.850 152.516,187.087 152.148,186.705 151.953 C 186.318 151.756,170.502 151.614,150.905 151.633 L 115.800 151.666 113.445 152.950 M116.800 216.400 C 116.470 216.613,115.705 216.791,115.100 216.794 C 114.495 216.797,114.000 216.939,114.000 217.109 C 114.000 217.279,113.394 217.745,112.653 218.144 C 109.982 219.582,107.200 222.969,107.200 224.781 C 107.200 225.144,107.003 225.637,106.762 225.878 C 106.291 226.349,106.462 230.095,107.054 232.273 C 107.892 235.355,112.569 239.969,114.876 239.990 C 115.468 239.996,116.064 240.180,116.200 240.400 C 116.575 241.007,248.889 240.947,250.772 240.339 C 254.681 239.075,257.442 236.937,258.747 234.163 C 259.047 233.523,259.452 232.687,259.647 232.305 C 260.205 231.209,260.061 225.842,259.433 224.349 C 258.649 222.483,256.500 219.600,255.894 219.600 C 255.618 219.600,255.174 219.251,254.908 218.824 C 254.381 217.980,252.727 217.154,250.154 216.450 C 248.011 215.864,117.705 215.815,116.800 216.400 M251.400 218.400 C 251.536 218.620,252.107 218.800,252.670 218.800 C 254.008 218.800,256.078 221.062,257.506 224.085 C 258.107 225.358,258.734 226.400,258.899 226.400 C 259.484 226.400,259.219 230.286,258.600 230.800 C 258.270 231.074,258.000 231.726,258.000 232.249 C 258.000 232.772,257.832 233.200,257.627 233.200 C 257.422 233.200,257.150 233.515,257.023 233.900 C 256.739 234.762,254.623 237.197,254.147 237.209 C 253.956 237.214,253.350 237.570,252.800 238.000 C 252.250 238.430,251.395 238.786,250.900 238.791 C 250.405 238.796,250.000 238.980,250.000 239.200 C 250.000 239.754,116.942 239.754,116.600 239.200 C 116.464 238.980,115.975 238.800,115.514 238.800 C 114.626 238.800,112.245 237.173,111.141 235.812 C 110.779 235.365,110.014 234.460,109.442 233.800 C 108.869 233.140,108.401 232.206,108.400 231.724 C 108.400 231.242,108.220 230.736,108.000 230.600 C 107.780 230.464,107.600 229.463,107.600 228.376 C 107.600 227.289,107.780 226.400,108.000 226.400 C 108.220 226.400,108.400 225.950,108.400 225.400 C 108.400 224.850,108.580 224.400,108.800 224.400 C 109.020 224.400,109.200 224.040,109.200 223.600 C 109.200 223.160,109.335 222.792,109.500 222.781 C 109.665 222.771,110.430 221.873,111.200 220.786 C 112.282 219.257,112.844 218.808,113.676 218.804 C 114.268 218.802,114.864 218.620,115.000 218.400 C 115.342 217.846,251.058 217.846,251.400 218.400 M115.000 281.600 C 114.864 281.820,114.398 282.000,113.964 282.000 C 113.530 282.000,113.071 282.270,112.945 282.600 C 112.818 282.930,112.463 283.200,112.155 283.200 C 111.422 283.200,108.000 286.679,108.000 287.424 C 108.000 287.741,107.840 288.000,107.644 288.000 C 107.291 288.000,106.974 289.362,106.537 292.758 C 105.947 297.333,110.717 304.400,114.395 304.400 C 114.838 304.400,115.200 304.580,115.200 304.800 C 115.200 305.310,250.903 305.357,251.905 304.847 C 252.287 304.652,253.090 304.264,253.689 303.985 C 255.979 302.916,259.200 299.206,259.200 297.638 C 259.200 297.177,259.380 296.800,259.600 296.800 C 259.837 296.800,260.000 295.341,260.000 293.224 C 260.000 291.257,259.820 289.536,259.600 289.400 C 259.380 289.264,259.200 288.803,259.200 288.376 C 259.200 287.949,259.020 287.600,258.800 287.600 C 258.580 287.600,258.400 287.396,258.400 287.147 C 258.400 286.633,255.311 283.479,254.400 283.064 C 254.070 282.914,253.260 282.446,252.600 282.025 C 251.221 281.144,115.541 280.725,115.000 281.600 M250.600 282.800 C 250.736 283.020,251.276 283.200,251.800 283.200 C 252.324 283.200,252.864 283.380,253.000 283.600 C 253.136 283.820,253.519 284.000,253.852 284.000 C 254.579 284.000,255.205 284.621,255.968 286.100 C 256.280 286.705,256.685 287.200,256.868 287.200 C 257.050 287.200,257.200 287.460,257.200 287.779 C 257.200 288.097,257.650 289.204,258.200 290.238 C 259.332 292.368,259.454 293.824,258.637 295.468 C 258.327 296.090,257.836 297.140,257.545 297.800 C 256.818 299.447,254.155 302.024,252.066 303.101 L 250.333 303.995 183.291 304.002 C 138.609 304.007,116.114 303.874,115.845 303.605 C 115.622 303.382,115.116 303.200,114.720 303.200 C 114.324 303.200,114.000 303.020,114.000 302.800 C 114.000 302.580,113.723 302.400,113.385 302.400 C 112.623 302.400,109.200 298.934,109.200 298.163 C 109.200 297.853,109.020 297.600,108.800 297.600 C 108.580 297.600,108.400 297.060,108.400 296.400 C 108.400 295.740,108.220 295.200,108.000 295.200 C 107.455 295.200,107.494 292.299,108.056 290.919 C 109.361 287.719,109.834 286.967,111.677 285.162 C 113.126 283.744,113.996 283.200,114.817 283.200 C 115.442 283.200,116.064 283.020,116.200 282.800 C 116.542 282.246,250.258 282.246,250.600 282.800 " stroke="none" fill="#b494f0" fill-rule="evenodd"></path><path id="path3" d="M226.400 38.400 C 224.704 38.664,224.681 38.684,226.000 38.744 C 226.770 38.780,228.120 38.927,229.000 39.071 C 230.460 39.310,230.552 39.275,230.051 38.666 C 229.474 37.966,229.283 37.952,226.400 38.400 M65.600 38.800 C 65.270 39.013,64.426 39.191,63.724 39.194 C 63.022 39.197,62.336 39.380,62.200 39.600 C 62.064 39.820,61.513 40.000,60.976 40.000 C 60.439 40.000,60.000 40.180,60.000 40.400 C 60.000 40.620,59.766 40.800,59.480 40.800 C 58.744 40.800,56.807 41.741,56.803 42.100 C 56.801 42.265,56.607 42.400,56.372 42.400 C 54.986 42.400,48.236 48.463,46.765 51.030 C 45.358 53.486,44.156 56.054,43.600 57.800 C 43.319 58.680,42.889 59.832,42.645 60.361 C 41.917 61.932,42.020 362.010,42.749 364.400 C 45.927 374.823,51.535 380.837,61.800 384.829 C 62.240 385.000,63.140 385.280,63.800 385.452 C 65.890 385.997,300.347 386.105,302.200 385.562 C 306.674 384.251,311.013 382.357,312.904 380.889 C 315.629 378.775,320.800 373.057,320.800 372.159 C 320.800 371.851,320.980 371.600,321.200 371.600 C 321.420 371.600,321.600 371.240,321.600 370.800 C 321.600 370.360,321.780 370.000,322.000 370.000 C 322.220 370.000,322.400 369.638,322.400 369.195 C 322.400 368.752,322.562 368.077,322.761 367.695 C 323.212 366.827,323.796 364.524,324.363 361.376 C 324.869 358.571,325.004 158.863,324.500 159.367 C 324.335 159.532,324.110 205.507,324.000 261.533 L 323.800 363.400 322.884 366.000 C 319.395 375.899,312.074 382.665,302.400 384.932 C 300.295 385.425,66.687 385.537,64.400 385.046 C 62.603 384.660,62.167 384.483,57.562 382.264 C 52.528 379.838,48.210 375.533,45.865 370.600 C 45.028 368.840,44.176 367.087,43.972 366.705 C 43.767 366.323,43.600 365.594,43.600 365.085 C 43.600 364.576,43.419 363.979,43.198 363.758 C 42.643 363.203,42.646 61.836,43.201 60.798 C 43.420 60.388,43.600 59.627,43.600 59.106 C 43.600 58.586,43.753 57.989,43.940 57.780 C 44.127 57.571,44.583 56.616,44.953 55.658 C 47.537 48.977,55.768 41.770,62.800 40.031 C 67.066 38.975,74.645 38.867,145.346 38.854 C 186.237 38.847,219.792 38.742,219.913 38.620 C 220.322 38.211,66.234 38.390,65.600 38.800 M231.826 39.158 C 231.704 39.355,231.899 39.629,232.260 39.768 C 233.038 40.066,233.383 39.820,233.016 39.227 C 232.695 38.706,232.125 38.674,231.826 39.158 M238.486 42.600 C 239.295 43.150,240.113 43.600,240.304 43.600 C 240.825 43.600,246.801 49.589,248.400 51.714 C 249.979 53.813,250.944 54.305,249.551 52.300 C 248.104 50.219,240.911 43.200,240.225 43.200 C 239.881 43.200,239.600 43.020,239.600 42.800 C 239.600 42.580,239.330 42.400,239.000 42.400 C 238.670 42.400,238.400 42.220,238.400 42.000 C 238.400 41.780,238.088 41.600,237.707 41.600 C 237.258 41.600,237.531 41.951,238.486 42.600 M251.655 55.700 C 252.382 56.635,253.258 57.670,253.602 58.000 C 253.945 58.330,255.372 59.998,256.773 61.707 C 258.173 63.416,259.395 64.738,259.488 64.645 C 259.581 64.552,259.329 64.084,258.929 63.604 C 258.528 63.125,257.879 62.343,257.486 61.866 C 256.051 60.124,253.768 57.472,252.500 56.076 C 251.785 55.288,251.200 54.499,251.200 54.322 C 251.200 54.145,251.005 54.000,250.766 54.000 C 250.528 54.000,250.928 54.765,251.655 55.700 M260.430 66.282 C 260.964 66.877,261.580 67.565,261.800 67.811 C 262.020 68.057,262.920 69.134,263.800 70.204 C 269.537 77.181,271.452 79.471,271.993 80.000 C 272.331 80.330,273.366 81.590,274.293 82.800 C 276.638 85.858,279.577 89.080,279.585 88.600 C 279.589 88.380,278.722 87.287,277.658 86.170 C 276.595 85.054,275.279 83.485,274.733 82.682 C 273.801 81.310,270.788 77.723,268.991 75.845 C 268.547 75.380,267.743 74.370,267.207 73.600 C 266.670 72.830,265.473 71.390,264.548 70.400 C 263.622 69.410,262.449 68.060,261.941 67.400 C 260.701 65.789,260.116 65.200,259.759 65.200 C 259.595 65.200,259.897 65.687,260.430 66.282 M281.263 91.296 C 283.818 94.379,284.869 95.602,286.139 96.972 L 287.277 98.200 286.358 96.800 C 285.852 96.030,285.157 95.130,284.815 94.800 C 284.472 94.470,283.711 93.570,283.124 92.800 C 281.532 90.711,280.144 89.200,279.816 89.200 C 279.656 89.200,280.307 90.143,281.263 91.296 M289.646 101.300 C 290.593 102.455,291.918 104.030,292.592 104.800 C 293.265 105.570,294.123 106.639,294.499 107.176 C 294.874 107.713,295.268 108.065,295.375 107.959 C 295.481 107.852,295.170 107.291,294.684 106.710 C 294.198 106.129,293.080 104.800,292.200 103.757 C 291.320 102.713,290.150 101.267,289.600 100.544 C 289.050 99.821,288.448 99.223,288.263 99.215 C 288.077 99.207,288.700 100.145,289.646 101.300 M297.263 110.494 C 298.218 111.645,299.270 112.936,299.600 113.361 C 299.930 113.787,300.838 114.869,301.617 115.767 C 302.397 116.665,303.836 118.390,304.815 119.600 C 305.795 120.810,306.777 121.998,306.998 122.239 C 307.219 122.481,308.230 123.651,309.244 124.839 C 312.818 129.028,313.175 129.395,313.187 128.900 C 313.194 128.625,313.020 128.400,312.800 128.400 C 312.580 128.400,312.400 128.220,312.400 128.001 C 312.400 127.781,311.671 126.836,310.781 125.901 C 309.890 124.965,308.765 123.692,308.281 123.071 C 307.796 122.449,306.950 121.441,306.400 120.830 C 305.850 120.219,304.956 119.136,304.413 118.424 C 303.870 117.712,303.060 116.728,302.613 116.239 C 302.166 115.749,301.199 114.604,300.464 113.693 C 299.729 112.783,298.817 111.681,298.439 111.245 C 298.060 110.808,297.404 109.989,296.980 109.425 C 296.557 108.861,296.056 108.400,295.868 108.400 C 295.680 108.400,296.307 109.342,297.263 110.494 M315.674 132.640 C 317.063 134.311,318.605 136.241,319.100 136.928 C 319.735 137.809,320.000 137.974,320.000 137.489 C 320.000 137.110,319.319 136.119,318.486 135.286 C 317.653 134.453,316.438 133.058,315.786 132.186 C 314.345 130.259,313.738 129.600,313.403 129.600 C 313.263 129.600,314.285 130.968,315.674 132.640 M320.400 138.119 C 320.400 138.883,323.153 144.025,323.174 143.300 C 323.188 142.805,323.020 142.400,322.800 142.400 C 322.580 142.400,322.400 142.051,322.400 141.624 C 322.400 141.197,322.220 140.736,322.000 140.600 C 321.780 140.464,321.600 140.081,321.600 139.748 C 321.600 139.415,321.330 138.873,321.000 138.543 C 320.670 138.213,320.400 138.022,320.400 138.119 M323.228 145.100 C 323.338 146.273,323.946 146.926,323.972 145.900 C 323.987 145.295,323.820 144.800,323.600 144.800 C 323.380 144.800,323.213 144.935,323.228 145.100 M324.068 148.600 C 324.087 150.511,324.717 152.219,324.732 150.400 C 324.738 149.630,324.589 148.640,324.400 148.200 C 324.108 147.521,324.058 147.581,324.068 148.600 M114.800 151.605 C 114.470 151.801,113.535 152.256,112.722 152.616 C 103.819 156.557,103.983 169.969,113.000 175.261 L 114.600 176.200 149.968 176.308 C 190.020 176.431,187.984 176.575,191.550 173.369 C 197.115 168.365,197.428 158.105,192.120 154.691 C 191.856 154.521,191.406 154.151,191.120 153.869 C 190.834 153.586,190.330 153.228,190.000 153.073 C 189.670 152.918,188.860 152.446,188.200 152.025 C 186.883 151.184,116.185 150.779,114.800 151.605 M186.705 151.953 C 187.087 152.148,187.850 152.516,188.400 152.772 C 190.780 153.879,194.800 158.381,194.800 159.938 C 194.800 160.386,194.980 160.864,195.200 161.000 C 195.694 161.305,195.731 166.153,195.247 167.105 C 195.052 167.487,194.656 168.340,194.367 169.000 C 193.661 170.609,189.403 174.800,188.474 174.800 C 188.067 174.800,187.619 174.915,187.478 175.055 C 187.012 175.522,114.701 175.315,113.489 174.844 C 111.946 174.243,108.483 170.921,107.849 169.433 C 104.851 162.399,106.834 156.557,113.445 152.950 L 115.800 151.666 150.905 151.633 C 170.502 151.614,186.318 151.756,186.705 151.953 M116.056 216.057 C 115.317 216.271,114.821 216.554,114.954 216.687 C 115.087 216.821,115.872 216.713,116.698 216.448 C 118.407 215.900,248.832 215.994,251.000 216.544 C 252.086 216.820,252.124 216.799,251.400 216.324 C 250.399 215.668,118.301 215.407,116.056 216.057 M113.157 217.128 C 111.708 217.741,108.816 220.304,107.844 221.838 C 106.694 223.652,105.955 226.322,106.738 225.839 C 106.992 225.681,107.200 225.231,107.200 224.838 C 107.200 222.970,109.943 219.603,112.653 218.144 C 113.394 217.745,114.000 217.279,114.000 217.109 C 114.000 216.761,114.028 216.760,113.157 217.128 M252.600 217.200 C 252.736 217.420,253.094 217.600,253.395 217.600 C 253.696 217.600,254.296 218.050,254.729 218.600 C 255.161 219.150,255.713 219.600,255.955 219.600 C 256.511 219.600,258.685 222.569,259.433 224.349 C 260.061 225.842,260.205 231.209,259.647 232.305 C 259.452 232.687,259.047 233.523,258.747 234.163 C 257.442 236.937,254.681 239.075,250.772 240.339 C 248.889 240.947,116.575 241.007,116.200 240.400 C 116.064 240.180,115.468 239.996,114.876 239.990 C 112.566 239.969,107.880 235.342,107.060 232.273 C 106.873 231.573,106.585 229.920,106.421 228.600 L 106.122 226.200 106.061 228.227 C 105.915 233.090,108.638 237.530,113.200 239.867 L 115.800 241.199 183.600 241.099 L 251.400 241.000 253.348 240.005 C 262.269 235.449,263.159 223.487,254.979 218.069 C 253.050 216.791,252.143 216.460,252.600 217.200 M116.800 280.800 C 116.250 280.976,146.130 281.126,183.200 281.132 C 221.126 281.139,250.250 280.993,249.800 280.800 C 248.790 280.366,118.155 280.366,116.800 280.800 M113.800 281.600 C 113.664 281.820,113.823 282.000,114.153 282.000 C 114.483 282.000,114.864 281.820,115.000 281.600 C 115.136 281.380,114.977 281.200,114.647 281.200 C 114.317 281.200,113.936 281.380,113.800 281.600 M251.600 281.410 C 251.600 281.525,252.005 281.795,252.500 282.009 C 254.566 282.902,258.400 286.242,258.400 287.147 C 258.400 287.396,258.580 287.600,258.800 287.600 C 259.020 287.600,259.200 287.949,259.200 288.376 C 259.200 288.803,259.380 289.264,259.600 289.400 C 259.820 289.536,260.000 291.257,260.000 293.224 C 260.000 295.341,259.837 296.800,259.600 296.800 C 259.380 296.800,259.200 297.177,259.200 297.638 C 259.200 299.206,255.979 302.916,253.689 303.985 C 253.090 304.264,252.287 304.652,251.905 304.847 C 250.903 305.357,115.200 305.310,115.200 304.800 C 115.200 304.580,114.838 304.400,114.395 304.400 C 111.992 304.400,107.804 300.002,106.967 296.600 C 106.757 295.744,106.624 295.603,106.505 296.109 C 105.952 298.458,111.105 304.157,114.845 305.334 C 117.905 306.296,249.963 306.171,252.600 305.203 C 254.432 304.531,259.600 299.552,259.600 298.460 C 259.600 298.075,259.816 297.544,260.080 297.280 C 261.018 296.342,260.688 290.317,259.580 288.150 C 257.841 284.748,251.600 279.477,251.600 281.410 M110.190 284.045 C 107.412 286.672,106.397 288.776,106.222 292.269 C 106.091 294.871,106.101 294.906,106.425 293.000 C 106.612 291.900,106.882 290.325,107.026 289.500 C 107.170 288.675,107.448 288.000,107.644 288.000 C 107.840 288.000,108.000 287.741,108.000 287.424 C 108.000 286.679,111.422 283.200,112.155 283.200 C 112.463 283.200,112.818 282.930,112.945 282.600 C 113.381 281.463,112.346 282.006,110.190 284.045 " stroke="none" fill="#9870d9" fill-rule="evenodd"></path><path id="path4" d="M223.600 39.170 C 225.690 39.302,227.670 39.580,228.000 39.790 C 228.329 39.999,229.593 40.287,230.807 40.431 C 233.223 40.716,239.981 44.214,241.310 45.869 C 241.701 46.355,242.355 46.859,242.763 46.988 C 243.759 47.304,250.000 54.772,250.000 55.647 C 250.000 56.507,251.886 58.800,252.594 58.800 C 253.131 58.800,254.634 60.388,256.400 62.822 C 256.950 63.580,258.165 64.995,259.100 65.966 C 260.035 66.937,260.800 68.031,260.800 68.397 C 260.800 68.762,261.790 69.977,263.000 71.095 C 264.210 72.213,265.200 73.332,265.200 73.580 C 265.200 73.829,265.875 74.700,266.700 75.517 C 269.156 77.948,270.884 80.118,271.464 81.500 C 271.765 82.215,272.249 82.800,272.539 82.800 C 273.118 82.800,275.200 84.966,275.200 85.568 C 275.200 85.773,275.605 86.275,276.100 86.682 C 276.996 87.418,278.800 89.764,278.800 90.192 C 278.800 90.316,279.790 91.423,281.000 92.653 C 282.210 93.882,283.200 95.213,283.200 95.610 C 283.200 96.008,283.965 96.915,284.900 97.627 C 287.673 99.739,290.249 102.720,290.752 104.398 C 291.054 105.407,291.638 106.213,292.385 106.655 C 293.024 107.032,293.947 108.119,294.436 109.071 C 294.951 110.071,295.609 110.800,295.998 110.800 C 296.942 110.800,302.653 118.156,304.103 121.240 C 304.476 122.032,306.045 123.733,307.590 125.020 C 309.136 126.307,310.400 127.522,310.400 127.720 C 310.400 127.917,310.902 128.556,311.515 129.140 C 312.129 129.723,313.065 130.830,313.595 131.600 C 314.126 132.370,314.796 133.145,315.085 133.322 C 315.373 133.500,316.048 134.490,316.584 135.522 C 317.120 136.555,318.272 138.155,319.143 139.078 C 320.014 140.000,320.844 141.288,320.987 141.939 C 321.129 142.589,321.596 143.808,322.023 144.646 C 322.450 145.484,322.800 146.773,322.800 147.511 C 322.800 148.249,322.989 149.206,323.220 149.638 C 323.451 150.070,323.743 152.443,323.869 154.912 C 323.995 157.380,324.189 159.490,324.301 159.600 C 324.413 159.710,324.406 157.100,324.286 153.800 C 323.965 145.008,322.068 139.873,317.153 134.495 C 316.402 133.673,315.070 132.100,314.193 131.000 C 313.317 129.900,312.017 128.370,311.303 127.600 C 310.590 126.830,310.005 126.084,310.003 125.942 C 310.002 125.801,309.505 125.144,308.900 124.482 C 308.295 123.821,307.530 122.942,307.200 122.529 C 306.870 122.116,304.800 119.626,302.600 116.995 C 300.400 114.364,298.240 111.768,297.800 111.226 C 297.360 110.684,296.266 109.421,295.369 108.420 C 294.472 107.419,293.462 106.191,293.125 105.691 C 292.788 105.192,291.899 104.112,291.149 103.291 C 290.399 102.471,289.429 101.326,288.993 100.746 C 287.884 99.272,279.484 89.044,279.181 88.800 C 278.677 88.393,274.542 83.353,273.603 82.000 C 273.068 81.230,272.169 80.150,271.604 79.600 C 271.040 79.050,270.223 78.129,269.789 77.552 C 268.868 76.330,265.588 72.409,262.657 69.027 C 261.526 67.721,260.250 66.191,259.822 65.627 C 259.395 65.062,258.495 63.954,257.822 63.166 C 257.150 62.377,256.033 61.027,255.340 60.166 C 254.155 58.694,253.623 58.065,251.483 55.600 C 251.006 55.050,249.592 53.318,248.342 51.750 C 244.034 46.347,241.010 43.747,236.400 41.484 C 235.410 40.998,234.483 40.439,234.340 40.242 C 234.198 40.045,233.815 39.986,233.489 40.110 C 233.164 40.235,232.741 40.182,232.549 39.992 C 232.040 39.488,225.873 38.789,222.610 38.866 C 219.916 38.929,219.957 38.942,223.600 39.170 M232.044 47.747 C 231.712 48.147,231.694 48.411,231.984 48.590 C 232.601 48.971,234.071 48.412,233.889 47.866 C 233.654 47.160,232.588 47.092,232.044 47.747 M143.900 151.089 C 144.615 151.178,145.785 151.178,146.500 151.089 C 147.215 151.001,146.630 150.928,145.200 150.928 C 143.770 150.928,143.185 151.001,143.900 151.089 M153.500 151.082 C 153.995 151.178,154.805 151.178,155.300 151.082 C 155.795 150.987,155.390 150.909,154.400 150.909 C 153.410 150.909,153.005 150.987,153.500 151.082 M174.900 151.094 C 175.945 151.176,177.655 151.176,178.700 151.094 C 179.745 151.012,178.890 150.944,176.800 150.944 C 174.710 150.944,173.855 151.012,174.900 151.094 " stroke="none" fill="#613aab" fill-rule="evenodd"></path></g></svg>