<?xml version="1.0" encoding="UTF-8"?>
<svg version="1.1" xmlns="http://www.w3.org/2000/svg" width="225" height="225">
<path d="M0 0 C2.39614575 0.14165893 4.79182897 0.28818841 7.1875 0.4375 C7.86103516 0.47681641 8.53457031 0.51613281 9.22851562 0.55664062 C11.15414381 0.67875363 13.07726531 0.83860983 15 1 C15.89847656 1.01546875 16.79695312 1.0309375 17.72265625 1.046875 C21.55760668 2.65189714 22.59315683 6.17063126 24.25 9.8125 C24.600625 10.53759766 24.95125 11.26269531 25.3125 12.00976562 C26.88723183 15.3197308 28.19344779 18.41283415 29 22 C29.54414551 21.71688965 30.08829102 21.4337793 30.64892578 21.14208984 C33.13083685 19.86551258 35.62722249 18.62022633 38.125 17.375 C38.9809375 16.92898437 39.836875 16.48296875 40.71875 16.0234375 C47.13287359 12.86571512 47.13287359 12.86571512 51.25390625 13.50390625 C54.18376556 15.10011694 57.02092201 16.73327174 59.8125 18.5625 C61.24529297 19.49255859 61.24529297 19.49255859 62.70703125 20.44140625 C65 22 65 22 66 23 C66.10108314 24.99787845 66.12963062 26.99957138 66.125 29 C66.12757813 30.093125 66.13015625 31.18625 66.1328125 32.3125 C65.97917662 36.57815515 65.52676045 40.76671788 65 45 C65.66008057 44.94763184 66.32016113 44.89526367 67.00024414 44.84130859 C85.88026595 43.53375909 85.88026595 43.53375909 91.015625 47.0859375 C92.77297787 49.69140415 93.94821476 52.04604997 95 55 C95.39574219 55.64453125 95.79148438 56.2890625 96.19921875 56.953125 C97.85538333 61.18644325 96.03872626 65.104661 94.37109375 69.0859375 C93.7335549 70.51875678 93.08887753 71.94841871 92.4375 73.375 C92.10814453 74.11105469 91.77878906 74.84710938 91.43945312 75.60546875 C90.63252195 77.40644557 89.8171174 79.20362181 89 81 C89.56509277 81.22550537 90.13018555 81.45101074 90.71240234 81.68334961 C93.28273458 82.73268603 95.8275011 83.83394983 98.375 84.9375 C99.26445312 85.29134766 100.15390625 85.64519531 101.0703125 86.00976562 C107.43616128 88.83099406 107.43616128 88.83099406 109.02587891 92.12695312 C109.55645971 94.43852809 109.83627434 96.63604516 110 99 C110.15726563 100.00289063 110.31453125 101.00578125 110.4765625 102.0390625 C110.86616849 108.82640901 110.86616849 108.82640901 108.4921875 112.04296875 C106.4204804 113.88313212 104.29177884 115.44375829 102 117 C100.49728311 118.14226791 98.99712939 119.2879185 97.5 120.4375 C96.3357773 121.29499479 95.17004774 122.15047066 94 123 C96.77270478 128.42988019 100.06543833 132.38989761 104.390625 136.69140625 C107.08495858 140.55633621 106.11599135 143.9688369 105.609375 148.47265625 C103.79915306 156.034447 103.79915306 156.034447 101 159 C94.60305615 162.32744838 86.21223495 164 79 164 C79.27972656 164.83402344 79.55945313 165.66804687 79.84765625 166.52734375 C80.22792969 167.67332031 80.60820312 168.81929687 81 170 C81.43183594 171.19753906 81.86367187 172.39507812 82.30859375 173.62890625 C85.32561016 183.39529231 85.32561016 183.39529231 82.97021484 188.0234375 C81.48233212 190.05139671 79.91396793 191.7952016 78.125 193.5625 C77.26733032 194.41146851 77.26733032 194.41146851 76.39233398 195.27758789 C73.1937235 198.07498513 71.77610324 199.0202682 67.41015625 198.90625 C66.28480469 198.6071875 65.15945312 198.308125 64 198 C63.02675781 197.82339844 62.05351562 197.64679688 61.05078125 197.46484375 C59.21724342 197.11173732 57.38391126 196.7575613 55.55078125 196.40234375 C52.77186132 195.89612852 52.77186132 195.89612852 49 196 C48.76925781 197.16917969 48.53851563 198.33835938 48.30078125 199.54296875 C47.97233581 201.09135439 47.64285378 202.63952039 47.3125 204.1875 C47.16361328 204.95642578 47.01472656 205.72535156 46.86132812 206.51757812 C45.72753046 211.69747726 44.36161694 214.6602476 40 218 C37.02734375 219.36328125 37.02734375 219.36328125 33.9375 220.3125 C32.91527344 220.63863281 31.89304688 220.96476563 30.83984375 221.30078125 C28 222 28 222 24 222 C22.06640625 220.265625 22.06640625 220.265625 20 218 C18.33419705 216.55788307 16.64586789 215.14143086 14.9375 213.75 C14.08027344 213.04359375 13.22304687 212.3371875 12.33984375 211.609375 C10.0613537 209.71664803 10.0613537 209.71664803 7 210 C5.18483802 212.08876013 3.55541451 214.14241928 1.9375 216.375 C-2.875 222.875 -2.875 222.875 -5 225 C-8.046875 225.23046875 -8.046875 225.23046875 -11.75 225.1875 C-12.96171875 225.18105469 -14.1734375 225.17460937 -15.421875 225.16796875 C-16.60265625 225.11253906 -17.7834375 225.05710938 -19 225 C-20.57587891 224.98839844 -20.57587891 224.98839844 -22.18359375 224.9765625 C-25.38701422 223.86580644 -25.6946257 223.37494963 -27.30078125 220.54296875 C-27.99414288 219.10189017 -28.66406935 217.64934661 -29.3125 216.1875 C-29.83166992 215.09985352 -29.83166992 215.09985352 -30.36132812 213.99023438 C-31.91319521 210.68381971 -33.19238509 207.57204752 -34 204 C-34.54938232 204.28311035 -35.09876465 204.5662207 -35.66479492 204.85791016 C-38.16331655 206.13232741 -40.67482265 207.37874136 -43.1875 208.625 C-44.05181641 209.07101563 -44.91613281 209.51703125 -45.80664062 209.9765625 C-52.28019672 213.1513333 -52.28019672 213.1513333 -55.8984375 212.390625 C-56.59195313 211.93171875 -57.28546875 211.4728125 -58 211 C-59.7015625 210.071875 -59.7015625 210.071875 -61.4375 209.125 C-62.0253125 208.76792969 -62.613125 208.41085938 -63.21875 208.04296875 C-65.22989296 206.82437026 -65.22989296 206.82437026 -68.4375 205.4375 C-71 203 -71 203 -71.40625 200.6875 C-71.43966014 197.74740804 -71.27071442 194.92988388 -71 192 C-70.91637207 191.06816895 -70.83274414 190.13633789 -70.74658203 189.17626953 C-70.50156213 186.4504777 -70.25219842 183.7251356 -70 181 C-70.98226562 181.10211792 -70.98226562 181.10211792 -71.984375 181.20629883 C-90.12261802 182.85071758 -90.12261802 182.85071758 -94.85839844 179.8046875 C-99.02748711 175.31622765 -101.3931796 169.04797663 -102 163 C-101.3984375 160.89453125 -101.3984375 160.89453125 -100.375 158.8125 C-100.00632812 158.04679688 -99.63765625 157.28109375 -99.2578125 156.4921875 C-98.84273437 155.66976562 -98.42765625 154.84734375 -98 154 C-97.54367188 153.07445312 -97.08734375 152.14890625 -96.6171875 151.1953125 C-95.42469418 148.78988312 -94.21861273 146.39227663 -93 144 C-93.721875 143.88527344 -94.44375 143.77054688 -95.1875 143.65234375 C-98.11175894 142.97407813 -100.34991509 141.95793534 -103 140.5625 C-105.58154228 139.21122396 -107.952434 138.01531094 -110.73046875 137.12109375 C-113 136 -113 136 -113.92578125 133.96875 C-114.34159215 131.31428041 -114.71227792 128.67170502 -115 126 C-115.13019531 125.12988281 -115.26039062 124.25976562 -115.39453125 123.36328125 C-115.73338631 119.61290238 -115.83620389 117.09399732 -113.4921875 114.02734375 C-111.41811244 112.17694345 -109.28272906 110.58480007 -107 109 C-105.49850588 107.85612526 -103.99842096 106.71039749 -102.5 105.5625 C-101.3357773 104.70500521 -100.17004774 103.84952934 -99 103 C-100.45565019 99.81350206 -102.25810718 97.23712991 -104.4375 94.5 C-105.62605174 93.00083323 -106.8135832 91.50085689 -108 90 C-108.56976563 89.3090625 -109.13953125 88.618125 -109.7265625 87.90625 C-111 86 -111 86 -110.9375 83 C-110.63612731 81.66410759 -110.32156309 80.33117662 -110 79 C-109.8659375 78.01644531 -109.731875 77.03289062 -109.59375 76.01953125 C-108.85346238 72.40181616 -108.14205585 70.02796784 -106 67 C-101.94817166 65.23437459 -98.18509248 64.35564479 -93.84765625 63.6484375 C-90.57751958 63.09732817 -87.9937833 62.37093012 -85 61 C-85.2165625 59.83082031 -85.433125 58.66164062 -85.65625 57.45703125 C-85.93772917 55.90889582 -86.21896644 54.36071639 -86.5 52.8125 C-86.64308594 52.04357422 -86.78617188 51.27464844 -86.93359375 50.48242188 C-87.32239428 48.32550465 -87.6705261 46.16667802 -88 44 C-88.13664062 43.12601563 -88.27328125 42.25203125 -88.4140625 41.3515625 C-87.44636255 35.85575712 -82.08673194 31.31275545 -77.80126953 28.01123047 C-73.67729971 25.69603895 -69.63535041 26.92042898 -65.29296875 28 C-64.20628906 28.33 -63.11960938 28.66 -62 29 C-60.21096112 29.38734265 -58.41961753 29.76438612 -56.625 30.125 C-55.42875 30.41375 -54.2325 30.7025 -53 31 C-52.896875 29.9275 -52.79375 28.855 -52.6875 27.75 C-52.20661096 24.01643092 -51.50885658 20.36128513 -50.6875 16.6875 C-50.46449219 15.68074219 -50.24148437 14.67398437 -50.01171875 13.63671875 C-48.80299043 10.48655807 -47.92461088 9.63361117 -45 8 C-41.90625 6.796875 -41.90625 6.796875 -38.5 5.75 C-37.3759375 5.39421875 -36.251875 5.0384375 -35.09375 4.671875 C-32.15972184 4.03468707 -30.75336094 3.94724435 -28 5 C-28 5.66 -28 6.32 -28 7 C-27.319375 7.20625 -26.63875 7.4125 -25.9375 7.625 C-22.62452134 9.17575597 -20.3421985 11.12470724 -17.6484375 13.5625 C-15.85040066 15.19274687 -15.85040066 15.19274687 -13 17 C-11.20697179 14.73023018 -9.41553207 12.45923756 -7.625 10.1875 C-6.86316406 9.22360352 -6.86316406 9.22360352 -6.0859375 8.24023438 C-5.59609375 7.61826172 -5.10625 6.99628906 -4.6015625 6.35546875 C-3.92601318 5.49924927 -3.92601318 5.49924927 -3.23681641 4.62573242 C-2.09736659 3.12798345 -1.04389771 1.56584656 0 0 Z M-39 64 C-39.928125 64.70125 -40.85625 65.4025 -41.8125 66.125 C-42.8953125 67.053125 -42.8953125 67.053125 -44 68 C-44 68.66 -44 69.32 -44 70 C-44.56976563 70.226875 -45.13953125 70.45375 -45.7265625 70.6875 C-54.6213482 75.82263401 -59.30839388 87.65243482 -61.96484375 97.0703125 C-65.04582216 110.06024192 -64.10024322 123.69212139 -59 136 C-58.71125 136.80308594 -58.4225 137.60617188 -58.125 138.43359375 C-54.35352855 148.14850013 -47.0283331 155.60370997 -39 162 C-37.515 163.2684375 -37.515 163.2684375 -36 164.5625 C-23.50092014 173.29155577 -6.5139488 175.7724503 8.22265625 173.50390625 C11.21251429 172.80666663 14.08732873 171.96958195 17 171 C17.99773437 170.67128906 18.99546875 170.34257812 20.0234375 170.00390625 C36.28543409 163.96313888 46.81400589 151.11152532 54.484375 136.09375 C60.62679614 121.87646063 60.32719464 104.07072327 54.76611328 89.69067383 C51.86807565 83.01827542 47.80884653 77.45341855 43 72 C42.42378906 71.32582031 41.84757812 70.65164062 41.25390625 69.95703125 C30.79525945 58.59547969 15.62379356 52.65986601 0.421875 51.796875 C-13.62507334 51.61755226 -28.0270755 54.68684559 -39 64 Z " fill="#FEFDFE" transform="translate(115,0)"/>
<path d="M0 0 C0.33 0 0.66 0 1 0 C1.13277344 0.98742187 1.26554688 1.97484375 1.40234375 2.9921875 C1.57894531 4.27351563 1.75554688 5.55484375 1.9375 6.875 C2.11152344 8.15117188 2.28554688 9.42734375 2.46484375 10.7421875 C2.81433227 13.87559454 2.81433227 13.87559454 4 16 C3.67 16.66 3.34 17.32 3 18 C2.34 18 1.68 18 1 18 C0.10395632 11.95170514 -0.11269443 6.1105424 0 0 Z " fill="#E9E9E9" transform="translate(0,116)"/>
<path d="M0 0 C4.14648122 2.07324061 5.08477197 2.96794098 7 7 C6.67 7.66 6.34 8.32 6 9 C4.02 6.03 2.04 3.06 0 0 Z " fill="#F2F2F2" transform="translate(160,75)"/>
</svg>
