<svg id="svg" version="1.1" xmlns="http://www.w3.org/2000/svg" xmlns:xlink="http://www.w3.org/1999/xlink" width="400" height="495.3229398663697" viewBox="0, 0, 400,495.3229398663697"><g id="svgg"><path id="path0" d="M62.678 11.676 C 61.387 11.843,59.918 12.321,59.371 12.751 C 58.548 13.399,58.197 13.454,57.225 13.087 C 56.213 12.705,55.862 12.787,54.521 13.716 C 53.674 14.303,52.386 14.903,51.660 15.048 C 50.719 15.236,50.067 15.744,49.390 16.816 C 48.747 17.835,47.694 18.686,46.121 19.460 C 44.016 20.494,43.744 20.777,43.197 22.506 C 42.804 23.746,42.026 24.933,40.966 25.906 C 38.448 28.218,38.016 28.913,37.785 31.032 C 37.667 32.114,37.376 33.990,37.140 35.200 C 36.903 36.410,36.595 38.210,36.455 39.200 C 35.954 42.735,36.623 384.383,37.132 384.892 C 37.678 385.438,37.757 387.056,37.253 387.368 C 36.623 387.757,36.309 393.261,36.366 402.905 C 36.403 409.104,36.271 412.693,35.987 413.224 C 35.495 414.143,36.065 417.625,37.085 419.940 C 37.410 420.678,37.737 422.511,37.812 424.015 C 37.957 426.938,38.443 428.005,40.697 430.361 C 41.414 431.110,42.000 431.965,42.000 432.261 C 42.000 432.558,42.146 432.800,42.325 432.800 C 42.504 432.800,42.888 433.405,43.179 434.145 C 43.568 435.138,44.360 435.867,46.195 436.922 C 47.878 437.890,48.845 438.743,49.182 439.557 C 49.605 440.579,50.006 440.827,51.840 441.208 C 53.028 441.455,54.000 441.820,54.000 442.019 C 54.000 443.070,55.983 443.708,57.287 443.076 C 58.668 442.408,59.286 442.511,58.962 443.355 C 58.815 443.737,59.351 443.955,60.879 444.134 C 64.751 444.589,326.713 444.475,327.567 444.018 C 327.996 443.788,328.793 443.600,329.338 443.600 C 329.935 443.600,330.708 443.149,331.284 442.465 C 332.040 441.566,332.691 441.278,334.419 441.076 C 336.034 440.888,336.777 440.585,337.283 439.911 C 339.279 437.248,339.717 436.799,340.330 436.787 C 341.109 436.771,342.800 435.458,342.800 434.870 C 342.800 434.649,343.352 433.958,344.027 433.334 C 345.677 431.810,346.433 430.239,348.140 424.790 L 349.583 420.180 349.641 294.190 C 349.672 224.896,349.664 167.750,349.622 167.200 C 349.579 166.650,349.491 158.596,349.424 149.303 C 349.295 131.280,349.286 131.200,347.325 131.200 C 346.787 131.200,345.973 130.999,345.515 130.754 C 344.917 130.434,344.276 130.428,343.241 130.733 C 341.352 131.288,268.796 131.352,264.000 130.803 C 262.130 130.588,258.980 130.422,257.000 130.432 C 255.020 130.443,252.860 130.275,252.200 130.060 C 249.927 129.317,245.846 127.599,245.623 127.290 C 245.501 127.121,244.860 126.640,244.200 126.222 C 240.580 123.931,236.746 120.270,235.599 118.009 C 235.100 117.024,234.220 115.508,233.645 114.640 C 232.661 113.153,232.215 111.662,231.183 106.400 C 230.892 104.915,230.759 91.915,230.775 66.400 C 230.789 45.610,230.641 26.986,230.448 25.013 C 230.159 22.066,230.207 21.193,230.718 20.122 C 231.212 19.086,231.256 18.456,230.933 17.046 C 230.694 15.998,230.672 15.014,230.881 14.642 C 231.454 13.618,230.618 12.636,228.535 11.888 C 226.478 11.149,68.315 10.947,62.678 11.676 M66.728 13.300 C 66.629 13.996,66.297 14.229,65.262 14.328 C 63.275 14.519,62.670 14.190,63.197 13.206 C 63.868 11.953,66.908 12.034,66.728 13.300 M230.000 13.814 C 230.000 14.198,229.587 14.400,228.800 14.400 C 227.552 14.400,227.012 13.078,228.100 12.687 C 228.821 12.429,230.000 13.128,230.000 13.814 M56.800 14.000 C 56.800 14.220,56.541 14.400,56.224 14.400 C 55.907 14.400,55.536 14.220,55.400 14.000 C 55.264 13.780,55.523 13.600,55.976 13.600 C 56.429 13.600,56.800 13.780,56.800 14.000 M49.600 19.919 C 49.600 20.709,47.809 22.812,47.302 22.618 C 46.970 22.490,46.454 22.590,46.154 22.838 C 45.328 23.524,44.965 22.178,45.761 21.382 C 46.113 21.030,46.400 20.588,46.400 20.398 C 46.400 20.208,46.895 19.993,47.500 19.920 C 49.180 19.717,49.600 19.717,49.600 19.919 M57.000 24.005 C 57.000 25.533,56.881 25.800,56.200 25.800 C 55.368 25.800,54.870 23.837,55.371 22.532 C 55.895 21.166,57.000 22.165,57.000 24.005 M49.367 27.057 C 49.505 27.419,49.570 27.734,49.509 27.757 C 49.449 27.781,48.972 28.041,48.449 28.335 C 47.309 28.977,46.194 28.203,46.628 27.071 C 46.968 26.185,49.028 26.175,49.367 27.057 M229.400 27.600 C 229.400 28.113,229.175 28.608,228.900 28.700 C 228.287 28.904,227.826 27.829,228.157 26.967 C 228.509 26.050,229.400 26.504,229.400 27.600 M41.910 27.271 C 41.677 27.968,40.487 28.621,40.120 28.253 C 39.945 28.078,40.150 27.679,40.577 27.367 C 41.521 26.677,42.122 26.634,41.910 27.271 M39.776 32.340 C 39.622 32.703,39.461 33.350,39.417 33.777 C 39.373 34.205,39.126 34.625,38.869 34.710 C 38.230 34.923,38.256 32.522,38.900 31.825 C 39.542 31.130,40.139 31.481,39.776 32.340 M42.800 38.833 C 42.800 43.968,42.055 44.062,41.327 39.020 C 40.776 35.208,40.844 34.800,42.024 34.800 C 42.741 34.800,42.800 35.108,42.800 38.833 M38.000 40.000 C 38.000 40.880,37.860 41.600,37.689 41.600 C 37.519 41.600,37.448 40.880,37.531 40.000 C 37.615 39.120,37.755 38.400,37.842 38.400 C 37.929 38.400,38.000 39.120,38.000 40.000 M40.502 40.900 C 40.751 41.641,40.364 42.825,39.955 42.572 C 39.486 42.282,39.496 40.400,39.967 40.400 C 40.168 40.400,40.409 40.625,40.502 40.900 M42.800 185.200 C 42.800 269.537,42.665 312.436,42.400 312.600 C 42.134 312.765,42.000 270.196,42.000 185.200 C 42.000 100.204,42.134 57.635,42.400 57.800 C 42.665 57.964,42.800 100.863,42.800 185.200 M229.960 112.476 C 230.015 113.966,229.285 114.275,228.789 112.971 C 228.492 112.191,228.520 111.576,228.890 110.737 C 229.463 109.439,229.872 110.104,229.960 112.476 M238.368 126.562 C 239.183 127.543,236.662 128.553,235.794 127.594 C 235.189 126.925,235.194 126.842,235.871 126.448 C 236.887 125.858,237.819 125.900,238.368 126.562 M268.471 228.630 C 268.915 229.384,269.441 230.000,269.640 230.000 C 269.838 230.000,270.360 230.360,270.800 230.800 C 271.891 231.891,272.082 358.073,270.996 360.670 C 269.821 363.483,268.143 364.518,264.017 364.973 C 262.597 365.130,260.820 365.515,260.068 365.829 C 258.445 366.507,257.121 366.561,256.533 365.973 C 256.234 365.674,253.547 365.657,247.553 365.917 C 242.282 366.146,237.926 366.145,236.200 365.916 C 234.508 365.691,225.409 365.672,213.200 365.869 C 202.090 366.048,191.290 366.174,189.200 366.149 C 187.110 366.125,172.980 365.987,157.800 365.843 C 141.129 365.686,129.363 365.415,128.087 365.159 C 126.249 364.792,125.806 364.836,124.685 365.497 C 123.045 366.465,121.691 366.137,119.626 364.271 C 118.781 363.508,117.487 362.751,116.751 362.589 C 114.986 362.202,114.440 361.370,114.660 359.410 C 114.760 358.525,114.885 329.630,114.938 295.200 C 115.013 246.565,115.144 232.377,115.527 231.600 C 116.119 230.401,117.903 227.907,118.382 227.611 C 118.570 227.495,152.235 227.369,193.193 227.330 L 267.663 227.260 268.471 228.630 M116.400 228.176 C 116.400 228.820,115.338 230.000,114.759 230.000 C 114.260 230.000,113.859 228.944,114.110 228.291 C 114.389 227.564,116.400 227.462,116.400 228.176 M270.785 228.182 C 271.335 228.845,271.023 229.600,270.200 229.600 C 269.480 229.600,269.071 228.914,269.352 228.181 C 269.636 227.440,270.170 227.441,270.785 228.182 M138.564 244.950 C 138.443 245.264,137.745 245.634,137.012 245.771 C 135.559 246.044,134.581 246.921,134.991 247.585 C 135.133 247.816,135.030 248.612,134.762 249.355 C 134.364 250.454,134.382 251.034,134.858 252.480 C 135.252 253.677,135.332 254.638,135.102 255.428 C 134.914 256.072,134.735 258.379,134.703 260.554 C 134.616 266.490,132.138 265.929,158.706 265.983 L 181.000 266.027 181.463 264.542 C 181.759 263.590,181.796 262.715,181.564 262.106 C 181.310 261.436,181.385 260.803,181.818 259.966 C 182.156 259.312,182.320 258.594,182.182 258.371 C 182.045 258.148,182.251 257.079,182.640 255.996 C 183.244 254.317,183.271 253.880,182.821 253.040 C 182.442 252.332,182.353 250.984,182.503 248.261 L 182.713 244.467 160.748 244.423 C 142.057 244.386,138.750 244.464,138.564 244.950 M212.931 244.664 C 213.076 244.809,212.834 245.181,212.393 245.490 C 211.578 246.061,210.000 245.852,210.000 245.173 C 210.000 244.968,209.539 244.800,208.976 244.800 C 208.396 244.800,208.060 244.973,208.200 245.200 C 208.336 245.420,208.172 245.600,207.836 245.600 C 207.499 245.600,206.823 246.143,206.332 246.807 C 205.841 247.470,205.251 247.949,205.020 247.871 C 203.895 247.491,203.284 249.874,203.182 255.041 C 203.056 261.459,203.766 265.024,204.972 264.023 C 205.606 263.497,206.000 263.880,206.000 265.020 C 206.000 266.591,209.721 266.708,210.215 265.152 C 210.527 264.169,211.860 264.187,212.482 265.183 C 213.056 266.102,244.400 266.496,244.400 265.585 C 244.400 265.335,244.878 265.437,245.541 265.829 C 246.612 266.461,246.809 266.461,248.717 265.827 C 251.512 264.899,251.986 263.443,252.102 255.432 L 252.187 249.520 251.094 248.579 C 250.492 248.062,250.000 247.478,250.000 247.281 C 250.000 246.559,248.504 245.600,247.369 245.594 C 246.467 245.589,246.337 245.499,246.800 245.200 C 247.313 244.869,247.298 244.811,246.700 244.806 C 246.315 244.803,246.000 244.980,246.000 245.200 C 246.000 245.420,245.640 245.600,245.200 245.600 C 244.756 245.600,244.400 245.333,244.400 245.000 C 244.400 244.477,242.370 244.400,228.533 244.400 C 219.807 244.400,212.786 244.519,212.931 244.664 M142.167 245.843 C 143.338 246.292,142.827 247.125,141.215 247.398 C 139.495 247.688,138.800 247.460,138.800 246.606 C 138.800 245.821,140.881 245.349,142.167 245.843 M174.985 246.539 C 175.471 246.895,175.607 247.266,175.383 247.628 C 175.196 247.930,175.092 248.858,175.152 249.689 C 175.251 251.056,175.168 251.200,174.280 251.200 C 173.022 251.200,172.130 250.207,172.734 249.479 C 172.972 249.193,173.064 248.565,172.938 248.085 C 172.457 246.245,173.502 245.455,174.985 246.539 M181.733 246.571 C 181.854 246.885,181.690 247.360,181.368 247.626 C 180.967 247.959,180.861 248.517,181.028 249.410 C 181.167 250.148,181.093 250.819,180.856 250.965 C 180.282 251.320,179.576 249.886,179.993 249.212 C 180.178 248.911,180.165 248.233,179.962 247.700 C 179.760 247.168,179.696 246.568,179.821 246.366 C 180.174 245.795,181.490 245.936,181.733 246.571 M248.818 246.800 C 249.558 248.258,250.083 250.816,249.840 251.782 C 249.219 254.257,247.070 253.056,247.261 250.340 C 247.413 248.187,246.631 247.460,244.483 247.754 C 242.539 248.020,241.114 247.489,241.447 246.621 C 241.767 245.788,248.386 245.949,248.818 246.800 M210.148 247.700 C 210.846 250.304,209.322 251.919,206.585 251.475 C 205.875 251.360,205.110 251.450,204.884 251.676 C 204.604 251.956,204.327 251.811,204.009 251.217 C 203.493 250.252,204.035 249.200,205.049 249.200 C 205.352 249.200,205.940 248.860,206.355 248.445 C 208.159 246.641,209.779 246.323,210.148 247.700 M213.712 248.275 C 213.825 248.866,213.830 249.577,213.723 249.856 C 213.420 250.646,212.000 249.587,212.000 248.570 C 212.000 246.886,213.400 246.644,213.712 248.275 M142.302 248.700 C 142.414 249.040,141.991 249.200,140.984 249.200 C 139.692 249.200,139.568 249.121,140.016 248.581 C 140.602 247.875,142.055 247.951,142.302 248.700 M245.615 250.632 C 245.734 251.714,246.043 252.982,246.302 253.450 C 246.693 254.153,246.648 254.414,246.041 254.963 C 245.350 255.588,245.284 255.563,244.887 254.513 C 244.347 253.088,243.924 249.009,244.279 248.654 C 244.903 248.030,245.413 248.786,245.615 250.632 M141.861 250.890 C 143.449 252.478,141.279 253.234,137.111 252.545 C 135.635 252.301,134.843 251.302,135.404 250.394 C 135.819 249.722,141.099 250.128,141.861 250.890 M178.300 251.700 C 178.048 252.457,176.800 252.564,176.800 251.829 C 176.800 251.458,177.142 251.200,177.633 251.200 C 178.122 251.200,178.398 251.407,178.300 251.700 M212.106 251.700 C 212.432 252.644,211.506 254.000,210.536 254.000 C 209.490 254.000,209.206 252.554,210.080 251.680 C 210.707 251.053,211.887 251.065,212.106 251.700 M182.216 253.226 C 182.696 254.003,181.554 256.051,180.714 255.920 C 179.170 255.679,178.444 253.679,179.587 252.813 C 180.576 252.064,181.597 252.224,182.216 253.226 M243.915 255.436 C 243.998 257.743,243.869 258.824,243.442 259.404 C 242.542 260.622,241.817 259.594,241.808 257.088 L 241.800 255.000 228.200 255.000 L 214.600 255.000 214.200 255.916 C 213.555 257.394,211.758 256.989,211.930 255.405 C 212.177 253.135,211.721 253.200,227.400 253.200 C 239.943 253.200,241.971 253.117,242.411 252.587 C 243.376 251.423,243.799 252.223,243.915 255.436 M175.585 253.382 C 176.262 254.198,175.759 254.800,174.400 254.800 C 173.137 254.800,172.607 254.281,172.952 253.381 C 173.240 252.629,174.961 252.630,175.585 253.382 M169.924 253.900 C 169.665 255.244,143.200 255.137,143.200 253.792 C 143.200 253.281,145.036 253.200,156.629 253.200 C 169.204 253.200,170.050 253.245,169.924 253.900 M205.000 256.500 C 204.976 259.506,204.904 259.800,204.187 259.800 C 203.537 259.800,203.416 259.556,203.489 258.400 C 203.864 252.519,205.045 251.035,205.000 256.500 M249.600 255.232 C 249.600 255.503,250.045 255.566,250.800 255.400 C 252.256 255.080,252.547 256.164,251.107 256.540 C 250.399 256.725,250.316 256.876,250.707 257.267 C 251.402 257.962,251.320 259.823,250.561 260.582 C 250.210 260.933,250.031 261.503,250.163 261.847 C 250.321 262.258,250.132 262.545,249.616 262.680 C 249.183 262.793,248.462 263.507,248.014 264.266 C 246.708 266.479,245.881 265.207,246.839 262.460 C 247.135 261.610,247.540 261.200,248.082 261.200 C 248.650 261.200,248.815 261.015,248.643 260.567 C 248.509 260.219,248.395 259.724,248.388 259.467 C 248.381 259.210,248.192 259.315,247.968 259.700 C 247.385 260.701,246.800 260.564,246.800 259.425 C 246.800 258.619,247.024 258.429,248.097 258.325 C 249.602 258.180,250.111 257.027,248.819 256.689 C 247.713 256.400,247.697 254.800,248.800 254.800 C 249.240 254.800,249.600 254.994,249.600 255.232 M140.600 256.000 C 140.736 256.220,140.477 256.400,140.024 256.400 C 139.571 256.400,139.200 256.220,139.200 256.000 C 139.200 255.780,139.459 255.600,139.776 255.600 C 140.093 255.600,140.464 255.780,140.600 256.000 M211.200 259.047 C 211.200 259.297,210.927 259.729,210.592 260.006 C 210.175 260.353,210.058 260.902,210.219 261.761 C 210.570 263.633,208.801 265.287,207.604 264.204 C 206.646 263.336,206.588 262.670,207.400 261.857 C 207.730 261.527,208.000 260.851,208.000 260.354 C 208.000 258.920,209.513 257.539,210.446 258.122 C 210.861 258.381,211.200 258.797,211.200 259.047 M179.921 259.051 C 180.046 259.924,178.427 260.711,177.582 260.189 C 177.135 259.913,177.073 258.661,177.485 258.248 C 178.098 257.635,179.799 258.196,179.921 259.051 M245.654 260.566 C 245.716 263.277,244.676 265.037,244.179 263.060 C 243.871 261.831,244.276 259.237,244.893 258.490 C 245.502 257.753,245.595 258.006,245.654 260.566 M137.127 260.669 C 136.981 261.897,136.119 262.374,135.755 261.428 C 135.501 260.766,136.216 259.600,136.876 259.600 C 137.083 259.600,137.196 260.081,137.127 260.669 M178.685 285.816 C 177.689 286.179,176.853 286.248,176.247 286.018 C 175.132 285.594,138.467 285.510,136.200 285.926 L 134.600 286.220 134.664 295.340 C 134.746 306.894,134.808 307.127,137.602 306.380 C 138.153 306.233,145.803 306.083,154.602 306.048 C 163.401 306.013,171.860 305.882,173.400 305.757 C 174.940 305.631,176.936 305.699,177.836 305.908 C 180.887 306.614,183.121 303.932,181.659 301.319 C 181.394 300.845,181.507 300.224,182.041 299.228 C 182.979 297.478,183.190 286.810,182.300 286.098 C 181.369 285.353,180.205 285.262,178.685 285.816 M203.680 286.104 C 203.175 286.713,202.905 302.547,203.375 304.000 C 203.896 305.614,204.414 306.086,205.066 305.545 C 205.493 305.191,205.994 305.202,207.174 305.591 C 208.095 305.896,209.264 305.987,210.061 305.818 C 210.797 305.661,211.940 305.557,212.600 305.587 C 219.723 305.906,243.333 305.957,243.898 305.655 C 244.389 305.392,244.925 305.444,245.607 305.822 C 250.562 308.565,252.000 305.646,252.000 292.852 L 252.000 286.058 249.900 285.842 C 248.097 285.657,213.646 285.748,211.400 285.944 C 210.960 285.982,209.137 285.921,207.348 285.808 C 205.016 285.661,203.978 285.745,203.680 286.104 M139.111 292.431 C 138.966 299.938,138.241 300.001,138.088 292.520 C 137.972 286.845,138.123 285.563,138.825 286.265 C 139.063 286.503,139.178 288.979,139.111 292.431 M174.800 292.424 C 174.800 297.469,174.707 298.400,174.200 298.400 C 173.578 298.400,173.251 286.883,173.856 286.278 C 174.580 285.553,174.800 286.985,174.800 292.424 M181.510 292.300 C 181.405 298.297,181.361 298.600,180.600 298.600 C 179.842 298.600,179.794 298.296,179.689 292.818 C 179.564 286.381,179.626 286.000,180.798 286.000 C 181.598 286.000,181.617 286.173,181.510 292.300 M213.600 292.224 C 213.600 296.271,213.460 298.361,213.200 298.200 C 212.964 298.054,212.800 295.618,212.800 292.243 C 212.800 287.228,212.931 286.000,213.467 286.000 C 213.540 286.000,213.600 288.801,213.600 292.224 M204.800 295.000 C 204.800 300.355,204.652 303.600,204.408 303.600 C 203.961 303.600,203.536 302.190,203.624 301.000 C 203.657 300.560,203.763 297.095,203.860 293.300 C 204.116 283.281,204.800 284.517,204.800 295.000 M208.400 292.400 C 208.400 296.133,208.249 298.400,208.000 298.400 C 207.751 298.400,207.600 296.133,207.600 292.400 C 207.600 288.667,207.751 286.400,208.000 286.400 C 208.249 286.400,208.400 288.667,208.400 292.400 M249.098 295.681 C 249.024 297.506,248.962 296.120,248.962 292.600 C 248.961 289.080,249.022 287.586,249.097 289.281 C 249.172 290.976,249.172 293.856,249.098 295.681 M137.056 299.691 C 137.224 299.962,137.338 301.143,137.310 302.316 C 137.274 303.844,137.425 304.511,137.840 304.671 C 138.618 304.969,137.792 306.000,136.775 306.000 C 135.772 306.000,135.545 305.501,135.361 302.887 C 135.133 299.656,136.011 298.000,137.056 299.691 M142.794 301.500 C 142.798 302.392,142.612 302.800,142.200 302.800 C 141.578 302.800,141.306 300.027,141.873 299.461 C 142.308 299.026,142.787 300.087,142.794 301.500 M210.950 299.650 C 211.745 300.012,212.799 301.935,212.319 302.147 C 212.254 302.176,211.750 302.584,211.200 303.054 C 208.934 304.989,208.400 304.755,208.400 301.827 C 208.400 298.952,208.755 298.650,210.950 299.650 M245.866 300.573 C 245.525 301.461,244.400 301.353,244.400 300.433 C 244.400 299.591,245.197 299.114,245.753 299.623 C 245.947 299.801,245.998 300.228,245.866 300.573 M140.082 301.500 C 140.232 303.257,139.761 304.365,139.154 303.683 C 138.767 303.248,138.376 300.157,138.672 299.862 C 139.403 299.130,139.932 299.745,140.082 301.500 M243.470 301.111 C 243.929 301.403,244.187 302.701,244.062 304.100 C 243.984 304.978,242.302 305.046,241.600 304.200 C 241.176 303.689,239.153 303.600,227.951 303.600 C 219.450 303.600,214.800 303.459,214.800 303.200 C 214.800 302.941,219.464 302.800,227.991 302.800 L 241.182 302.800 241.837 301.800 C 242.538 300.729,242.737 300.645,243.470 301.111 M248.200 302.000 C 248.598 302.440,249.166 302.800,249.462 302.800 C 250.634 302.800,249.997 304.390,248.590 304.978 C 246.194 305.979,245.005 304.712,246.190 302.420 C 246.931 300.987,247.227 300.925,248.200 302.000 M180.000 302.957 C 180.000 304.460,179.148 305.101,178.380 304.176 C 178.117 303.859,177.673 303.600,177.393 303.600 C 177.102 303.600,176.909 303.173,176.942 302.600 C 177.047 300.790,180.000 301.135,180.000 302.957 M172.600 303.200 C 172.763 303.464,167.871 303.600,158.224 303.600 C 148.741 303.600,143.600 303.459,143.600 303.200 C 143.600 302.941,148.659 302.800,157.976 302.800 C 167.129 302.800,172.443 302.945,172.600 303.200 M142.600 304.790 C 142.600 305.667,141.305 306.266,140.711 305.664 C 140.296 305.243,140.347 305.038,140.984 304.568 C 141.871 303.913,142.600 304.013,142.600 304.790 M39.191 313.652 C 40.756 315.218,40.761 316.936,39.200 317.115 C 37.805 317.274,37.066 315.974,37.407 313.960 C 37.723 312.086,37.639 312.100,39.191 313.652 M175.569 326.164 C 175.448 326.286,166.660 326.397,156.042 326.412 L 136.736 326.438 135.568 327.633 L 134.400 328.828 134.400 335.939 C 134.400 346.314,135.463 347.741,142.332 346.586 C 143.359 346.413,152.337 346.316,162.282 346.370 C 180.523 346.470,181.858 346.396,180.524 345.362 C 179.829 344.823,179.832 344.776,180.600 344.214 C 181.040 343.891,181.611 343.447,181.870 343.226 C 183.342 341.969,183.104 327.644,181.600 326.944 C 180.467 326.418,175.906 325.828,175.569 326.164 M204.743 327.134 L 203.400 328.333 203.274 335.403 C 203.197 339.715,203.314 342.951,203.574 343.696 C 203.887 344.596,203.875 345.069,203.526 345.490 C 202.912 346.228,203.840 346.890,205.000 346.541 C 206.107 346.208,206.178 346.096,205.667 345.480 C 205.335 345.081,205.341 344.819,205.690 344.470 C 206.721 343.439,209.014 344.305,208.714 345.613 C 208.580 346.199,210.699 346.882,211.686 346.571 C 212.206 346.407,212.315 346.073,212.137 345.184 C 211.846 343.731,212.688 343.291,214.401 344.000 C 215.107 344.293,217.979 344.534,221.494 344.597 C 228.425 344.721,228.115 344.691,227.800 345.200 C 227.651 345.441,224.921 345.600,220.953 345.600 C 217.323 345.600,214.436 345.735,214.538 345.900 C 214.640 346.065,221.356 346.200,229.462 346.200 L 244.200 346.200 244.075 345.300 C 243.969 344.540,244.135 344.400,245.142 344.400 C 246.867 344.400,247.600 344.778,247.600 345.667 C 247.600 346.668,250.584 346.602,250.624 345.600 C 250.638 345.270,250.953 344.331,251.324 343.513 C 251.875 342.302,252.000 340.751,252.000 335.159 C 252.000 326.767,251.773 326.331,247.470 326.453 C 246.111 326.491,237.530 326.520,228.400 326.516 C 219.270 326.513,210.990 326.523,210.000 326.540 C 209.010 326.556,207.724 326.426,207.143 326.252 C 206.280 325.993,205.839 326.155,204.743 327.134 M139.713 327.200 C 140.024 327.200,140.014 327.346,139.680 327.680 C 139.347 328.013,139.200 330.101,139.200 334.493 C 139.200 339.752,139.098 340.864,138.600 341.055 C 138.270 341.182,138.000 341.728,138.000 342.269 C 138.000 343.107,137.464 344.576,136.942 345.171 C 136.783 345.352,135.857 344.265,135.180 343.102 C 134.838 342.513,135.027 342.303,136.387 341.759 L 138.000 341.113 138.000 335.130 C 138.000 331.533,137.824 328.819,137.559 328.323 C 137.068 327.405,137.747 326.642,138.733 327.004 C 139.026 327.112,139.467 327.200,139.713 327.200 M178.000 327.263 C 178.000 327.449,177.680 327.600,177.289 327.600 C 175.077 327.600,174.800 328.407,174.800 334.851 C 174.800 339.238,174.940 340.997,175.319 341.376 C 176.140 342.197,177.407 342.454,178.529 342.027 L 179.564 341.633 179.682 334.616 C 179.750 330.544,179.646 327.599,179.433 327.600 C 179.232 327.600,179.162 327.505,179.278 327.389 C 179.394 327.273,179.964 327.358,180.545 327.579 L 181.600 327.980 181.600 334.941 C 181.600 343.044,181.650 342.937,177.856 343.034 C 176.505 343.069,174.393 343.233,173.162 343.398 C 170.269 343.787,169.585 342.865,171.921 341.723 L 173.400 341.000 173.510 334.654 C 173.582 330.541,173.469 328.124,173.189 327.787 C 172.865 327.397,172.938 327.220,173.479 327.078 C 174.671 326.766,178.000 326.902,178.000 327.263 M214.510 327.815 C 213.891 328.267,213.784 329.158,213.672 334.767 C 213.503 343.309,212.867 342.998,212.718 334.300 C 212.594 327.070,212.650 326.806,214.236 327.109 C 215.148 327.283,215.168 327.335,214.510 327.815 M250.300 341.128 C 251.251 341.263,251.518 342.479,250.834 343.559 C 250.400 344.244,247.740 343.911,246.894 343.065 C 246.411 342.582,246.506 342.379,247.566 341.624 L 248.800 340.746 248.885 334.273 L 248.970 327.800 249.185 334.400 C 249.396 340.865,249.418 341.003,250.300 341.128 M205.495 341.820 C 206.065 342.237,206.087 342.413,205.636 342.957 C 204.206 344.680,204.000 343.864,204.000 336.467 C 204.000 327.596,204.560 326.462,204.710 335.029 C 204.805 340.392,204.921 341.400,205.495 341.820 M208.400 334.776 C 208.400 338.329,208.238 340.853,208.000 341.000 C 207.740 341.161,207.600 339.071,207.600 335.024 C 207.600 331.141,207.750 328.800,208.000 328.800 C 208.249 328.800,208.400 331.059,208.400 334.776 M211.121 341.858 C 212.237 342.157,212.197 343.716,211.068 343.931 C 209.324 344.264,207.556 343.042,208.222 341.964 C 208.481 341.546,209.780 341.498,211.121 341.858 M243.951 341.961 C 244.659 342.409,244.179 343.200,243.200 343.200 C 242.341 343.200,241.834 342.592,242.200 342.000 C 242.502 341.511,243.215 341.495,243.951 341.961 M156.800 342.623 C 156.800 343.164,155.956 343.233,150.300 343.151 C 143.559 343.053,143.033 342.994,143.417 342.372 C 143.855 341.664,156.800 341.906,156.800 342.623 M227.900 342.500 C 227.776 342.873,226.071 343.000,221.200 343.000 C 216.329 343.000,214.624 342.873,214.500 342.500 C 214.371 342.113,215.884 342.000,221.200 342.000 C 226.516 342.000,228.029 342.113,227.900 342.500 M142.400 345.643 C 142.400 346.488,140.316 346.721,139.200 346.000 C 138.709 345.683,138.755 345.611,139.451 345.606 C 139.919 345.603,140.517 345.341,140.780 345.024 C 141.397 344.281,142.400 344.664,142.400 345.643 M156.106 344.677 C 158.171 345.206,155.650 345.600,150.200 345.600 C 144.618 345.600,143.151 345.383,143.871 344.662 C 144.151 344.383,155.007 344.395,156.106 344.677 M177.400 345.200 C 177.264 345.420,176.634 345.600,176.000 345.600 C 175.366 345.600,174.736 345.420,174.600 345.200 C 174.450 344.958,175.004 344.800,176.000 344.800 C 176.996 344.800,177.550 344.958,177.400 345.200 M119.777 365.556 C 120.497 366.948,120.287 367.200,118.408 367.200 C 117.310 367.200,116.666 367.496,115.800 368.400 C 114.318 369.946,114.000 369.912,114.000 368.203 C 114.000 367.240,114.248 366.652,114.800 366.307 C 115.240 366.032,115.600 365.504,115.600 365.132 C 115.600 362.849,118.531 363.147,119.777 365.556 M270.800 364.400 C 270.800 364.909,270.533 365.200,270.067 365.200 C 269.051 365.200,268.724 364.774,269.252 364.137 C 269.916 363.338,270.800 363.488,270.800 364.400 M267.267 366.267 C 266.857 366.999,264.127 367.419,262.475 367.004 C 260.521 366.514,262.417 365.853,266.320 365.664 C 267.443 365.610,267.584 365.700,267.267 366.267 M233.600 366.771 C 233.600 366.975,233.915 367.224,234.300 367.324 C 234.685 367.425,234.280 367.554,233.400 367.610 L 231.800 367.714 233.400 368.000 C 234.883 368.266,234.819 368.291,232.524 368.343 C 231.162 368.374,229.928 368.594,229.781 368.830 C 229.448 369.369,228.000 367.895,228.000 367.017 C 228.000 366.520,228.544 366.400,230.800 366.400 C 232.340 366.400,233.600 366.567,233.600 366.771 M255.600 367.400 C 255.600 368.591,254.992 368.707,254.414 367.626 C 253.839 366.551,253.886 366.400,254.800 366.400 C 255.387 366.400,255.600 366.667,255.600 367.400 M127.024 367.787 C 127.751 368.338,127.706 368.375,126.300 368.387 C 125.228 368.396,124.800 368.229,124.800 367.800 C 124.800 367.033,126.018 367.027,127.024 367.787 M123.123 368.691 C 125.019 369.921,125.075 370.409,123.374 370.883 C 121.029 371.537,119.738 370.582,120.244 368.568 C 120.555 367.328,121.054 367.350,123.123 368.691 M259.200 369.806 C 259.200 370.445,257.490 371.026,256.823 370.614 C 256.144 370.195,256.336 368.873,257.100 368.699 C 258.043 368.484,259.200 369.094,259.200 369.806 M118.725 369.500 C 118.523 370.561,116.800 370.676,116.800 369.628 C 116.800 369.005,117.055 368.800,117.829 368.800 C 118.594 368.800,118.824 368.980,118.725 369.500 M39.600 393.793 C 39.600 394.732,39.707 396.035,39.838 396.689 C 40.077 397.884,38.709 400.000,37.697 400.000 C 36.539 400.000,36.477 395.618,37.603 393.289 C 38.648 391.125,39.600 391.365,39.600 393.793 M42.800 408.257 C 42.800 414.327,42.689 416.030,42.300 415.900 C 42.002 415.801,41.807 415.059,41.818 414.067 C 41.948 402.177,42.040 399.978,42.400 400.200 C 42.645 400.351,42.800 403.482,42.800 408.257 M37.594 414.300 C 37.584 416.025,36.917 416.805,36.584 415.480 C 36.436 414.887,36.417 414.131,36.544 413.801 C 36.927 412.804,37.600 413.125,37.594 414.300 M348.800 418.889 C 348.800 421.285,347.813 423.286,346.708 423.129 C 345.486 422.955,345.519 420.563,346.782 417.820 C 347.847 415.505,348.800 416.011,348.800 418.889 M40.800 425.511 C 40.800 426.527,41.062 427.247,41.600 427.707 C 42.521 428.496,42.642 429.421,41.864 429.720 C 40.971 430.063,40.518 429.503,39.844 427.227 C 39.012 424.420,39.032 424.000,40.000 424.000 C 40.659 424.000,40.800 424.267,40.800 425.511 M343.924 427.100 L 343.800 428.600 341.700 428.676 C 339.519 428.756,338.871 428.270,340.584 427.840 C 341.125 427.704,341.890 427.150,342.284 426.609 C 343.372 425.113,344.071 425.323,343.924 427.100 M333.096 429.219 C 332.565 430.068,331.600 430.278,331.600 429.544 C 331.600 428.982,332.881 428.003,333.287 428.254 C 333.450 428.355,333.364 428.789,333.096 429.219 M344.985 431.479 C 344.455 432.287,344.238 432.388,343.962 431.953 C 343.373 431.021,343.557 430.071,344.500 429.188 L 345.400 428.344 345.529 429.398 C 345.600 429.978,345.355 430.914,344.985 431.479 M57.000 432.405 C 57.000 434.316,56.893 434.615,56.177 434.718 C 54.769 434.919,54.135 433.167,54.974 431.398 C 56.037 429.157,57.000 429.636,57.000 432.405 M330.400 432.139 C 330.400 433.603,329.218 435.662,328.460 435.518 C 327.782 435.390,327.321 432.905,327.761 431.758 C 328.154 430.733,330.400 431.057,330.400 432.139 M339.700 434.157 C 340.680 434.901,340.660 434.942,338.156 437.426 C 335.536 440.026,334.800 440.029,334.800 437.441 C 334.800 435.522,335.540 434.400,336.805 434.400 C 337.216 434.400,337.664 434.220,337.800 434.000 C 338.135 433.457,338.857 433.517,339.700 434.157 M49.386 435.035 C 49.759 435.604,49.945 436.189,49.799 436.335 C 49.331 436.803,47.600 436.654,47.600 436.146 C 47.600 435.875,47.237 435.539,46.794 435.398 C 46.351 435.257,46.082 434.991,46.197 434.805 C 46.311 434.620,46.179 434.377,45.902 434.266 C 45.626 434.154,46.144 434.049,47.054 434.032 C 48.410 434.006,48.830 434.186,49.386 435.035 M330.010 441.413 C 330.431 441.919,330.388 442.120,329.765 442.576 C 328.565 443.453,326.847 442.087,327.867 441.067 C 328.337 440.596,329.487 440.781,330.010 441.413 M65.840 443.040 C 65.646 443.545,65.454 443.614,65.134 443.294 C 64.892 443.052,64.814 442.542,64.960 442.160 C 65.154 441.655,65.346 441.586,65.666 441.906 C 65.908 442.148,65.986 442.658,65.840 443.040 M64.329 442.667 C 64.137 443.657,63.333 443.754,63.088 442.816 C 62.927 442.198,63.067 442.000,63.667 442.000 C 64.191 442.000,64.415 442.225,64.329 442.667 M316.307 443.886 C 315.706 443.977,314.626 443.979,313.907 443.890 C 313.188 443.801,313.680 443.726,315.000 443.724 C 316.320 443.722,316.908 443.795,316.307 443.886 " stroke="none" fill="#2bb344" fill-rule="evenodd"></path><path id="path1" d="M59.804 9.993 C 59.640 10.259,88.498 10.394,145.815 10.395 C 193.257 10.397,232.246 10.505,232.458 10.636 C 232.687 10.777,232.590 11.261,232.219 11.827 C 231.218 13.355,231.504 105.539,232.520 108.879 C 234.975 116.945,239.678 122.797,246.711 126.539 C 252.504 129.621,251.830 129.584,303.100 129.593 L 348.400 129.600 349.230 128.770 C 350.055 127.945,350.061 127.945,350.269 128.743 C 350.516 129.686,351.600 130.235,351.600 129.416 C 351.600 128.769,297.075 74.000,296.430 74.000 C 296.194 74.000,296.000 73.803,296.000 73.561 C 296.000 73.038,233.735 10.814,232.518 10.121 C 231.420 9.495,60.190 9.369,59.804 9.993 M55.497 10.872 C 55.218 11.050,55.920 11.190,57.100 11.194 C 58.292 11.197,59.200 11.020,59.200 10.784 C 59.200 10.313,56.266 10.383,55.497 10.872 M52.000 12.357 C 52.000 12.554,52.270 12.818,52.600 12.945 C 52.965 13.085,53.200 12.945,53.200 12.587 C 53.200 12.264,52.930 12.000,52.600 12.000 C 52.270 12.000,52.000 12.161,52.000 12.357 M41.988 19.235 C 41.665 19.695,40.990 20.550,40.489 21.135 C 39.064 22.800,39.182 22.596,36.898 27.300 C 36.818 27.465,37.033 27.600,37.376 27.600 C 37.757 27.600,38.000 27.248,38.000 26.696 C 38.000 26.199,38.349 25.574,38.776 25.308 C 39.202 25.042,39.853 24.188,40.221 23.412 C 40.590 22.635,41.051 22.000,41.246 22.000 C 41.441 22.000,41.600 21.640,41.600 21.200 C 41.600 20.760,41.780 20.400,42.000 20.400 C 42.220 20.400,42.400 20.130,42.400 19.800 C 42.400 19.470,42.580 19.200,42.800 19.200 C 43.020 19.200,43.200 19.020,43.200 18.800 C 43.200 18.137,42.613 18.348,41.988 19.235 M34.488 36.814 C 34.537 38.521,35.061 38.660,35.124 36.984 C 35.152 36.223,35.013 35.600,34.815 35.600 C 34.616 35.600,34.469 36.146,34.488 36.814 M351.693 134.000 C 351.693 134.770,351.775 135.085,351.876 134.700 C 351.976 134.315,351.976 133.685,351.876 133.300 C 351.775 132.915,351.693 133.230,351.693 134.000 M351.502 274.200 C 351.446 331.070,351.535 377.600,351.700 377.600 C 351.865 377.600,352.000 331.070,352.000 274.200 C 352.000 217.330,351.911 170.800,351.802 170.800 C 351.692 170.800,351.557 217.330,351.502 274.200 M121.200 228.800 C 121.200 229.020,121.639 229.200,122.176 229.200 C 122.713 229.200,123.264 229.020,123.400 228.800 C 123.544 228.567,123.137 228.400,122.424 228.400 C 121.751 228.400,121.200 228.580,121.200 228.800 M262.800 228.800 C 262.800 229.020,263.252 229.200,263.805 229.200 C 265.456 229.200,268.800 231.765,268.800 233.031 C 268.800 233.344,268.980 233.600,269.200 233.600 C 269.465 233.600,269.600 254.600,269.600 295.800 C 269.600 337.000,269.465 358.000,269.200 358.000 C 268.980 358.000,268.800 358.268,268.800 358.597 C 268.800 359.482,265.205 362.800,264.244 362.800 C 263.944 362.800,263.474 363.070,263.200 363.400 C 262.775 363.912,262.886 364.000,263.951 364.000 C 264.638 364.000,265.200 363.820,265.200 363.600 C 265.200 363.380,265.522 363.200,265.916 363.200 C 266.728 363.200,269.600 360.260,269.600 359.429 C 269.600 359.130,269.870 358.782,270.200 358.655 C 271.101 358.310,271.114 233.958,270.213 233.211 C 269.890 232.943,269.665 232.599,269.713 232.446 C 269.852 232.005,267.782 230.088,266.214 229.208 C 264.694 228.354,262.800 228.128,262.800 228.800 M118.900 230.138 C 118.001 231.027,117.704 232.000,118.332 232.000 C 118.515 232.000,118.906 231.550,119.200 231.000 C 119.494 230.450,119.975 230.000,120.268 230.000 C 120.560 230.000,120.800 229.820,120.800 229.600 C 120.800 228.929,119.851 229.198,118.900 230.138 M116.700 232.971 C 115.878 233.578,115.580 358.800,116.400 358.800 C 116.620 358.800,116.800 359.048,116.800 359.352 C 116.800 360.302,120.019 363.341,120.508 362.852 C 120.814 362.546,120.630 362.181,119.869 361.582 C 119.281 361.120,118.800 360.485,118.800 360.171 C 118.800 359.857,118.665 359.599,118.500 359.597 C 117.237 359.584,117.200 357.762,117.200 295.554 C 117.200 246.408,117.303 233.629,117.700 233.483 C 118.036 233.360,118.069 233.161,117.800 232.877 C 117.520 232.581,117.190 232.609,116.700 232.971 M132.400 256.000 C 132.400 267.530,132.405 267.600,133.243 267.600 C 133.847 267.600,134.017 267.421,133.843 266.967 C 133.709 266.619,133.600 261.399,133.600 255.367 C 133.600 245.885,133.519 244.400,133.000 244.400 C 132.480 244.400,132.400 245.956,132.400 256.000 M184.400 255.367 C 184.400 261.399,184.291 266.619,184.157 266.967 C 183.983 267.421,184.153 267.600,184.757 267.600 C 185.595 267.600,185.600 267.530,185.600 256.000 C 185.600 245.956,185.520 244.400,185.000 244.400 C 184.481 244.400,184.400 245.885,184.400 255.367 M200.800 256.000 C 200.800 267.530,200.805 267.600,201.643 267.600 C 202.247 267.600,202.417 267.421,202.243 266.967 C 202.109 266.619,202.000 261.399,202.000 255.367 C 202.000 245.885,201.919 244.400,201.400 244.400 C 200.880 244.400,200.800 245.956,200.800 256.000 M253.000 256.011 C 253.000 266.115,253.078 267.606,253.600 267.505 C 254.599 267.312,254.705 244.400,253.706 244.401 C 253.048 244.401,253.000 245.183,253.000 256.011 M133.100 283.232 C 132.457 283.606,132.400 284.649,132.400 295.968 L 132.400 308.295 133.900 308.543 C 135.883 308.871,181.355 308.873,183.744 308.546 L 185.600 308.291 185.600 296.090 C 185.600 284.938,185.540 283.842,184.900 283.357 C 184.011 282.682,134.250 282.562,133.100 283.232 M201.423 283.689 C 200.893 284.445,200.800 286.351,200.800 296.437 L 200.800 308.295 202.300 308.543 C 204.283 308.871,250.155 308.873,252.544 308.546 L 254.400 308.291 254.400 296.090 C 254.400 284.938,254.340 283.842,253.700 283.357 C 253.135 282.928,248.074 282.823,227.523 282.813 L 202.045 282.800 201.423 283.689 M183.706 283.921 C 184.363 284.084,184.405 284.896,184.306 295.748 L 184.200 307.400 160.200 307.493 C 147.000 307.544,135.615 307.491,134.900 307.375 L 133.600 307.164 133.600 295.586 L 133.600 284.008 153.100 283.904 C 163.825 283.847,174.940 283.788,177.800 283.773 C 180.660 283.757,183.318 283.824,183.706 283.921 M252.700 283.961 C 253.087 283.991,253.200 286.569,253.200 295.410 L 253.200 306.820 252.270 307.173 C 251.570 307.440,206.605 307.506,202.700 307.247 C 201.902 307.193,201.594 284.965,202.381 284.180 C 202.668 283.893,249.195 283.691,252.700 283.961 M34.400 354.753 C 34.400 381.788,34.538 396.038,34.800 396.200 C 35.066 396.364,35.200 382.612,35.200 355.247 C 35.200 328.212,35.062 313.962,34.800 313.800 C 34.534 313.636,34.400 327.388,34.400 354.753 M132.661 323.873 C 132.517 324.016,132.400 329.508,132.400 336.077 L 132.400 348.020 133.426 348.410 C 135.074 349.036,183.147 348.916,184.400 348.282 L 185.400 347.777 185.506 336.016 C 185.589 326.872,185.500 324.184,185.106 323.937 C 184.503 323.558,133.038 323.495,132.661 323.873 M201.494 323.877 C 200.837 324.048,200.795 324.873,200.894 335.919 L 201.000 347.777 202.000 348.282 C 203.654 349.119,252.309 349.019,253.511 348.177 C 254.698 347.346,254.940 324.293,253.767 323.843 C 253.042 323.564,202.566 323.597,201.494 323.877 M183.500 325.176 L 184.400 325.200 184.400 336.400 L 184.400 347.600 159.000 347.600 L 133.600 347.600 133.600 336.404 L 133.600 325.207 154.700 325.104 C 172.797 325.015,177.867 325.028,183.500 325.176 M252.612 325.349 C 253.130 325.548,253.198 327.091,253.106 336.490 L 253.000 347.400 227.600 347.400 L 202.200 347.400 202.200 336.400 L 202.200 325.400 203.600 325.200 C 205.537 324.923,251.870 325.065,252.612 325.349 M121.467 363.067 C 120.923 363.611,121.229 364.000,122.200 364.000 C 123.317 364.000,123.541 363.416,122.567 363.043 C 121.784 362.742,121.791 362.742,121.467 363.067 M173.700 364.500 C 173.830 364.890,177.929 365.000,192.400 365.000 C 206.871 365.000,210.970 364.890,211.100 364.500 C 211.232 364.105,207.316 364.000,192.400 364.000 C 177.484 364.000,173.568 364.105,173.700 364.500 M236.400 364.357 C 236.400 365.046,237.715 365.200,243.600 365.200 C 246.864 365.200,249.819 365.091,250.167 364.957 C 251.961 364.269,250.115 364.000,243.600 364.000 C 239.640 364.000,236.400 364.161,236.400 364.357 M34.406 418.500 C 34.409 419.435,34.587 420.470,34.800 420.800 C 35.075 421.226,35.190 420.733,35.194 419.100 C 35.197 417.829,35.021 416.800,34.800 416.800 C 34.580 416.800,34.403 417.565,34.406 418.500 M351.593 419.481 C 351.487 420.625,351.547 421.415,351.726 421.235 C 351.905 421.056,351.991 420.119,351.918 419.154 L 351.785 417.400 351.593 419.481 M35.200 424.576 C 35.200 424.893,35.361 425.252,35.558 425.374 C 35.970 425.629,36.466 424.600,36.106 424.239 C 35.677 423.810,35.200 423.987,35.200 424.576 M346.905 432.566 C 346.443 433.097,346.170 433.637,346.299 433.766 C 346.428 433.895,346.233 434.000,345.867 434.000 C 345.500 434.000,345.200 434.286,345.200 434.636 C 345.200 434.985,344.390 436.059,343.400 437.021 C 342.410 437.983,341.600 438.967,341.600 439.209 C 341.600 439.450,341.439 439.548,341.242 439.426 C 341.045 439.304,340.781 439.474,340.654 439.802 C 340.528 440.131,340.137 440.400,339.784 440.400 C 338.983 440.400,337.799 441.540,338.207 441.919 C 338.373 442.074,338.590 441.975,338.688 441.700 C 338.786 441.425,339.129 441.200,339.449 441.200 C 340.319 441.200,345.697 435.620,346.898 433.471 C 348.087 431.343,348.088 431.205,346.905 432.566 M39.342 433.486 C 40.070 434.891,42.260 437.200,42.865 437.200 C 43.116 437.200,42.935 436.864,42.461 436.453 C 41.988 436.042,41.600 435.502,41.600 435.253 C 41.600 435.004,41.432 434.800,41.227 434.800 C 41.022 434.800,40.754 434.485,40.631 434.099 C 40.509 433.713,40.039 433.167,39.587 432.885 C 38.790 432.387,38.782 432.405,39.342 433.486 M43.500 437.834 C 43.171 438.162,44.470 439.604,44.871 439.356 C 45.052 439.244,45.200 439.403,45.200 439.709 C 45.200 440.179,45.785 440.599,47.695 441.502 C 47.858 441.579,47.884 441.362,47.753 441.021 C 47.622 440.679,47.219 440.395,46.857 440.389 C 46.496 440.383,45.750 439.758,45.200 439.000 C 44.184 437.600,43.917 437.417,43.500 437.834 M61.600 445.992 C 61.600 446.217,62.170 446.400,62.867 446.400 C 64.323 446.400,64.270 446.225,62.700 445.849 C 62.047 445.692,61.600 445.750,61.600 445.992 M73.200 446.018 C 70.230 446.138,124.804 446.273,194.476 446.318 C 264.148 446.363,321.236 446.265,321.338 446.100 C 321.548 445.761,81.550 445.681,73.200 446.018 M322.556 445.929 C 322.811 446.342,326.324 446.446,326.570 446.049 C 326.665 445.895,325.753 445.728,324.543 445.677 C 323.333 445.627,322.439 445.740,322.556 445.929 " stroke="none" fill="#6bcc7b" fill-rule="evenodd"></path><path id="path2" d="M63.197 13.206 C 62.670 14.190,63.275 14.519,65.262 14.328 C 66.297 14.229,66.629 13.996,66.728 13.300 C 66.908 12.034,63.868 11.953,63.197 13.206 M228.100 12.687 C 227.012 13.078,227.552 14.400,228.800 14.400 C 229.587 14.400,230.000 14.198,230.000 13.814 C 230.000 13.128,228.821 12.429,228.100 12.687 M55.400 14.000 C 55.536 14.220,55.907 14.400,56.224 14.400 C 56.541 14.400,56.800 14.220,56.800 14.000 C 56.800 13.780,56.429 13.600,55.976 13.600 C 55.523 13.600,55.264 13.780,55.400 14.000 M47.500 19.920 C 46.895 19.993,46.400 20.208,46.400 20.398 C 46.400 20.588,46.113 21.030,45.761 21.382 C 44.965 22.178,45.328 23.524,46.154 22.838 C 46.454 22.590,46.970 22.490,47.302 22.618 C 47.698 22.770,48.194 22.380,48.752 21.477 C 49.936 19.563,49.981 19.620,47.500 19.920 M55.371 22.532 C 54.870 23.837,55.368 25.800,56.200 25.800 C 57.313 25.800,57.406 22.289,56.299 22.076 C 55.913 22.002,55.495 22.207,55.371 22.532 M46.628 27.071 C 46.194 28.203,47.309 28.977,48.449 28.335 C 48.972 28.041,49.449 27.781,49.509 27.757 C 49.570 27.734,49.505 27.419,49.367 27.057 C 49.028 26.175,46.968 26.185,46.628 27.071 M228.157 26.967 C 227.826 27.829,228.287 28.904,228.900 28.700 C 229.175 28.608,229.400 28.113,229.400 27.600 C 229.400 26.504,228.509 26.050,228.157 26.967 M40.577 27.367 C 39.661 28.037,40.137 28.762,41.095 28.157 C 41.844 27.685,42.245 26.800,41.710 26.800 C 41.514 26.800,41.004 27.055,40.577 27.367 M38.900 31.825 C 38.256 32.522,38.230 34.923,38.869 34.710 C 39.126 34.625,39.373 34.205,39.417 33.777 C 39.461 33.350,39.622 32.703,39.776 32.340 C 40.139 31.481,39.542 31.130,38.900 31.825 M41.032 35.147 C 40.658 35.754,41.811 42.537,42.318 42.706 C 42.673 42.824,42.800 41.803,42.800 38.833 C 42.800 34.899,42.095 33.429,41.032 35.147 M37.531 40.000 C 37.448 40.880,37.519 41.600,37.689 41.600 C 37.860 41.600,38.000 40.880,38.000 40.000 C 38.000 39.120,37.929 38.400,37.842 38.400 C 37.755 38.400,37.615 39.120,37.531 40.000 M42.000 185.200 C 42.000 270.196,42.134 312.765,42.400 312.600 C 42.665 312.436,42.800 269.537,42.800 185.200 C 42.800 100.863,42.665 57.964,42.400 57.800 C 42.134 57.635,42.000 100.204,42.000 185.200 M228.890 110.737 C 228.520 111.576,228.492 112.191,228.789 112.971 C 229.608 115.126,230.367 112.963,229.660 110.490 C 229.406 109.600,229.389 109.605,228.890 110.737 M235.871 126.448 C 235.194 126.842,235.189 126.925,235.794 127.594 C 236.662 128.553,239.183 127.543,238.368 126.562 C 237.819 125.900,236.887 125.858,235.871 126.448 M352.197 274.400 C 352.197 331.050,352.243 354.225,352.300 325.900 C 352.357 297.575,352.357 251.225,352.300 222.900 C 352.243 194.575,352.197 217.750,352.197 274.400 M114.110 228.291 C 113.859 228.944,114.260 230.000,114.759 230.000 C 115.338 230.000,116.400 228.820,116.400 228.176 C 116.400 227.462,114.389 227.564,114.110 228.291 M269.352 228.181 C 269.071 228.914,269.480 229.600,270.200 229.600 C 271.023 229.600,271.335 228.845,270.785 228.182 C 270.170 227.441,269.636 227.440,269.352 228.181 M139.500 245.876 C 138.732 246.077,138.559 247.004,139.215 247.409 C 139.893 247.828,142.800 247.179,142.800 246.608 C 142.800 245.738,141.301 245.405,139.500 245.876 M172.942 246.606 C 172.814 246.939,172.813 247.605,172.938 248.085 C 173.064 248.565,172.972 249.193,172.734 249.479 C 172.130 250.207,173.022 251.200,174.280 251.200 C 175.168 251.200,175.251 251.056,175.152 249.689 C 175.092 248.858,175.196 247.930,175.383 247.628 C 175.607 247.266,175.471 246.895,174.985 246.539 C 174.015 245.830,173.230 245.856,172.942 246.606 M179.821 246.366 C 179.696 246.568,179.760 247.168,179.962 247.700 C 180.165 248.233,180.178 248.911,179.993 249.212 C 179.576 249.886,180.282 251.320,180.856 250.965 C 181.093 250.819,181.167 250.148,181.028 249.410 C 180.861 248.517,180.967 247.959,181.368 247.626 C 181.690 247.360,181.854 246.885,181.733 246.571 C 181.490 245.936,180.174 245.795,179.821 246.366 M241.447 246.621 C 241.114 247.489,242.539 248.020,244.483 247.754 C 246.631 247.460,247.413 248.187,247.261 250.340 C 247.070 253.056,249.219 254.257,249.840 251.782 C 250.083 250.816,249.558 248.258,248.818 246.800 C 248.386 245.949,241.767 245.788,241.447 246.621 M207.855 247.257 C 207.445 247.495,206.770 248.030,206.355 248.445 C 205.940 248.860,205.352 249.200,205.049 249.200 C 204.035 249.200,203.493 250.252,204.009 251.217 C 204.327 251.811,204.604 251.956,204.884 251.676 C 205.110 251.450,205.875 251.360,206.585 251.475 C 208.327 251.758,210.402 250.677,210.395 249.490 C 210.379 247.015,209.541 246.278,207.855 247.257 M212.267 247.467 C 211.729 248.004,212.021 249.421,212.764 249.885 C 213.695 250.466,214.024 249.907,213.712 248.275 C 213.517 247.256,212.850 246.883,212.267 247.467 M135.404 250.394 C 134.843 251.302,135.635 252.301,137.111 252.545 C 141.279 253.234,143.449 252.478,141.861 250.890 C 141.099 250.128,135.819 249.722,135.404 250.394 M179.587 252.813 C 178.629 253.539,178.619 253.593,179.271 254.680 C 180.222 256.265,181.364 256.334,181.982 254.844 C 182.809 252.847,181.268 251.540,179.587 252.813 M242.411 252.587 C 241.971 253.117,239.943 253.200,227.400 253.200 C 211.721 253.200,212.177 253.135,211.930 255.405 C 211.758 256.989,213.555 257.394,214.200 255.916 L 214.600 255.000 228.200 255.000 L 241.800 255.000 241.808 257.088 C 241.817 259.594,242.542 260.622,243.442 259.404 C 244.783 257.586,243.778 250.939,242.411 252.587 M172.952 253.381 C 172.607 254.281,173.137 254.800,174.400 254.800 C 175.759 254.800,176.262 254.198,175.585 253.382 C 174.961 252.630,173.240 252.629,172.952 253.381 M143.200 253.792 C 143.200 255.137,169.665 255.244,169.924 253.900 C 170.050 253.245,169.204 253.200,156.629 253.200 C 145.036 253.200,143.200 253.281,143.200 253.792 M203.830 255.100 C 203.291 259.177,203.338 259.800,204.187 259.800 C 204.904 259.800,204.976 259.506,205.000 256.500 C 205.030 252.779,204.258 251.856,203.830 255.100 M248.000 255.637 C 248.000 256.145,248.323 256.559,248.819 256.689 C 250.111 257.027,249.602 258.180,248.097 258.325 C 247.024 258.429,246.800 258.619,246.800 259.425 C 246.800 260.564,247.385 260.701,247.968 259.700 C 248.192 259.315,248.381 259.210,248.388 259.467 C 248.395 259.724,248.509 260.219,248.643 260.567 C 248.815 261.015,248.650 261.200,248.082 261.200 C 247.540 261.200,247.135 261.610,246.839 262.460 C 245.881 265.207,246.708 266.479,248.014 264.266 C 248.462 263.507,249.183 262.793,249.616 262.680 C 250.132 262.545,250.321 262.258,250.163 261.847 C 250.031 261.503,250.210 260.933,250.561 260.582 C 251.320 259.823,251.402 257.962,250.707 257.267 C 250.316 256.876,250.399 256.725,251.107 256.540 C 252.547 256.164,252.256 255.080,250.800 255.400 C 250.045 255.566,249.600 255.503,249.600 255.232 C 249.600 254.994,249.240 254.800,248.800 254.800 C 248.255 254.800,248.000 255.067,248.000 255.637 M139.200 256.000 C 139.200 256.220,139.571 256.400,140.024 256.400 C 140.477 256.400,140.736 256.220,140.600 256.000 C 140.464 255.780,140.093 255.600,139.776 255.600 C 139.459 255.600,139.200 255.780,139.200 256.000 M208.846 258.551 C 208.381 259.046,208.000 259.858,208.000 260.354 C 208.000 260.851,207.730 261.527,207.400 261.857 C 206.588 262.670,206.646 263.336,207.604 264.204 C 208.801 265.287,210.570 263.633,210.219 261.761 C 210.058 260.902,210.175 260.353,210.592 260.006 C 211.408 259.330,211.358 258.691,210.446 258.122 C 209.819 257.730,209.549 257.803,208.846 258.551 M177.485 258.248 C 177.073 258.661,177.135 259.913,177.582 260.189 C 178.427 260.711,180.046 259.924,179.921 259.051 C 179.799 258.196,178.098 257.635,177.485 258.248 M136.004 260.195 C 135.421 260.898,135.781 262.138,136.500 261.902 C 137.087 261.710,137.431 259.600,136.876 259.600 C 136.668 259.600,136.276 259.868,136.004 260.195 M138.201 286.452 C 137.812 287.468,138.172 297.995,138.600 298.101 C 139.142 298.235,139.359 286.799,138.825 286.265 C 138.560 286.000,138.351 286.063,138.201 286.452 M173.856 286.278 C 173.251 286.883,173.578 298.400,174.200 298.400 C 174.707 298.400,174.800 297.469,174.800 292.424 C 174.800 286.985,174.580 285.553,173.856 286.278 M179.776 286.518 C 179.111 288.252,179.817 298.600,180.600 298.600 C 181.361 298.600,181.405 298.297,181.510 292.300 C 181.617 286.173,181.598 286.000,180.798 286.000 C 180.345 286.000,179.885 286.233,179.776 286.518 M213.067 286.267 C 212.630 286.703,212.756 297.925,213.200 298.200 C 213.460 298.361,213.600 296.271,213.600 292.224 C 213.600 288.801,213.540 286.000,213.467 286.000 C 213.393 286.000,213.213 286.120,213.067 286.267 M203.860 293.300 C 203.763 297.095,203.657 300.560,203.624 301.000 C 203.536 302.190,203.961 303.600,204.408 303.600 C 204.652 303.600,204.800 300.355,204.800 295.000 C 204.800 284.517,204.116 283.281,203.860 293.300 M207.600 292.400 C 207.600 296.133,207.751 298.400,208.000 298.400 C 208.249 298.400,208.400 296.133,208.400 292.400 C 208.400 288.667,208.249 286.400,208.000 286.400 C 207.751 286.400,207.600 288.667,207.600 292.400 M248.962 292.600 C 248.962 296.120,249.024 297.506,249.098 295.681 C 249.172 293.856,249.172 290.976,249.097 289.281 C 249.022 287.586,248.961 289.080,248.962 292.600 M34.576 302.600 C 34.576 308.760,34.632 311.224,34.699 308.076 C 34.767 304.927,34.767 299.887,34.699 296.876 C 34.631 293.864,34.576 296.440,34.576 302.600 M135.427 299.913 C 134.744 302.068,135.614 306.000,136.775 306.000 C 137.792 306.000,138.618 304.969,137.840 304.671 C 137.425 304.511,137.274 303.844,137.310 302.316 C 137.377 299.479,136.087 297.834,135.427 299.913 M141.873 299.461 C 141.306 300.027,141.578 302.800,142.200 302.800 C 142.612 302.800,142.798 302.392,142.794 301.500 C 142.787 300.087,142.308 299.026,141.873 299.461 M208.400 301.827 C 208.400 304.755,208.934 304.989,211.200 303.054 C 211.750 302.584,212.254 302.176,212.319 302.147 C 212.799 301.935,211.745 300.012,210.950 299.650 C 208.755 298.650,208.400 298.952,208.400 301.827 M241.837 301.800 L 241.182 302.800 227.991 302.800 C 219.464 302.800,214.800 302.941,214.800 303.200 C 214.800 303.459,219.450 303.600,227.951 303.600 C 239.153 303.600,241.176 303.689,241.600 304.200 C 242.302 305.046,243.984 304.978,244.062 304.100 C 244.187 302.701,243.929 301.403,243.470 301.111 C 242.737 300.645,242.538 300.729,241.837 301.800 M246.190 302.420 C 245.005 304.712,246.194 305.979,248.590 304.978 C 249.997 304.390,250.634 302.800,249.462 302.800 C 249.166 302.800,248.598 302.440,248.200 302.000 C 247.227 300.925,246.931 300.987,246.190 302.420 M176.942 302.600 C 176.909 303.173,177.102 303.600,177.393 303.600 C 177.673 303.600,178.117 303.859,178.380 304.176 C 179.148 305.101,180.000 304.460,180.000 302.957 C 180.000 301.135,177.047 300.790,176.942 302.600 M143.600 303.200 C 143.600 303.459,148.741 303.600,158.224 303.600 C 167.871 303.600,172.763 303.464,172.600 303.200 C 172.443 302.945,167.129 302.800,157.976 302.800 C 148.659 302.800,143.600 302.941,143.600 303.200 M140.984 304.568 C 140.347 305.038,140.296 305.243,140.711 305.664 C 141.305 306.266,142.600 305.667,142.600 304.790 C 142.600 304.013,141.871 303.913,140.984 304.568 M37.407 313.960 C 37.066 315.974,37.805 317.274,39.200 317.115 C 40.761 316.936,40.756 315.218,39.191 313.652 C 37.639 312.100,37.723 312.086,37.407 313.960 M137.659 327.153 C 137.243 327.418,137.220 327.690,137.559 328.323 C 137.824 328.819,138.000 331.533,138.000 335.130 L 138.000 341.113 136.387 341.759 C 135.027 342.303,134.838 342.513,135.180 343.102 C 135.857 344.265,136.783 345.352,136.942 345.171 C 137.464 344.576,138.000 343.107,138.000 342.269 C 138.000 341.728,138.270 341.182,138.600 341.055 C 139.098 340.864,139.200 339.752,139.200 334.493 C 139.200 330.101,139.347 328.013,139.680 327.680 C 140.014 327.346,140.024 327.200,139.713 327.200 C 139.467 327.200,139.026 327.112,138.733 327.004 C 138.440 326.897,137.956 326.964,137.659 327.153 M173.479 327.078 C 172.938 327.220,172.865 327.397,173.189 327.787 C 173.469 328.124,173.582 330.541,173.510 334.654 L 173.400 341.000 171.921 341.723 C 169.585 342.865,170.269 343.787,173.162 343.398 C 174.393 343.233,176.505 343.069,177.856 343.034 C 181.650 342.937,181.600 343.044,181.600 334.941 L 181.600 327.980 180.545 327.579 C 179.964 327.358,179.394 327.273,179.278 327.389 C 179.162 327.505,179.232 327.600,179.433 327.600 C 179.646 327.599,179.750 330.544,179.682 334.616 L 179.564 341.633 178.529 342.027 C 177.407 342.454,176.140 342.197,175.319 341.376 C 174.940 340.997,174.800 339.238,174.800 334.851 C 174.800 328.407,175.077 327.600,177.289 327.600 C 177.680 327.600,178.000 327.449,178.000 327.263 C 178.000 326.902,174.671 326.766,173.479 327.078 M212.926 327.160 C 212.485 327.485,212.743 341.200,213.191 341.200 C 213.386 341.200,213.602 338.305,213.672 334.767 C 213.784 329.158,213.891 328.267,214.510 327.815 C 215.168 327.335,215.148 327.283,214.236 327.109 C 213.695 327.005,213.105 327.029,212.926 327.160 M248.885 334.273 L 248.800 340.746 247.566 341.624 C 246.506 342.379,246.411 342.582,246.894 343.065 C 247.740 343.911,250.400 344.244,250.834 343.559 C 251.518 342.479,251.251 341.263,250.300 341.128 C 249.418 341.003,249.396 340.865,249.185 334.400 L 248.970 327.800 248.885 334.273 M204.300 329.033 C 203.703 329.631,203.944 343.600,204.551 343.600 C 205.609 343.600,206.258 342.378,205.495 341.820 C 204.921 341.400,204.805 340.392,204.710 335.029 C 204.650 331.566,204.465 328.867,204.300 329.033 M207.600 335.024 C 207.600 339.071,207.740 341.161,208.000 341.000 C 208.238 340.853,208.400 338.329,208.400 334.776 C 208.400 331.059,208.249 328.800,208.000 328.800 C 207.750 328.800,207.600 331.141,207.600 335.024 M208.222 341.964 C 207.556 343.042,209.324 344.264,211.068 343.931 C 212.197 343.716,212.237 342.157,211.121 341.858 C 209.780 341.498,208.481 341.546,208.222 341.964 M242.200 342.000 C 241.834 342.592,242.341 343.200,243.200 343.200 C 244.179 343.200,244.659 342.409,243.951 341.961 C 243.215 341.495,242.502 341.511,242.200 342.000 M143.417 342.372 C 143.033 342.994,143.559 343.053,150.300 343.151 C 155.956 343.233,156.800 343.164,156.800 342.623 C 156.800 341.906,143.855 341.664,143.417 342.372 M214.500 342.500 C 214.624 342.873,216.329 343.000,221.200 343.000 C 226.071 343.000,227.776 342.873,227.900 342.500 C 228.029 342.113,226.516 342.000,221.200 342.000 C 215.884 342.000,214.371 342.113,214.500 342.500 M140.780 345.024 C 140.517 345.341,139.919 345.603,139.451 345.606 C 138.755 345.611,138.709 345.683,139.200 346.000 C 140.316 346.721,142.400 346.488,142.400 345.643 C 142.400 344.664,141.397 344.281,140.780 345.024 M116.226 363.832 C 115.882 364.176,115.600 364.761,115.600 365.132 C 115.600 365.504,115.240 366.032,114.800 366.307 C 114.248 366.652,114.000 367.240,114.000 368.203 C 114.000 369.912,114.318 369.946,115.800 368.400 C 116.666 367.496,117.310 367.200,118.408 367.200 C 120.287 367.200,120.497 366.948,119.777 365.556 C 118.922 363.902,117.059 362.998,116.226 363.832 M269.252 364.137 C 268.724 364.774,269.051 365.200,270.067 365.200 C 270.533 365.200,270.800 364.909,270.800 364.400 C 270.800 363.488,269.916 363.338,269.252 364.137 M263.600 365.893 C 260.355 366.274,261.842 367.404,265.180 367.093 C 266.235 366.995,267.037 366.678,267.267 366.267 C 267.663 365.559,267.008 365.492,263.600 365.893 M228.000 367.017 C 228.000 367.895,229.448 369.369,229.781 368.830 C 229.928 368.594,231.162 368.374,232.524 368.343 C 234.819 368.291,234.883 368.266,233.400 368.000 L 231.800 367.714 233.400 367.610 C 234.280 367.554,234.685 367.425,234.300 367.324 C 233.915 367.224,233.600 366.975,233.600 366.771 C 233.600 366.567,232.340 366.400,230.800 366.400 C 228.544 366.400,228.000 366.520,228.000 367.017 M254.000 366.626 C 254.000 367.147,254.858 368.400,255.214 368.400 C 255.426 368.400,255.600 367.950,255.600 367.400 C 255.600 366.667,255.387 366.400,254.800 366.400 C 254.360 366.400,254.000 366.502,254.000 366.626 M120.244 368.568 C 119.738 370.582,121.029 371.537,123.374 370.883 C 125.075 370.409,125.019 369.921,123.123 368.691 C 121.054 367.350,120.555 367.328,120.244 368.568 M257.100 368.699 C 256.336 368.873,256.144 370.195,256.823 370.614 C 257.490 371.026,259.200 370.445,259.200 369.806 C 259.200 369.094,258.043 368.484,257.100 368.699 M37.603 393.289 C 36.477 395.618,36.539 400.000,37.697 400.000 C 38.709 400.000,40.077 397.884,39.838 396.689 C 39.707 396.035,39.600 394.732,39.600 393.793 C 39.600 391.365,38.648 391.125,37.603 393.289 M41.918 406.176 C 41.873 409.599,41.828 413.150,41.818 414.067 C 41.807 415.059,42.002 415.801,42.300 415.900 C 42.935 416.112,43.034 400.592,42.400 400.200 C 42.141 400.040,41.971 402.149,41.918 406.176 M36.544 413.801 C 36.417 414.131,36.436 414.887,36.584 415.480 C 36.917 416.805,37.584 416.025,37.594 414.300 C 37.600 413.125,36.927 412.804,36.544 413.801 M346.782 417.820 C 345.519 420.563,345.486 422.955,346.708 423.129 C 348.395 423.368,349.565 418.399,348.247 416.596 C 347.731 415.891,347.631 415.974,346.782 417.820 M39.200 424.527 C 39.200 425.526,40.488 429.400,40.907 429.663 C 42.256 430.507,42.864 428.789,41.600 427.707 C 41.062 427.247,40.800 426.527,40.800 425.511 C 40.800 424.267,40.659 424.000,40.000 424.000 C 39.560 424.000,39.200 424.237,39.200 424.527 M342.284 426.609 C 341.890 427.150,341.125 427.704,340.584 427.840 C 338.871 428.270,339.519 428.756,341.700 428.676 L 343.800 428.600 343.924 427.100 C 344.071 425.323,343.372 425.113,342.284 426.609 M332.296 428.580 C 331.486 429.172,331.374 430.000,332.104 430.000 C 332.706 430.000,333.711 428.516,333.287 428.254 C 333.124 428.153,332.678 428.300,332.296 428.580 M344.500 429.188 C 343.557 430.071,343.373 431.021,343.962 431.953 C 344.472 432.757,345.696 430.760,345.529 429.398 L 345.400 428.344 344.500 429.188 M54.974 431.398 C 54.135 433.167,54.769 434.919,56.177 434.718 C 56.893 434.615,57.000 434.316,57.000 432.405 C 57.000 429.636,56.037 429.157,54.974 431.398 M327.761 431.758 C 327.321 432.905,327.782 435.390,328.460 435.518 C 329.218 435.662,330.400 433.603,330.400 432.139 C 330.400 431.057,328.154 430.733,327.761 431.758 M337.800 434.000 C 337.664 434.220,337.216 434.400,336.805 434.400 C 335.061 434.400,333.785 438.836,335.356 439.439 C 335.860 439.632,340.400 435.587,340.400 434.944 C 340.400 434.079,338.237 433.293,337.800 434.000 M45.902 434.266 C 46.179 434.377,46.311 434.620,46.197 434.805 C 46.082 434.991,46.351 435.257,46.794 435.398 C 47.237 435.539,47.600 435.875,47.600 436.146 C 47.600 436.654,49.331 436.803,49.799 436.335 C 50.557 435.576,48.679 434.001,47.054 434.032 C 46.144 434.049,45.626 434.154,45.902 434.266 M327.867 441.067 C 326.847 442.087,328.565 443.453,329.765 442.576 C 330.388 442.120,330.431 441.919,330.010 441.413 C 329.487 440.781,328.337 440.596,327.867 441.067 M64.960 442.160 C 64.814 442.542,64.892 443.052,65.134 443.294 C 65.454 443.614,65.646 443.545,65.840 443.040 C 65.986 442.658,65.908 442.148,65.666 441.906 C 65.346 441.586,65.154 441.655,64.960 442.160 M63.088 442.816 C 63.333 443.754,64.137 443.657,64.329 442.667 C 64.415 442.225,64.191 442.000,63.667 442.000 C 63.067 442.000,62.927 442.198,63.088 442.816 M313.907 443.890 C 314.626 443.979,315.706 443.977,316.307 443.886 C 316.908 443.795,316.320 443.722,315.000 443.724 C 313.680 443.726,313.188 443.801,313.907 443.890 " stroke="none" fill="#20bc44" fill-rule="evenodd"></path><path id="path3" d="M227.091 9.889 C 227.801 9.977,229.061 9.979,229.891 9.892 C 230.721 9.805,230.140 9.733,228.600 9.731 C 227.060 9.729,226.381 9.800,227.091 9.889 M230.412 10.325 L 229.024 10.464 230.012 11.209 L 231.000 11.954 231.216 59.677 C 231.417 104.002,231.484 107.569,232.148 109.775 C 234.692 118.216,241.565 125.613,249.400 128.342 C 253.933 129.921,256.033 129.984,304.300 129.992 L 351.200 130.000 351.200 130.967 C 351.200 131.498,350.984 132.005,350.720 132.093 C 350.420 132.193,350.495 132.351,350.920 132.514 C 351.480 132.729,351.600 132.528,351.600 131.375 C 351.600 130.543,351.372 129.888,351.039 129.760 C 350.731 129.641,350.384 129.184,350.269 128.743 C 350.061 127.945,350.055 127.945,349.230 128.770 L 348.400 129.600 303.100 129.593 C 251.830 129.584,252.504 129.621,246.711 126.539 C 239.678 122.797,234.975 116.945,232.520 108.879 C 231.515 105.576,231.217 13.357,232.206 11.846 C 232.989 10.652,232.373 10.129,230.412 10.325 M59.200 10.772 C 59.200 10.977,58.795 11.230,58.300 11.336 C 57.672 11.469,57.754 11.508,58.569 11.463 C 59.635 11.406,60.641 10.400,59.633 10.400 C 59.395 10.400,59.200 10.567,59.200 10.772 M54.302 11.466 C 54.579 11.577,54.703 11.833,54.579 12.034 C 54.203 12.642,55.065 12.444,55.600 11.800 C 56.024 11.290,55.926 11.205,54.949 11.232 C 54.317 11.249,54.026 11.354,54.302 11.466 M53.200 12.547 C 53.200 13.097,53.051 13.148,52.424 12.813 C 51.899 12.532,51.567 12.529,51.397 12.805 C 51.258 13.030,50.990 13.117,50.800 13.000 C 50.610 12.883,50.334 12.983,50.187 13.222 C 50.039 13.461,49.596 13.778,49.202 13.928 C 48.578 14.165,48.561 14.269,49.070 14.741 C 49.566 15.200,49.685 15.162,49.861 14.487 C 49.999 13.960,50.311 13.756,50.789 13.881 C 51.186 13.985,51.626 13.882,51.768 13.652 C 51.910 13.423,52.288 13.336,52.609 13.459 C 53.207 13.688,53.906 12.572,53.449 12.116 C 53.312 11.979,53.200 12.173,53.200 12.547 M47.055 15.349 C 44.398 16.956,43.162 18.849,45.000 18.498 C 45.550 18.393,46.000 18.156,46.000 17.972 C 46.000 17.787,46.463 17.173,47.030 16.607 C 48.183 15.453,48.199 14.658,47.055 15.349 M43.232 18.500 C 43.214 18.885,43.020 19.200,42.800 19.200 C 42.580 19.200,42.400 19.419,42.400 19.686 C 42.400 20.000,42.628 19.944,43.046 19.525 C 43.402 19.169,43.596 18.636,43.478 18.339 C 43.331 17.970,43.253 18.021,43.232 18.500 M41.600 21.200 C 41.600 21.640,41.441 22.000,41.246 22.000 C 41.051 22.000,40.590 22.635,40.221 23.412 C 39.853 24.188,39.202 25.042,38.776 25.308 C 38.349 25.574,38.000 26.110,38.000 26.497 C 38.000 27.010,38.382 26.779,39.400 25.653 C 40.170 24.800,40.800 23.965,40.800 23.796 C 40.800 23.627,41.091 23.275,41.447 23.015 C 42.147 22.503,42.563 20.400,41.965 20.400 C 41.764 20.400,41.600 20.760,41.600 21.200 M36.460 29.066 C 36.162 29.389,36.030 29.764,36.166 29.900 C 36.501 30.234,37.327 29.370,37.145 28.874 C 37.065 28.656,36.757 28.742,36.460 29.066 M35.999 30.600 C 35.947 30.820,35.927 31.135,35.953 31.300 C 35.979 31.465,35.844 31.600,35.652 31.600 C 35.461 31.600,35.280 32.680,35.250 34.000 C 35.216 35.529,35.358 36.400,35.641 36.400 C 35.911 36.400,35.992 36.024,35.848 35.448 C 35.687 34.807,35.888 34.142,36.464 33.409 C 36.998 32.730,37.164 32.223,36.906 32.061 C 36.679 31.917,36.403 31.440,36.293 31.000 C 36.183 30.560,36.051 30.380,35.999 30.600 M34.455 163.076 C 34.485 231.894,34.631 294.050,34.779 301.200 C 34.927 308.350,35.081 252.155,35.121 176.322 C 35.169 85.478,35.058 38.360,34.797 38.198 C 34.535 38.036,34.419 80.405,34.455 163.076 M351.577 152.033 C 351.564 161.365,351.490 169.630,351.413 170.400 C 351.059 173.909,351.039 183.663,351.192 277.600 L 351.353 377.400 351.602 256.400 C 351.739 189.850,351.794 135.325,351.725 135.233 C 351.656 135.142,351.590 142.702,351.577 152.033 M119.700 228.282 C 119.205 228.378,118.800 228.668,118.799 228.928 C 118.799 229.188,118.079 230.210,117.200 231.200 L 115.601 233.000 115.601 295.876 C 115.600 335.449,115.742 358.840,115.983 358.989 C 116.193 359.119,116.282 359.445,116.179 359.713 C 116.077 359.981,116.625 360.703,117.397 361.317 C 118.169 361.931,118.800 362.259,118.800 362.046 C 118.800 361.833,118.350 361.304,117.800 360.871 C 117.250 360.439,116.800 359.796,116.800 359.442 C 116.800 359.089,116.620 358.800,116.400 358.800 C 115.579 358.800,115.878 233.339,116.700 232.979 C 117.085 232.811,117.535 232.702,117.700 232.736 C 117.865 232.771,118.000 232.382,118.000 231.872 C 118.000 230.872,119.629 229.200,120.603 229.200 C 120.931 229.200,121.200 229.031,121.200 228.825 C 121.200 228.619,121.785 228.378,122.500 228.289 C 123.630 228.149,123.591 228.127,122.200 228.118 C 121.320 228.113,120.195 228.187,119.700 228.282 M263.742 228.291 C 264.371 228.384,265.475 228.793,266.196 229.198 C 267.456 229.905,267.500 229.906,267.319 229.210 C 267.122 228.458,265.513 227.954,263.650 228.060 C 262.615 228.119,262.617 228.122,263.742 228.291 M268.000 230.305 C 268.000 230.473,268.447 230.946,268.992 231.355 C 269.538 231.765,269.900 232.238,269.797 232.405 C 269.693 232.572,269.877 232.932,270.204 233.204 C 271.113 233.957,271.108 358.307,270.200 358.655 C 269.870 358.782,269.600 359.130,269.600 359.429 C 269.600 360.163,266.771 363.200,266.088 363.200 C 265.788 363.200,265.273 363.470,264.943 363.800 C 263.171 365.572,266.153 364.123,268.364 362.137 C 271.455 359.363,271.200 365.327,271.200 295.719 C 271.200 228.990,271.250 230.800,269.390 230.800 C 269.065 230.800,268.800 230.620,268.800 230.400 C 268.800 230.180,268.620 230.000,268.400 230.000 C 268.180 230.000,268.000 230.137,268.000 230.305 M133.600 255.301 C 133.600 261.369,133.709 266.619,133.843 266.967 C 134.214 267.934,183.786 267.934,184.157 266.967 C 184.510 266.047,184.456 244.400,184.100 244.400 C 183.935 244.400,183.855 249.198,183.921 255.063 C 184.017 263.494,183.933 265.796,183.521 266.057 C 182.925 266.435,136.280 266.518,134.881 266.143 L 133.962 265.897 134.074 255.374 C 134.135 249.587,134.054 244.720,133.893 244.559 C 133.732 244.398,133.600 249.232,133.600 255.301 M202.054 255.267 C 202.025 261.354,202.109 266.619,202.243 266.967 C 202.461 267.535,205.069 267.600,227.608 267.600 L 252.730 267.600 252.964 266.100 C 253.093 265.275,253.154 260.100,253.099 254.600 L 253.000 244.600 251.532 244.478 C 250.299 244.375,250.086 244.471,250.202 245.078 C 250.277 245.475,250.353 245.930,250.369 246.090 C 250.386 246.250,250.940 246.272,251.600 246.140 C 252.914 245.877,253.076 246.201,252.208 247.349 C 251.718 247.995,251.718 248.175,252.207 248.664 C 252.809 249.266,252.796 260.078,252.188 264.051 L 251.905 265.901 249.852 266.137 C 247.094 266.453,206.813 266.482,204.460 266.170 L 202.600 265.922 202.498 257.104 C 202.428 251.015,202.536 248.118,202.847 247.743 C 203.158 247.369,203.170 247.045,202.887 246.700 C 202.661 246.425,202.394 245.750,202.293 245.200 C 202.192 244.650,202.084 249.180,202.054 255.267 M153.100 283.904 L 133.600 284.008 133.600 295.586 L 133.600 307.164 134.900 307.375 C 135.615 307.491,147.000 307.544,160.200 307.493 L 184.200 307.400 184.306 295.748 C 184.405 284.896,184.363 284.084,183.706 283.921 C 183.318 283.824,180.660 283.757,177.800 283.773 C 174.940 283.788,163.825 283.847,153.100 283.904 M202.381 284.180 C 201.594 284.965,201.902 307.193,202.700 307.247 C 206.605 307.506,251.570 307.440,252.270 307.173 L 253.200 306.820 253.200 295.410 C 253.200 286.569,253.087 283.991,252.700 283.961 C 249.195 283.691,202.668 283.893,202.381 284.180 M183.025 285.074 C 182.926 285.335,183.011 285.605,183.214 285.674 C 183.652 285.823,184.051 305.670,183.630 306.351 C 183.187 307.069,134.798 307.038,134.342 306.320 C 133.742 305.374,133.923 285.762,134.537 285.252 C 134.991 284.875,154.732 284.600,181.303 284.600 C 182.605 284.600,183.149 284.750,183.025 285.074 M252.530 285.446 C 252.870 286.053,252.673 299.587,252.255 304.329 C 252.050 306.660,251.599 306.993,248.686 306.962 C 247.319 306.948,236.537 306.908,224.727 306.874 C 208.016 306.826,203.186 306.701,202.945 306.311 C 202.396 305.422,202.244 287.040,202.778 286.042 C 203.546 284.606,203.728 284.596,228.451 284.685 C 250.234 284.763,252.182 284.825,252.530 285.446 M35.353 355.200 C 35.342 376.430,35.438 392.360,35.566 390.600 C 35.695 388.840,35.704 371.470,35.587 352.000 L 35.374 316.600 35.353 355.200 M154.700 325.104 L 133.600 325.207 133.600 336.404 L 133.600 347.600 159.000 347.600 L 184.400 347.600 184.360 337.500 C 184.330 329.939,184.220 327.802,183.922 329.000 C 183.682 329.969,183.622 333.778,183.771 338.654 C 183.982 345.559,183.932 346.741,183.423 346.936 C 183.097 347.061,172.184 347.115,159.172 347.055 C 133.058 346.936,135.167 347.145,134.340 344.600 C 133.775 342.862,133.970 327.393,134.568 326.576 C 135.457 325.361,182.944 325.361,183.832 326.576 C 184.374 327.318,184.400 327.304,184.400 326.276 C 184.400 325.434,184.204 325.195,183.500 325.176 C 177.867 325.028,172.797 325.015,154.700 325.104 M203.600 325.200 L 202.200 325.400 202.200 336.400 L 202.200 347.400 227.600 347.400 L 253.000 347.400 253.106 336.490 C 253.198 327.091,253.130 325.548,252.612 325.349 C 251.870 325.065,205.537 324.923,203.600 325.200 M246.738 325.702 L 251.676 325.800 252.232 327.400 C 252.893 329.302,253.000 340.048,252.385 342.716 C 252.105 343.930,252.122 344.681,252.445 345.284 C 253.427 347.118,253.205 347.133,227.275 347.001 C 213.924 346.933,202.910 346.859,202.800 346.838 C 202.690 346.817,202.540 342.881,202.466 338.092 C 202.318 328.427,202.677 326.375,204.633 325.722 C 205.476 325.440,232.855 325.428,246.738 325.702 M119.303 362.800 C 119.393 363.130,119.722 363.400,120.033 363.400 C 120.345 363.400,120.792 363.645,121.026 363.943 C 121.261 364.242,121.801 364.398,122.226 364.290 C 122.874 364.125,122.846 364.085,122.057 364.046 C 121.423 364.015,121.185 363.816,121.330 363.439 C 121.637 362.639,121.174 362.324,120.506 362.878 C 120.065 363.244,119.850 363.221,119.539 362.774 C 119.197 362.283,119.163 362.287,119.303 362.800 M171.200 364.355 C 171.200 364.550,171.695 364.794,172.300 364.898 C 172.905 365.002,173.746 365.234,174.169 365.413 C 174.853 365.702,174.842 365.642,174.069 364.869 C 173.217 364.017,171.200 363.655,171.200 364.355 M210.700 364.833 C 210.315 365.255,210.169 365.600,210.376 365.600 C 210.583 365.600,210.864 365.420,211.000 365.200 C 211.136 364.980,211.676 364.800,212.200 364.800 C 212.724 364.800,213.264 364.620,213.400 364.400 C 213.858 363.659,211.414 364.052,210.700 364.833 M234.000 364.345 C 234.000 365.757,250.490 366.084,251.873 364.700 C 252.538 364.034,252.537 364.000,251.857 364.000 C 251.464 364.000,250.873 364.270,250.543 364.600 C 250.060 365.083,248.705 365.200,243.600 365.200 C 238.495 365.200,237.140 365.083,236.657 364.600 C 236.018 363.960,234.000 363.767,234.000 364.345 M183.474 365.499 C 187.694 365.564,194.714 365.564,199.074 365.500 C 203.433 365.435,199.980 365.382,191.400 365.382 C 182.820 365.382,179.253 365.435,183.474 365.499 M351.444 395.600 C 351.646 408.479,351.603 413.600,351.291 413.600 C 350.993 413.600,350.970 413.998,351.219 414.866 C 351.419 415.562,351.470 416.579,351.333 417.126 C 351.159 417.817,351.223 418.033,351.542 417.836 C 352.163 417.452,352.202 377.600,351.581 377.600 C 351.291 377.600,351.249 383.141,351.444 395.600 M34.435 406.367 C 34.471 412.105,34.641 416.800,34.813 416.800 C 35.313 416.800,35.297 396.507,34.796 396.197 C 34.497 396.012,34.388 399.060,34.435 406.367 M35.200 419.800 C 35.200 420.570,35.344 421.200,35.520 421.200 C 35.696 421.200,35.766 420.570,35.676 419.800 C 35.586 419.030,35.442 418.400,35.356 418.400 C 35.270 418.400,35.200 419.030,35.200 419.800 M351.200 419.510 C 351.200 419.973,351.023 420.462,350.806 420.596 C 350.376 420.862,350.408 422.800,350.842 422.800 C 351.189 422.800,351.732 419.198,351.430 418.897 C 351.304 418.770,351.200 419.046,351.200 419.510 M35.312 423.168 C 35.281 423.590,35.509 424.033,35.821 424.153 C 36.155 424.281,36.292 424.663,36.156 425.085 C 35.966 425.673,35.999 425.695,36.342 425.209 C 36.641 424.786,36.610 424.445,36.232 424.009 C 35.942 423.674,35.786 423.175,35.886 422.900 C 35.985 422.625,35.910 422.400,35.718 422.400 C 35.527 422.400,35.344 422.745,35.312 423.168 M350.080 423.680 C 349.531 424.229,349.417 426.160,349.954 425.829 C 350.226 425.660,350.841 423.200,350.611 423.200 C 350.583 423.200,350.344 423.416,350.080 423.680 M347.901 429.795 C 348.030 430.468,347.883 430.870,347.446 431.038 C 347.091 431.174,346.800 431.531,346.800 431.831 C 346.800 432.131,346.267 432.770,345.616 433.252 C 344.964 433.733,344.532 434.290,344.654 434.488 C 344.906 434.895,341.892 438.000,341.245 438.000 C 341.016 438.000,340.635 438.360,340.400 438.800 C 340.165 439.240,339.727 439.600,339.429 439.600 C 338.863 439.600,338.226 440.759,338.591 441.124 C 338.706 441.239,338.800 441.123,338.800 440.867 C 338.800 440.610,339.166 440.400,339.613 440.400 C 340.059 440.400,340.528 440.131,340.654 439.802 C 340.781 439.474,341.045 439.304,341.242 439.426 C 341.439 439.548,341.600 439.448,341.600 439.205 C 341.600 438.566,343.522 436.741,344.318 436.624 C 344.691 436.569,345.015 436.271,345.037 435.962 C 345.060 435.653,345.106 435.085,345.139 434.700 C 345.173 434.315,345.481 434.000,345.824 434.000 C 346.167 434.000,346.365 433.865,346.266 433.700 C 346.007 433.273,347.052 432.392,347.422 432.724 C 347.590 432.876,347.600 432.777,347.444 432.505 C 347.285 432.230,347.523 431.620,347.980 431.130 C 348.912 430.129,349.070 428.800,348.255 428.800 C 347.891 428.800,347.774 429.129,347.901 429.795 M38.000 430.288 C 38.000 430.533,38.178 430.793,38.397 430.867 C 38.615 430.940,38.833 431.482,38.881 432.071 C 38.930 432.660,39.097 433.064,39.253 432.967 C 39.408 432.871,39.820 433.077,40.168 433.425 C 41.503 434.760,40.812 432.914,39.400 431.372 C 38.630 430.531,38.000 430.044,38.000 430.288 M41.600 435.437 C 41.600 435.649,41.956 436.080,42.391 436.394 C 42.883 436.748,43.022 437.063,42.758 437.226 C 42.490 437.391,42.563 437.577,42.954 437.727 C 44.080 438.159,43.991 437.341,42.786 436.186 C 42.134 435.562,41.600 435.224,41.600 435.437 M44.774 438.568 C 45.004 438.846,45.105 439.162,44.997 439.270 C 44.888 439.378,45.070 439.467,45.400 439.467 C 46.299 439.467,46.123 438.525,45.177 438.278 C 44.547 438.113,44.453 438.182,44.774 438.568 M46.681 440.280 C 47.166 440.374,47.673 440.799,47.808 441.225 C 47.943 441.651,48.331 442.000,48.669 442.000 C 49.135 442.000,49.055 441.759,48.342 441.007 C 47.824 440.461,47.040 440.035,46.600 440.061 C 45.891 440.104,45.900 440.128,46.681 440.280 M49.740 442.497 C 49.584 442.749,49.666 442.807,49.938 442.638 C 50.192 442.481,50.401 442.498,50.403 442.676 C 50.408 443.183,52.278 443.923,52.776 443.615 C 53.050 443.446,52.792 443.131,52.111 442.803 C 50.586 442.068,50.048 441.999,49.740 442.497 M333.426 442.730 C 333.016 444.005,333.304 444.159,334.970 443.556 C 336.279 443.083,336.979 442.000,335.976 442.000 C 335.743 442.000,335.664 442.180,335.800 442.400 C 335.939 442.626,335.615 442.800,335.057 442.800 C 334.512 442.800,333.990 442.575,333.896 442.300 C 333.801 442.023,333.592 442.214,333.426 442.730 M331.455 444.200 C 331.323 444.544,331.447 444.800,331.746 444.800 C 332.032 444.800,332.267 444.530,332.267 444.200 C 332.267 443.870,332.136 443.600,331.976 443.600 C 331.816 443.600,331.582 443.870,331.455 444.200 M327.700 444.691 C 327.425 444.788,327.200 445.032,327.200 445.233 C 327.200 445.790,329.912 445.671,330.241 445.100 C 330.399 444.825,330.391 444.724,330.223 444.874 C 330.055 445.025,329.531 445.006,329.059 444.832 C 328.586 444.658,327.975 444.594,327.700 444.691 M56.647 445.123 C 56.538 445.301,57.157 445.488,58.024 445.539 C 58.908 445.592,59.600 445.450,59.600 445.216 C 59.600 444.730,56.942 444.646,56.647 445.123 M63.322 446.006 C 63.939 446.191,67.629 446.203,71.522 446.032 L 78.600 445.722 70.400 445.696 C 65.379 445.679,62.635 445.799,63.322 446.006 M160.332 445.900 C 189.885 445.957,238.125 445.957,267.532 445.900 C 296.940 445.843,272.760 445.797,213.800 445.797 C 154.840 445.797,130.780 445.843,160.332 445.900 M321.400 446.000 C 321.264 446.220,321.534 446.400,322.000 446.400 C 322.466 446.400,322.736 446.220,322.600 446.000 C 322.464 445.780,322.194 445.600,322.000 445.600 C 321.806 445.600,321.536 445.780,321.400 446.000 " stroke="none" fill="#51b15f" fill-rule="evenodd"></path><path id="path4" d="M59.837 11.048 C 59.641 11.560,59.240 11.637,57.857 11.429 C 56.539 11.232,55.999 11.319,55.605 11.794 C 55.320 12.137,54.775 12.319,54.393 12.198 C 53.914 12.046,53.629 12.244,53.473 12.841 C 53.324 13.410,53.040 13.624,52.637 13.469 C 52.301 13.340,51.919 13.407,51.789 13.617 C 51.659 13.828,51.223 14.000,50.819 14.000 C 50.416 14.000,49.987 14.256,49.867 14.569 C 49.734 14.917,49.329 15.054,48.824 14.922 C 48.341 14.796,48.000 14.899,48.000 15.172 C 48.000 15.427,47.568 16.068,47.041 16.595 C 46.513 17.123,46.018 17.728,45.941 17.939 C 45.863 18.151,45.350 18.386,44.800 18.462 C 43.666 18.618,41.951 20.608,42.259 21.409 C 42.370 21.700,42.088 22.312,41.631 22.769 C 41.174 23.226,40.800 23.713,40.800 23.852 C 40.800 23.990,40.161 24.845,39.380 25.752 C 37.294 28.173,37.200 28.311,37.200 28.960 C 37.200 29.286,37.020 29.664,36.800 29.800 C 36.236 30.149,36.301 31.900,36.885 32.095 C 37.215 32.205,37.085 32.620,36.478 33.391 C 35.907 34.117,35.676 34.809,35.836 35.313 C 35.973 35.746,35.886 36.223,35.641 36.374 C 35.147 36.680,35.070 272.054,35.540 346.600 C 35.683 369.260,35.677 389.420,35.527 391.400 C 35.128 396.647,35.144 417.510,35.548 419.500 C 35.742 420.457,35.741 421.200,35.546 421.200 C 35.356 421.200,35.200 421.470,35.200 421.800 C 35.200 422.130,35.380 422.400,35.600 422.400 C 35.820 422.400,36.000 422.591,36.000 422.824 C 36.000 423.057,35.775 423.118,35.500 422.959 C 35.225 422.801,35.397 423.108,35.882 423.642 C 36.483 424.304,36.651 424.794,36.409 425.185 C 36.204 425.517,36.206 426.037,36.414 426.426 C 36.611 426.794,36.643 427.237,36.486 427.412 C 36.329 427.586,36.425 427.599,36.700 427.441 C 37.009 427.263,37.200 427.391,37.200 427.776 C 37.200 428.119,37.380 428.400,37.600 428.400 C 37.820 428.400,38.000 428.725,38.000 429.122 C 38.000 429.519,38.630 430.531,39.400 431.372 C 40.170 432.213,40.800 433.199,40.800 433.564 C 40.800 434.322,44.774 438.400,45.513 438.400 C 45.781 438.400,46.000 438.760,46.000 439.200 C 46.000 439.693,46.269 440.003,46.700 440.007 C 47.085 440.011,47.824 440.461,48.342 441.007 C 48.860 441.553,49.529 442.000,49.829 442.000 C 50.165 442.000,50.291 442.269,50.157 442.700 C 49.956 443.348,49.972 443.350,50.377 442.723 C 50.787 442.088,50.888 442.088,51.981 442.715 C 52.763 443.164,52.992 443.484,52.674 443.686 C 52.405 443.857,52.762 443.990,53.500 443.994 C 54.215 443.997,54.800 444.180,54.800 444.400 C 54.800 444.622,55.867 444.800,57.200 444.800 C 58.533 444.800,59.600 444.978,59.600 445.200 C 59.600 445.877,326.716 445.742,327.393 445.064 C 328.041 444.416,330.504 444.666,330.164 445.345 C 330.038 445.595,330.391 445.305,330.949 444.700 C 331.936 443.628,332.693 443.203,332.203 443.995 C 332.066 444.217,332.216 444.292,332.543 444.166 C 332.865 444.043,333.256 443.460,333.413 442.871 C 333.570 442.282,333.781 442.025,333.883 442.300 C 333.984 442.575,334.512 442.800,335.057 442.800 C 335.615 442.800,335.939 442.626,335.800 442.400 C 335.664 442.180,335.947 442.000,336.429 442.000 C 337.262 442.000,338.800 440.663,338.800 439.939 C 338.800 439.752,339.064 439.600,339.386 439.600 C 339.708 439.600,340.165 439.240,340.400 438.800 C 340.635 438.360,341.016 438.000,341.245 438.000 C 341.892 438.000,344.906 434.895,344.654 434.488 C 344.532 434.290,344.964 433.733,345.616 433.252 C 346.267 432.770,346.800 432.111,346.800 431.788 C 346.800 431.465,346.980 431.178,347.200 431.150 C 347.420 431.123,347.765 431.077,347.967 431.050 C 348.168 431.023,348.483 430.836,348.667 430.636 C 348.857 430.428,348.805 430.383,348.546 430.531 C 348.273 430.687,348.015 430.392,347.901 429.795 C 347.797 429.248,347.891 428.800,348.111 428.800 C 348.855 428.800,349.574 427.409,349.587 425.946 C 349.594 425.146,349.856 423.998,350.168 423.396 C 350.481 422.793,350.641 422.051,350.524 421.745 C 350.406 421.440,350.515 420.943,350.765 420.642 C 351.351 419.936,351.616 416.249,351.187 414.755 C 350.966 413.985,351.001 413.600,351.292 413.600 C 351.605 413.600,351.653 408.692,351.462 396.300 C 351.179 377.985,351.191 190.144,351.477 154.211 C 351.635 134.386,351.601 132.990,350.947 132.511 C 350.562 132.230,350.461 132.000,350.724 132.000 C 350.986 132.000,351.200 131.550,351.200 131.000 L 351.200 130.000 304.300 129.992 C 256.033 129.984,253.933 129.921,249.400 128.342 C 244.915 126.780,239.813 122.981,236.929 119.056 C 234.618 115.911,234.516 115.829,235.605 118.000 C 236.740 120.264,240.563 123.920,244.200 126.222 C 244.860 126.640,245.501 127.121,245.623 127.290 C 245.846 127.599,249.927 129.317,252.200 130.060 C 252.860 130.275,255.020 130.443,257.000 130.432 C 258.980 130.422,262.130 130.588,264.000 130.803 C 268.796 131.352,341.352 131.288,343.241 130.733 C 344.276 130.428,344.917 130.434,345.515 130.754 C 345.973 130.999,346.787 131.200,347.325 131.200 C 349.286 131.200,349.295 131.280,349.424 149.303 C 349.491 158.596,349.579 166.650,349.622 167.200 C 349.664 167.750,349.672 224.896,349.641 294.190 L 349.583 420.180 348.140 424.790 C 346.433 430.239,345.677 431.810,344.027 433.334 C 343.352 433.958,342.800 434.649,342.800 434.870 C 342.800 435.458,341.109 436.771,340.330 436.787 C 339.717 436.799,339.279 437.248,337.283 439.911 C 336.777 440.585,336.034 440.888,334.419 441.076 C 332.691 441.278,332.040 441.566,331.284 442.465 C 330.708 443.149,329.935 443.600,329.338 443.600 C 328.793 443.600,327.996 443.788,327.567 444.018 C 326.713 444.475,64.751 444.589,60.879 444.134 C 59.351 443.955,58.815 443.737,58.962 443.355 C 59.286 442.511,58.668 442.408,57.287 443.076 C 55.983 443.708,54.000 443.070,54.000 442.019 C 54.000 441.820,53.028 441.455,51.840 441.208 C 50.006 440.827,49.605 440.579,49.182 439.557 C 48.845 438.743,47.878 437.890,46.195 436.922 C 44.360 435.867,43.568 435.138,43.179 434.145 C 42.888 433.405,42.504 432.800,42.325 432.800 C 42.146 432.800,42.000 432.558,42.000 432.261 C 42.000 431.965,41.414 431.110,40.697 430.361 C 38.443 428.005,37.957 426.938,37.812 424.015 C 37.737 422.511,37.410 420.678,37.085 419.940 C 36.065 417.625,35.495 414.143,35.987 413.224 C 36.271 412.693,36.403 409.104,36.366 402.905 C 36.309 393.261,36.623 387.757,37.253 387.368 C 37.757 387.056,37.678 385.438,37.132 384.892 C 36.623 384.383,35.954 42.735,36.455 39.200 C 36.595 38.210,36.903 36.410,37.140 35.200 C 37.376 33.990,37.667 32.114,37.785 31.032 C 38.016 28.913,38.448 28.218,40.966 25.906 C 42.026 24.933,42.804 23.746,43.197 22.506 C 43.744 20.777,44.016 20.494,46.121 19.460 C 47.694 18.686,48.747 17.835,49.390 16.816 C 50.067 15.744,50.719 15.236,51.660 15.048 C 52.386 14.903,53.674 14.303,54.521 13.716 C 55.862 12.787,56.213 12.705,57.225 13.087 C 58.193 13.452,58.548 13.399,59.351 12.767 C 61.104 11.388,64.764 11.324,146.083 11.259 C 233.342 11.188,229.000 11.091,230.741 13.157 C 231.216 13.721,231.248 13.677,230.999 12.800 C 230.843 12.250,230.329 11.489,229.857 11.108 C 228.581 10.078,60.232 10.019,59.837 11.048 M230.710 14.900 C 230.613 15.175,230.666 15.850,230.827 16.400 C 231.082 17.270,231.125 17.205,231.160 15.900 C 231.201 14.377,231.028 13.994,230.710 14.900 M230.548 20.434 C 230.232 21.129,230.202 22.503,230.448 25.013 C 230.641 26.986,230.789 45.610,230.775 66.400 C 230.753 101.890,230.914 108.310,231.847 109.155 C 231.996 109.290,231.964 108.950,231.775 108.400 C 231.586 107.850,231.334 87.609,231.215 63.421 C 231.053 30.266,230.889 19.686,230.548 20.434 M39.600 41.376 C 39.600 41.913,39.760 42.451,39.955 42.572 C 40.364 42.825,40.751 41.641,40.502 40.900 C 40.210 40.035,39.600 40.357,39.600 41.376 M232.432 111.909 C 232.405 112.685,234.210 116.000,234.660 116.000 C 234.744 116.000,234.386 115.145,233.863 114.100 C 233.340 113.055,232.811 111.930,232.688 111.600 C 232.540 111.205,232.452 111.311,232.432 111.909 M352.184 153.800 C 352.184 163.700,352.236 167.693,352.300 162.673 C 352.363 157.653,352.363 149.553,352.300 144.673 C 352.236 139.793,352.184 143.900,352.184 153.800 M118.382 227.611 C 117.903 227.907,116.119 230.401,115.527 231.600 C 115.144 232.377,115.013 246.565,114.938 295.200 C 114.885 329.630,114.760 358.525,114.660 359.410 C 114.440 361.370,114.986 362.202,116.751 362.589 C 117.487 362.751,118.781 363.508,119.626 364.271 C 121.691 366.137,123.045 366.465,124.685 365.497 C 125.806 364.836,126.249 364.792,128.087 365.159 C 131.773 365.897,208.905 366.367,209.680 365.657 C 209.834 365.515,201.824 365.384,191.880 365.364 C 174.590 365.330,171.200 365.162,171.200 364.341 C 171.200 364.119,161.172 363.989,146.110 364.015 C 128.480 364.045,120.977 363.930,120.876 363.627 C 120.796 363.389,120.558 363.302,120.347 363.433 C 120.135 363.564,119.475 363.182,118.881 362.584 C 118.286 361.986,117.386 361.223,116.880 360.889 C 116.374 360.555,116.051 360.044,116.162 359.754 C 116.274 359.463,116.193 359.119,115.983 358.989 C 115.742 358.840,115.600 335.449,115.601 295.876 L 115.601 233.000 117.200 231.200 C 118.079 230.210,118.799 229.175,118.799 228.900 C 118.800 228.625,119.205 228.398,119.700 228.395 C 120.709 228.389,265.429 228.390,266.453 228.396 C 266.813 228.398,267.201 228.760,267.316 229.200 C 267.431 229.640,267.812 230.000,268.163 230.000 C 268.513 230.000,268.800 230.180,268.800 230.400 C 268.800 230.620,269.065 230.800,269.390 230.800 C 271.250 230.800,271.200 228.990,271.200 295.719 C 271.200 350.233,271.124 358.430,270.606 359.467 C 270.084 360.513,267.581 363.070,266.310 363.856 C 266.062 364.009,262.905 364.091,259.293 364.038 C 253.421 363.953,252.641 364.020,251.922 364.672 C 250.371 366.078,234.000 365.780,234.000 364.345 C 234.000 363.848,213.708 363.902,213.400 364.400 C 213.264 364.620,212.735 364.800,212.225 364.800 C 211.715 364.800,211.111 365.025,210.883 365.300 C 210.552 365.698,212.767 365.777,221.791 365.688 C 228.018 365.627,234.438 365.736,236.057 365.932 C 237.794 366.142,242.505 366.135,247.553 365.917 C 253.546 365.657,256.234 365.674,256.533 365.973 C 257.121 366.561,258.445 366.507,260.068 365.829 C 260.820 365.515,262.597 365.130,264.017 364.973 C 268.143 364.518,269.821 363.483,270.996 360.670 C 272.082 358.073,271.891 231.891,270.800 230.800 C 270.360 230.360,269.838 230.000,269.640 230.000 C 269.441 230.000,268.915 229.384,268.471 228.630 L 267.663 227.260 193.193 227.330 C 152.235 227.369,118.570 227.495,118.382 227.611 M134.073 255.149 L 133.968 265.898 134.884 266.144 C 136.275 266.516,182.924 266.436,183.517 266.060 C 184.092 265.695,184.075 245.141,183.500 244.566 C 182.552 243.619,181.934 251.381,182.825 253.046 C 183.270 253.878,183.242 254.322,182.640 255.996 C 182.251 257.079,182.045 258.148,182.182 258.371 C 182.320 258.594,182.156 259.312,181.818 259.966 C 181.385 260.803,181.310 261.436,181.564 262.106 C 181.796 262.715,181.759 263.590,181.463 264.542 L 181.000 266.027 158.706 265.983 C 132.138 265.929,134.616 266.490,134.703 260.554 C 134.735 258.379,134.914 256.072,135.102 255.428 C 135.332 254.638,135.252 253.677,134.858 252.480 C 134.382 251.034,134.364 250.454,134.762 249.355 C 135.030 248.612,135.133 247.816,134.991 247.585 C 134.581 246.921,135.559 246.044,137.012 245.771 C 139.437 245.316,139.079 244.400,136.477 244.400 L 134.179 244.400 134.073 255.149 M202.400 245.320 C 202.400 245.826,202.608 246.448,202.863 246.703 C 203.214 247.054,203.213 247.302,202.861 247.726 C 202.532 248.122,202.426 250.862,202.498 257.109 L 202.600 265.931 204.734 266.199 C 205.907 266.346,206.972 266.361,207.100 266.233 C 207.228 266.105,207.033 266.000,206.667 266.000 C 206.235 266.000,206.000 265.671,206.000 265.067 C 206.000 263.883,205.614 263.491,204.972 264.023 C 203.766 265.024,203.056 261.459,203.182 255.041 C 203.284 249.874,203.895 247.491,205.020 247.871 C 205.251 247.949,205.841 247.470,206.332 246.807 C 206.823 246.143,207.499 245.600,207.836 245.600 C 208.172 245.600,208.336 245.420,208.200 245.200 C 208.060 244.973,208.396 244.800,208.976 244.800 C 209.539 244.800,210.000 244.968,210.000 245.173 C 210.000 245.852,211.578 246.061,212.393 245.490 C 213.703 244.573,212.932 244.400,207.533 244.400 C 202.443 244.400,202.400 244.408,202.400 245.320 M244.400 244.982 C 244.400 245.333,244.745 245.600,245.200 245.600 C 245.640 245.600,246.000 245.420,246.000 245.200 C 246.000 244.980,246.315 244.803,246.700 244.806 C 247.298 244.811,247.313 244.869,246.800 245.200 C 246.341 245.496,246.492 245.589,247.438 245.594 C 248.548 245.599,250.000 246.595,250.000 247.351 C 250.000 247.509,250.492 248.062,251.094 248.579 L 252.187 249.520 252.102 255.432 C 251.991 263.093,251.468 264.880,249.076 265.778 C 247.503 266.369,247.483 266.395,248.750 266.204 C 249.493 266.092,250.503 266.000,250.996 266.000 C 252.467 266.000,253.582 250.040,252.207 248.664 C 251.718 248.175,251.718 247.995,252.208 247.349 C 253.076 246.201,252.914 245.877,251.600 246.140 C 250.933 246.273,250.378 246.207,250.350 245.990 C 250.322 245.776,250.278 245.375,250.250 245.100 C 250.169 244.291,244.400 244.175,244.400 244.982 M140.016 248.581 C 139.568 249.121,139.692 249.200,140.984 249.200 C 141.991 249.200,142.414 249.040,142.302 248.700 C 142.055 247.951,140.602 247.875,140.016 248.581 M244.279 248.654 C 243.924 249.009,244.347 253.088,244.887 254.513 C 245.284 255.563,245.350 255.588,246.041 254.963 C 246.648 254.414,246.693 254.153,246.302 253.450 C 246.043 252.982,245.734 251.714,245.615 250.632 C 245.413 248.786,244.903 248.030,244.279 248.654 M176.800 251.829 C 176.800 252.202,177.072 252.406,177.467 252.329 C 178.470 252.135,178.608 251.200,177.633 251.200 C 177.142 251.200,176.800 251.458,176.800 251.829 M210.080 251.680 C 209.206 252.554,209.490 254.000,210.536 254.000 C 211.506 254.000,212.432 252.644,212.106 251.700 C 211.887 251.065,210.707 251.053,210.080 251.680 M244.893 258.490 C 244.276 259.237,243.871 261.831,244.179 263.060 C 244.676 265.037,245.716 263.277,245.654 260.566 C 245.595 258.006,245.502 257.753,244.893 258.490 M210.208 265.175 C 210.073 265.601,209.566 266.029,209.081 266.125 C 208.596 266.222,216.750 266.312,227.200 266.325 C 244.003 266.345,246.108 266.280,245.405 265.760 C 244.904 265.390,244.557 265.328,244.469 265.594 C 244.169 266.493,213.051 266.094,212.482 265.183 C 211.854 264.178,210.526 264.173,210.208 265.175 M157.237 284.703 C 141.679 284.776,134.914 284.940,134.537 285.252 C 133.923 285.762,133.742 305.374,134.342 306.320 C 134.798 307.038,183.187 307.069,183.630 306.351 C 184.051 305.670,183.652 285.823,183.214 285.674 C 183.011 285.605,182.926 285.335,183.025 285.074 C 183.149 284.750,182.605 284.600,181.303 284.600 C 180.256 284.600,169.427 284.647,157.237 284.703 M204.002 284.877 C 202.435 285.457,202.295 286.507,202.469 296.370 C 202.561 301.562,202.775 306.036,202.945 306.311 C 203.186 306.701,208.016 306.826,224.727 306.874 C 236.537 306.908,247.319 306.948,248.686 306.962 C 251.599 306.993,252.050 306.660,252.255 304.329 C 252.673 299.587,252.870 286.053,252.530 285.446 C 252.132 284.736,205.849 284.194,204.002 284.877 M182.300 286.098 C 183.190 286.810,182.979 297.478,182.041 299.228 C 181.507 300.224,181.394 300.845,181.659 301.319 C 183.121 303.932,180.887 306.614,177.836 305.908 C 176.936 305.699,174.940 305.631,173.400 305.757 C 171.860 305.882,163.401 306.013,154.602 306.048 C 145.803 306.083,138.153 306.233,137.602 306.380 C 134.808 307.127,134.746 306.894,134.664 295.340 L 134.600 286.220 136.200 285.926 C 138.467 285.510,175.132 285.594,176.247 286.018 C 176.853 286.248,177.689 286.179,178.685 285.816 C 180.205 285.262,181.369 285.353,182.300 286.098 M211.400 285.944 C 213.646 285.748,248.097 285.657,249.900 285.842 L 252.000 286.058 252.000 292.852 C 252.000 299.527,251.460 304.913,250.691 305.900 C 250.174 306.565,246.857 306.514,245.607 305.822 C 244.925 305.444,244.389 305.392,243.898 305.655 C 243.333 305.957,219.723 305.906,212.600 305.587 C 211.940 305.557,210.797 305.661,210.061 305.818 C 209.264 305.987,208.095 305.896,207.174 305.591 C 205.994 305.202,205.493 305.191,205.066 305.545 C 203.509 306.837,203.036 304.174,203.157 294.803 C 203.283 285.089,203.074 285.538,207.348 285.808 C 209.137 285.921,210.960 285.982,211.400 285.944 M244.900 299.483 C 244.185 299.746,244.280 301.200,245.013 301.200 C 245.737 301.200,246.260 300.087,245.753 299.623 C 245.559 299.445,245.175 299.382,244.900 299.483 M138.672 299.862 C 138.376 300.157,138.767 303.248,139.154 303.683 C 139.761 304.365,140.232 303.257,140.082 301.500 C 139.932 299.745,139.403 299.130,138.672 299.862 M204.633 325.722 C 202.677 326.375,202.318 328.427,202.466 338.092 C 202.540 342.881,202.690 346.817,202.800 346.838 C 202.910 346.859,213.924 346.933,227.275 347.001 C 253.205 347.133,253.427 347.118,252.445 345.284 C 252.122 344.681,252.105 343.930,252.385 342.716 C 253.000 340.048,252.893 329.302,252.232 327.400 L 251.676 325.800 246.738 325.702 C 232.855 325.428,205.476 325.440,204.633 325.722 M135.800 325.870 C 134.119 326.285,133.998 326.954,134.040 335.576 C 134.079 343.723,134.171 344.673,135.057 346.174 C 135.509 346.939,181.527 347.664,183.423 346.936 C 183.932 346.740,183.981 345.562,183.766 338.654 C 183.614 333.785,183.672 329.933,183.912 328.914 C 184.695 325.586,186.375 325.809,159.932 325.736 C 147.100 325.701,136.240 325.761,135.800 325.870 M181.600 326.944 C 183.104 327.644,183.342 341.969,181.870 343.226 C 181.611 343.447,181.040 343.891,180.600 344.214 C 179.832 344.776,179.829 344.823,180.524 345.362 C 181.858 346.396,180.523 346.470,162.282 346.370 C 152.337 346.316,143.359 346.413,142.332 346.586 C 135.463 347.741,134.400 346.314,134.400 335.939 L 134.400 328.828 135.568 327.633 L 136.736 326.438 156.042 326.412 C 166.660 326.397,175.448 326.286,175.569 326.164 C 175.906 325.828,180.467 326.418,181.600 326.944 M210.000 326.540 C 210.990 326.523,219.270 326.513,228.400 326.516 C 237.530 326.520,246.111 326.491,247.470 326.453 C 251.773 326.331,252.000 326.767,252.000 335.159 C 252.000 340.751,251.875 342.302,251.324 343.513 C 250.953 344.331,250.638 345.270,250.624 345.600 C 250.584 346.602,247.600 346.668,247.600 345.667 C 247.600 344.778,246.867 344.400,245.142 344.400 C 244.135 344.400,243.969 344.540,244.075 345.300 L 244.200 346.200 229.462 346.200 C 221.356 346.200,214.640 346.065,214.538 345.900 C 214.436 345.735,217.323 345.600,220.953 345.600 C 224.921 345.600,227.651 345.441,227.800 345.200 C 228.115 344.691,228.425 344.721,221.494 344.597 C 217.979 344.534,215.107 344.293,214.401 344.000 C 212.688 343.291,211.846 343.731,212.137 345.184 C 212.315 346.073,212.206 346.407,211.686 346.571 C 210.699 346.882,208.580 346.199,208.714 345.613 C 209.014 344.305,206.721 343.439,205.690 344.470 C 205.341 344.819,205.335 345.081,205.667 345.480 C 206.178 346.096,206.107 346.208,205.000 346.541 C 203.840 346.890,202.912 346.228,203.526 345.490 C 203.875 345.069,203.887 344.596,203.574 343.696 C 203.314 342.951,203.197 339.715,203.274 335.403 L 203.400 328.333 204.743 327.134 C 205.839 326.155,206.280 325.993,207.143 326.252 C 207.724 326.426,209.010 326.556,210.000 326.540 M143.871 344.662 C 143.151 345.383,144.618 345.600,150.200 345.600 C 155.650 345.600,158.171 345.206,156.106 344.677 C 155.007 344.395,144.151 344.383,143.871 344.662 M174.600 345.200 C 174.736 345.420,175.366 345.600,176.000 345.600 C 176.634 345.600,177.264 345.420,177.400 345.200 C 177.550 344.958,176.996 344.800,176.000 344.800 C 175.004 344.800,174.450 344.958,174.600 345.200 M124.800 367.800 C 124.800 368.229,125.228 368.396,126.300 368.387 C 127.706 368.375,127.751 368.338,127.024 367.787 C 126.018 367.027,124.800 367.033,124.800 367.800 M116.800 369.628 C 116.800 370.257,117.015 370.425,117.696 370.328 C 119.025 370.138,119.142 368.800,117.829 368.800 C 117.055 368.800,116.800 369.005,116.800 369.628 M352.186 397.200 C 352.186 408.310,352.237 412.855,352.300 407.300 C 352.362 401.745,352.362 392.655,352.300 387.100 C 352.237 381.545,352.186 386.090,352.186 397.200 " stroke="none" fill="#3ead51" fill-rule="evenodd"></path></g></svg>