<?xml version="1.0" encoding="UTF-8"?>
<svg id="Layer_2" data-name="Layer 2" xmlns="http://www.w3.org/2000/svg" viewBox="0 0 289.03 127.61">
  <g id="Layer_1-2" data-name="Layer 1">
    <g>
      <polygon points="94.64 127.61 74.5 127.61 28.63 77.96 63.09 53.04 16.02 20.71 15.77 127.61 0 127.61 0 0 10.92 0 82.27 49.44 81.82 55.81 49.5 79.23 94.64 127.61"/>
      <path d="M289.03,97.65h-46.59c.66,18.61,23.2,20.71,32.73,7.31l11.39,3.89-.06,1.55c-14.1,26.89-56.52,19.86-59.58-11.55-5.01-51.44,62.11-47.97,62.11-12.12v10.92ZM274.47,86.48c-1.2-20.12-30.6-20.14-32.03,0h32.03Z"/>
      <path d="M105.09,60.76v41.5c0,.7,1.53,4.43,2.02,5.26,4.64,7.02,13.98,7.26,20.46,2.66,1.77-.93,4.7-6.22,4.7-7.92v-40.77l.73-.73h14.8v64.55h-15.53l.24-7.28c-13.33,16.07-42.46,9.63-42.46-13.34v-43.2l.73-.73h14.32Z"/>
      <path d="M217.69,125.31h-15.05v-39.07c0-17.33-28.63-16.59-28.63.97v38.1h-15.05V60.76h15.05v8.74c13.46-18.19,43.68-9.76,43.68,13.83v41.98Z"/>
    </g>
  </g>
</svg>