<?xml version="1.0" encoding="UTF-8"?>
<svg id="Layer_1" data-name="Layer 1" xmlns="http://www.w3.org/2000/svg" viewBox="0 0 1183.7 581.29">
  <path d="M713.11,317.95c9.05,10.06,29.81-5.81,37.12-12.3,49.68-44.1,76.95-115.86,108.48-172.41,6.52-11.69,14.12-26.19,28.96-28.33,7.43-1.07,27.32-2.24,22.9,9.68-43.49,68.99-65.26,148.42-90.95,225.17l.56,1.65c9.73-9.45,21.15-17.46,27.66-29.66,2.56-.6,15.13,11.81,14.59,14.63-16.08,15.06-33.94,27.8-51.47,41.05-23.33,62.42-58.81,176.4-123.14,207.31-29.3,14.08-61.59,6.14-59.92-31.28,3.07-68.85,91.83-134.81,143.31-170.9l42.91-126.97c-7.53,8.99-13.18,19.49-20.02,28.98-19.38,26.88-60.1,78.97-98.15,66.59-10.7-3.48-19.05-13.98-21.45-24.81-9.56-43.07,39.7-115.13,56.1-155.92,4.58-11.38,16.64-41.93-5.19-42.65-20.13-.66-53.22,28.32-43,49.67,4.47,9.33,13.35,6.02,11.63,22.52-2.65,25.34-39.98,30.4-45.49,5.82-9.47-42.25,60.69-108.69,103.09-94.25,34.96,11.91,17.85,60.03,7.25,83.85-13.02,29.28-30.34,57.25-41.43,87.44-3.95,10.74-12.91,35.55-4.33,45.08ZM762.32,398.7c-33.4,25.01-67.27,53.11-91.67,87.32-8.95,12.54-19.79,29.87-23.45,44.84-3.05,12.46-5.9,35.42,13.11,35.14,28.55-.43,59.73-64.32,70.27-87.25,11.96-26.01,22.1-53.11,31.74-80.04Z"/>
  <path d="M977.16,0v138.77c2.56.61,1.81-.48,2.52-1.39,27.03-34.74,52.04-49.38,98.27-45.95,147.66,10.95,141.01,267.3-22.06,255.55-36.9-2.66-56.09-21.13-78.41-47.1-.68-.79.05-2.07-2.53-1.4v44.06h-38.56V0h40.76ZM1048.53,128.07c-28.87,3.25-54.48,26.32-65.6,52.27-10,23.33-9.3,67.66,4.79,89.41,32.87,50.73,104.05,56.66,138.62,4.4,40.48-61.21,1.71-155.04-77.82-146.08Z"/>
  <path d="M18.7,274.25c1.6-.43,1.83.42,2.76,1.07,9.83,6.87,17.75,15.51,28.83,21.84,26.33,15.04,67.33,22.44,95.43,8.83,26.16-12.68,29.6-43.08,2.82-57.49-40.88-21.98-129.95-15.64-135.36-77.25-7.19-81.86,100.68-93.56,157.17-66.81,6.42,3.04,26.74,15.38,29.61,21.15.86,1.72-.19,2.31-.79,3.61-1.13,2.48-16.61,24.64-18.12,24.95-23.29-19.34-50.48-31.75-81.46-29.75-17.43,1.13-43.44,10.06-45.67,30.34-1.96,17.77,6.75,26.63,22.05,33.03,40.03,16.73,125.15,18.36,130.95,73.95,10.52,100.85-128.78,100.89-189.29,57.06-2.22-1.61-16.67-13.69-17.19-14.83-.68-1.5-.55-1.76.03-3.21,3.12-7.91,15.3-17.54,18.21-26.49Z"/>
  <path d="M473.68,153.08l-37.86,14.42c-21.22-44.78-85.43-52.24-121.3-20.99-47.76,41.61-38.78,131.51,21.06,157.31,37.82,16.3,84.02,3.18,101.77-35.09l37.42,14.38c-27.41,68.49-122.48,81.65-179.46,42.24-67.57-46.74-72.49-152.63-10.03-205.87,54.13-46.14,159.42-37.24,188.41,33.59Z"/>
  <path d="M652.16,92.52v39.65h-17.08c-30.79,0-74.37,40.01-74.37,71.04v139.32h-40.76V95.82h38.56v52.87c5.95-8.19,10.95-17.09,17.66-24.75,12.19-13.92,37.63-31.42,56.71-31.42h19.28Z"/>
  <path d="M909.96,259.94c-8.55,8.05-17.38,19.87-26.39,27.02-1.76,1.4-15,6.82-6.66,10.98,6.28,3.13,5.58-4.32,7.24-7.1,2.76-4.64,19.66-22.78,24.16-26.51,1.24-1.03,1.78-2.67,3.85-2.2-1.72,4.04-4.87,7.07-7.02,11.15-5.79,10.96-8.82,23.85-10.8,36.01-11.43,1.44-20.44,8.77-30.54,13.33l-12.16-12.69c5.15-9.93,11.2-19.67,12.13-31.19,14.92-2.25,32.7-8.11,42.89-19.43l3.3.63Z"/>
</svg>