<?xml version="1.0" encoding="UTF-8"?>
<svg id="Layer_1" data-name="Layer 1" xmlns="http://www.w3.org/2000/svg" viewBox="0 0 1208.08 256.71">
  <defs>
    <style>
      .cls-1 {
        fill: #b80101;
      }

      .cls-2 {
        fill: #fff;
      }
    </style>
  </defs>
  <path class="cls-2" d="M554.18,98.54c3.85-4.15,6.88-9.01,11-12.94,18.21-17.36,44.72-21.47,68.83-16.52,20.95,4.3,38.15,18.42,47.04,37.72,12.22-23.7,36.2-38.07,62.75-39.62,48.56-2.84,85.21,25.2,86.71,75.1l-.02,113.68h-30.82l.02-113.13c-4.15-67.14-103.22-63.66-107.37.55l.02,112.58h-30.82l.02-115.33c-4.04-67.71-105.77-58.45-106.82,5.5l.02,109.83h-30.82V67.72h30.27v30.82Z"/>
  <path class="cls-2" d="M201.92,47.91v39.63c-20,3.78-35.55,18.17-42.39,37.14s-6.22,45.67,1.64,63.32c7.39,16.58,23.15,26.89,40.75,29.98v38.53c-29.85-4.2-56.32-23.41-68.72-50.99-13.46-29.94-13.07-82.34,9.84-107.79,1.08-1.2,6.13-5.41,6.32-5.79.25-.49.46-2,.27-2.2-.45-.45-10.75,2.95-12.22,3.46-26.6,9.23-50.7,27.11-69.54,47.76l30.04,55.32-.58,1.61c-6.38,3.75-12.23,8.39-18.45,12.37-1.51.97-4.04,3.18-4.91,1.08-7.76-14.94-16.83-29.27-24.64-44.17-.55-1.04-.18-3.22-1.78-1.46-1.78,1.96-4.91,7.37-6.58,9.93-5.72,8.74-10.57,18.01-16.06,26.89L0,186.81c8.34-18.66,19.1-36.07,30.75-52.8L3.87,83.77l22.69-14.92,24.23,41.77c10.36-10.99,22.21-20.73,34.92-28.95,28.94-18.72,67.1-31.7,101.63-33.77,4.83-.29,9.75.2,14.58,0Z"/>
  <path class="cls-2" d="M1064.4,17.64v83.11l6.32-8.26c46.34-50.72,136.74-22,137.36,49.79l-.03,113.68h-30.82l.02-108.18c-1.45-73.28-107.72-69.44-112.33,1.1l.02,107.08h-30.82V17.64h30.27Z"/>
  <path class="cls-2" d="M421.97,67.33c24.07-1.59,52.24,5.34,70.3,21.84,1.33,1.21,7.44,7.27,7.45,8.55,0,1.41-20.64,14.03-23.44,15.67-5.4-4.76-10.28-9.38-16.76-12.94-18.28-10.04-58.11-12.81-67.73,10.45-6.79,16.45,5.47,25.51,19.4,30.17,29.77,9.97,84.94,11.12,91.1,50.9,4.75,30.68-19.53,54.78-47.5,61.73-32.21,8-70.68-.09-94.38-23.88-1.17-1.17-9.13-10.38-9.3-11.08-.36-1.47,22.74-14.75,25.54-16.22,1.41.12,3.8,4.29,4.97,5.54,17.18,18.41,44.07,26.59,68.54,18.99,22.23-6.91,33.79-34.52,7.52-46.06-28.4-12.48-84.77-10.37-96.16-46.94-12.27-39.4,25.88-64.44,60.45-66.73Z"/>
  <path class="cls-2" d="M969.18,11.58v56.14h44.03v28.07h-44.03l-.02,98.27c1.08,9.15,1.42,19.78,9.2,26.03,8.86,7.11,24.02,6.36,34.86,6.7v29.17c-21.44-.29-50.29.16-63.74-19.64-8.61-12.67-9.29-28.57-10.58-43.36l.02-97.17h-33.02v-28.07h33.02v-35.5l28.45-19.98,1.82-.66Z"/>
  <path class="cls-2" d="M242.1,53.41c27.79,7.2,52.07,24.61,64.32,50.99,12.85,27.67,12.72,68.93.72,96.89-11.45,26.67-36.29,48.59-65.04,54.12v-37.7c14.52-5.12,27.12-13.17,34.68-26.96,11.65-21.26,11.91-58.96-2.52-78.95-8.08-11.19-19.97-16.33-32.16-21.78v-36.6Z"/>
  <path class="cls-1" d="M216.12,108.06c34.06-3.48,59.2,29.31,46.36,61.22-13.81,34.32-62.61,36.68-80.26,4.28-14.9-27.35,2.78-62.32,33.9-65.5Z"/>
  <rect class="cls-2" x="858.55" y="67.72" width="30.27" height="188.24"/>
  <path class="cls-2" d="M870.54.18c17.13-1.82,28.1,10.01,24.73,26.93-2.43,12.17-12.47,17.37-24.33,16.38-25.33-2.11-25.99-40.59-.4-43.31Z"/>
</svg>