<?xml version="1.0" encoding="UTF-8"?>
<svg id="Layer_1" data-name="Layer 1" xmlns="http://www.w3.org/2000/svg" viewBox="0 0 316.1 208.69">
  <defs>
    <style>
      .cls-1 {
        fill: #b80101;
      }

      .cls-2 {
        fill: #fff;
      }
    </style>
  </defs>
  <path class="cls-2" d="M201.92.09v39.63c-20,3.78-35.55,18.17-42.39,37.14s-6.22,45.67,1.64,63.32c7.39,16.58,23.15,26.89,40.75,29.98v38.53c-29.85-4.2-56.32-23.41-68.72-50.99-13.46-29.94-13.07-82.34,9.84-107.79,1.08-1.2,6.13-5.41,6.32-5.79.25-.49.46-2,.27-2.2-.45-.45-10.75,2.95-12.22,3.46-26.6,9.23-50.7,27.11-69.54,47.76l30.04,55.32-.58,1.61c-6.38,3.75-12.23,8.39-18.45,12.37-1.51.97-4.04,3.18-4.91,1.08-7.76-14.94-16.83-29.27-24.64-44.17-.55-1.04-.18-3.22-1.78-1.46-1.78,1.96-4.91,7.37-6.58,9.93-5.72,8.74-10.57,18.01-16.06,26.89L0,138.99c8.34-18.66,19.1-36.07,30.75-52.8L3.87,35.96l22.69-14.92,24.23,41.77c10.36-10.99,22.21-20.73,34.92-28.95C114.66,15.15,152.81,2.17,187.34.09c4.83-.29,9.75.2,14.58,0Z"/>
  <path class="cls-2" d="M242.1,5.59c27.79,7.2,52.07,24.61,64.32,50.99,12.85,27.67,12.72,68.93.72,96.89-11.45,26.67-36.29,48.59-65.04,54.12v-37.7c14.52-5.12,27.12-13.17,34.68-26.96,11.65-21.26,11.91-58.96-2.52-78.95-8.08-11.19-19.97-16.33-32.16-21.78V5.59Z"/>
  <path class="cls-1" d="M216.12,60.24c34.06-3.48,59.2,29.31,46.36,61.22-13.81,34.32-62.61,36.68-80.26,4.28-14.9-27.35,2.78-62.32,33.9-65.5Z"/>
</svg>