<svg width="178" height="178" viewBox="0 0 178 178" fill="none" xmlns="http://www.w3.org/2000/svg">
<path d="M4.37937 12.6046H64.4565C66.7527 12.6046 68.611 14.4773 68.611 16.7918V77.3416C68.611 79.6559 66.7529 81.5288 64.4565 81.5288H4.37937C2.08319 81.5288 0.224892 79.6561 0.224892 77.3416V16.7918C0.224892 14.4775 2.083 12.6046 4.37937 12.6046ZM100.814 108.389H160.891C163.187 108.389 165.046 110.261 165.046 112.576V173.126C165.046 175.44 163.187 177.313 160.891 177.313H100.814C98.5177 177.313 96.6594 175.44 96.6594 173.126V112.576C96.6594 110.262 98.5175 108.389 100.814 108.389ZM4.37937 108.389H64.4565C66.7527 108.389 68.611 110.261 68.611 112.576V173.126C68.611 175.44 66.7529 177.313 64.4565 177.313H4.37937C2.08319 177.313 0.224892 175.44 0.224892 173.126V112.576C0.224892 110.262 2.083 108.389 4.37937 108.389ZM133.782 1.28944L176.258 44.1C177.883 45.7378 177.883 48.3798 176.258 50.0175L133.782 92.8281C132.157 94.4659 129.535 94.4659 127.91 92.8281L85.434 50.0175C83.809 48.3797 83.809 45.7377 85.434 44.1L127.91 1.28944C129.535 -0.348391 132.157 -0.348391 133.782 1.28944Z" fill="#74A9FF"/>
</svg>
