<?xml version="1.0" encoding="utf-8"?>
<svg xmlns="http://www.w3.org/2000/svg" version="1.1" viewBox="-5.0 -10.0 110.0 135.0">
  <path d="M 99.229 20.987 C 99.229 28.505 94.142 34.788 87.254 36.753 L 87.254 44.939 C 87.254 54.022 79.865 61.405 70.787 61.405 L 34.856 61.405 C 30.73 61.405 27.372 64.762 27.372 68.888 L 27.372 89.054 C 34.261 91.025 39.347 97.307 39.347 104.82 C 39.347 113.903 31.959 121.286 22.881 121.286 C 13.797 121.286 6.414 113.898 6.414 104.82 C 6.414 97.302 11.501 91.019 18.389 89.054 L 18.384 24.777 C 11.495 22.806 6.409 16.523 6.409 9.011 C 6.409 -0.072 13.797 -7.455 22.875 -7.455 C 31.959 -7.455 39.342 -0.066 39.342 9.011 C 39.342 16.529 34.256 22.812 27.367 24.777 L 27.367 54.308 C 29.623 53.146 32.144 52.427 34.851 52.427 L 70.781 52.427 C 74.908 52.427 78.265 49.07 78.265 44.943 L 78.265 36.758 C 71.377 34.787 66.29 28.505 66.29 20.993 C 66.29 11.909 73.679 4.526 82.756 4.526 C 91.84 4.526 99.223 11.914 99.223 20.993 L 99.229 20.987 Z" style=""/>
</svg>