<?xml version="1.0" encoding="UTF-8"?>
<svg id="Layer_1" xmlns="http://www.w3.org/2000/svg" version="1.1" viewBox="0 0 100 125">
  <!-- Generator: Adobe Illustrator 29.5.0, SVG Export Plug-In . SVG Version: 2.1.0 Build 137)  -->
  <path d="M31.4,30.7c0,0,.8.5,1.1.8.7.8,1.4,1.8,2.1,2.5.2,0,.1-.4.1-.6-.3-1.3-3.1-4.6-4-5.9-.8-3.7.1-7.4-1.7-10.8s-1.5-2-1.5-2.1c-.1-.5-.1-2.3.2-2.6l8.8-3.2,9.3,2.7c.9.4.7,3.3.9,4.1s1.3,1.1,1.5,1.7c.4,1-.1,2.1,1.1,2.6,0-.5-.4-.6-.5-1.1-.4-2.3-.6-1.8-1.1-3.4s-.5-3.2-.3-3.4l12-2.9.5,5.4c-1.3,2.2-2.1,3.6-1.2,6.2l-3.9,3.5-.4,5.5-1.4-1.1-1-5.1c0,1.5,0,4.5.5,5.8s1.4,1.2,1.6,1.6.7,3.3.7,3.5l-3.9,5.4c-.4,1,0,2.4-.1,3.4s-2.2,2.1-2.3,2.7.2,1.3,0,2.1-1.4,3.6-1.5,3.7c-.3.2-1.2,0-1.7,0-.8.2-1.5,1.5-2.2,1.6-1.2.2-3-.3-4.3,0s-3.2,2-4.2,2.1-2.5-.9-3.1-.9-1.8,1-2.4,1.1-1.9-1.4-2.8-1.7c-1.3-.5-2.6-.5-3.8-.8s-4.8-1.1-4.9-1.3c-1.6-4.3-3.5-8.4-5-12.8s-1-2.3-1.1-4.4.4-4.6,0-6.8c0,0,2.2.1,2.5.3.4.2.5.6.8.9,1.7,1.4,4.4-1.5,6.6-.9,2.3,1.5,4.2,3.7,7.2,3l2.8-.7c-1.4-.3-3.1.3-4.4.3s-3.9-3.9-5.3-4.1-5,1.4-5.8.9c-.5-1-1.1-2-1.7-3s-.9-.5-.7-1.4,1.3-1.5,1.6-1.9c1.5-2.2,2.7-5.2,5.2-6.4s3-1.1,3.3-1c1.3,1.3,2.9,2.5,4,3.9,1.4,4,1.3,9.6,3.9,12.8ZM40.3,30.7v-7.1c0-1.8-4.4-2.9-4.8.5s.3,5.8,0,8.4c-.2.5,1.2,1.5,1.2,1.7,0,.3,0,.7,0,1.1.4,1.3.8,2.6,1,4l2.6,1.7v-4.4c1.3-1.2,6.8-2.6,7.3-4.2s-.2-3.4-2.2-3.6-4.7,2.3-5.1,1.9ZM35.5,42.4v7.1c0,.7,1.3,1.8,2,1.8s2.8-.7,2.8-1.6v-7.3c.8-.1,1,.4,1.3,1,.7-1.3-1.3-1.4-2.1-1.9s-.2-.4-.4-.6c-.6-.4-1.7-.8-2.1-1.5s-.1-1.3-.3-1.8c-.3-.9-.8-1.9-1-2.8-.2,0,0,1.4-.2,1.8-.2.7-4.3,2.2-5.2,2.7-1.4.8-2.7,1.7-2,3.6,1.5,3.7,6.6-1,7.2-.4Z"/>
  <path d="M50.6,58.5l.4,1.5c1.5,1,7.4,3,8.2,4.2s1.2,2.7,1,2.9c-1.4-.8-1.7-2.3-3.7-2.2s-3.1,2.6-1.7,3.9l7,6.7c.5,3.2-.3,7,.1,10.2s2.3,2,3.6,1.4c2.1-1,.9-8.3,1.2-10.4-2,.3-2.6-2.1-3.1-3.6l4.1,3.5c.7.3,1.4-.3,2.1,0s4.2,2.8,4.4,3c1.1,1,1.1,3.5,1.9,4.5s2.6,1.5,3.2,1.6l.6,4.8c0,.3,1.6,1.6,1.9,1.2l-1.6-1.5.3-4.4c-.2-.7-3.4-2.1-3.7-2.6s-.6-2.6-.5-2.8l11.1-3.4c.6,2.1,1.3,4.2,1.9,6.2s1,1.9,1,3.2-.6,2.1-.9,3.1c-.6,2-1.7,7.1-3.8,7.8l-16.7,3.4h-25.6c0-.9-.8-1.9-1.4-2.8l2.1-6.7-1.4-5.1c2,2.1,5.6,1.7,5-1.8s-3.3-3.3-3.3-3.6l2.1-3.4-.5-3.6c1.2-1.2,2.1-1.6,1.7-3.5s-.6-.9-.6-1.3.6-.7.6-1.2-.9-2.4-.7-2.8c.6.7,2.1.4,2.6.7,1.7.9,1.2,2.6,1.3,4.2l1.7.9c.1-.7-.8-.6-.9-1.1-.3-.9.4-2.2,0-2.7s-.4-.2-.5-.3c-.2-.3-.7-1.3-1.1-1.5s-1.2,0-1.7-.1c-1.2-.3-1.9-1-2-2.3s1.7-3.7,1.9-3.8c.5-.3.9.1,1.3,0s.7-.5,1.1-.4Z"/>
  <path d="M66.7,59.8c-.2-1.6-2.5-2.1-3.9-1.5s-.9.8-.9.9c-.1.5,0,4.1,0,4.7s.5,1,.6,1.5,0,.9.1,1.3c.2.7,1.8,1.9,2.3,2.5s.5.7-.1.5l-3.6-2.9-1.1-4.5c-1.7-.3-2.9-1.6-4.8-1.6-.5-1.1.1-1.7-1.3-2-.8.4.2,2.1-.8,1.9l-.8-3.3-1.6-.5c.9-1.1.2-1.5,0-2.6l1.4-.7h-1.9c0-.9-.8-1-1-1.8-.2-1.7.6-1.3.7-1.7.4-1.2.2-4.3.8-5.4s1.8-1.6,2-2.2,0-1,.3-1.8,2.6-2.6,2.8-3.6v-10.5c.1,0,3.9-5.4,3.9-5.4,1.6.9.6,3.4,1.1,4.3s.5,0,.8.3,1.1,1.6,1.2,1.7l-.9,3.1,4.2,4.8-1.1,3.7.7-3.7-4.5-4.4c0-1,1.1-3.8.2-4.5-2.4,1.3-6.1,3.5-2.7,6.3l5.3,3.9c-1.5.9-2.9,2-4.2,3.1s-.6.2-.7.3c-3.5,2.9-1,4.5,1.7,6.5s3.1,2.2,3.3,2l.7-1.4-.7-.5.9.2,1.2-2.5c0-.5-2.7-1.6-2.1-2.1.7.2.8-.4,1.1-.6.9-.7,2-1.3,2.9-2,1.6-1.3,3.6-2.5,1.9-4.8s-2.8-2.2-3.8-2.9-1.2-1.2-2.1-1.5c0-.4.2-.4.4-.6,1.3-1.3,4.4-2.7,5.5-4.1,1.5-1.9-.1-4.5-2.4-4s-1.4.9-2,1.3c-1.1.8-2.2,1.5-3.4,2.3-1.3-1-.1-2.2-.2-3.2s-2-3.3-1.4-4.3,1.4-1.1,1.6-1.8-.2-2.1.2-2.9,2.1-1.9,2.4-2.4.1-.9.5-1.2c.7-.6,1.9.1,2.7.2,2,.3,3.6.7,5.5,1s5.9.4,8.2,1.2,2.1,1.2,2.9,2.4,2.6,3.7,3.6,5.3,1.8,2.7,1.7,3.7c-1.1,2.5-2.3,5.1-3.5,7.5s-.6.5-.6.7c-.6,1.2-1.3,2.9-1.8,4.2-1.4.5-3.5,1-4.7,1.9s-.9,1.2-1.4,1.5c-1.3.8-3.9,1.2-5.3,1.9s-1.4,2-1.9,2.3-2.4.5-3.1,1c-1.1.8-2.4,4-3.8,5.2s-4,.5-4.6,2.4c.8.2,1.1-.7,1.7-.9s1.5,0,2.3-.3,1.5-1.2,1.9-1.2c1.1,1.8,4.6,3.1,5.5.4s-1.1-2.8-2.3-4-.5-.3-.1-.6c1-.2,2.6-.5,3.4-1.1s.9-1.1,1.7-1.5c1.3-.5,3.9-.7,5-1.2s1-1.3,1.7-1.7,3.5-1,3.8-.9l6.6,22.7c0,1.7-.7,3.2-1.1,4.7-.6,2.7-1.3,5.3-1.9,7.9-.3.5-7.8,3.3-9,3.7s-.8.9-1.9.4l-6.3-4-.9.6-1-.6c-.2-.7,2.1-2.1,2.5-2.6s2.2-2,2.5-2.5c1.7-2.4-.4-5-2.9-4s-2.2,2.3-3,3-.4.4-.8.3c-.3-2.6.4-6,0-8.5ZM52.6,50.1l1.1.7c.9-.6.6-1.7,0-2.4l-1.1,1.7ZM57.6,59c.8.6,1.4-1.4.6-1.9-.5.2-1,1.7-.6,1.9Z"/>
  <path d="M42.8,57.1c.2.1,1-.5,1.7-.1s.6,2.2,1.4,2.6l-1.3,3.1c.2,1,1.5,2.9,1.6,3.7s-.2.9-.2,1.3.6,1.1.6,1.6c0,1-1.4,1.8-1.5,3s.4,2.8-.1,4.4-1,1.2-1.3,1.8c-.6,1.4-.5,3.6-.9,4.9s-1.8,2.6-2,3.8l1.1,4.2-3.8,9.2h-11.8s-8.3-4-8.3-4c-.4-.6,2.5-1.9,2.6-2.6-1.2.1-2.6,1.9-3.7,1.9s-3.6-1.6-4-2.4-.5-1.5-.4-2.2c.3-3.7,2.5-8.2,2.9-12-.7-2.5-1.2-5.1-1.8-7.6s-.9-1.4-.5-2.1l6.4-4.4,7.4-2.2.8-2.2,2.5-1.2c.5-.3,2.5-2.1,2.9-2.2s.6.4,1,.3c1.4-.2,3.6-2.4,5.1-2.5s2.7.5,3,.6.6,1.2.8,1.3ZM42.8,63.2c-1.3-2-3.3-6.6-6.3-4.8s-1.5,1.8-1.9,2.4c-1.6,2.2-4.7,6.3-5.9,8.5s-.7,2.3.7,4l3.8,3.4c1.2-1.1,2.3-2.4,4-2.6l-3.3-3.5,3.8-5.9.6.3,3.6,5.2c.6.2.8-1.3,1.2-1.7.7-.7,2.8-1,2-2.5s-1.7-2-2.3-2.9ZM44.4,69.1c-1.4-.4-1.5,1.8-2.1,2.8-1.4,2.4-5.1,2.6-7.2,4.1s-.9.9-1.5,1.2v.4s.7.4.7.4v.6c-.2,0-.5,0-.7.1-.3.2-3.9,4.3-4.1,3.9s.2-.8-.2-.7c.3,1.3-1,1.6-1.2,2.8s.2,1,.1,1.3-.7.8-.7,1.3l.8-.7c1.1.9,2,.8,3.3.7l6.3-5.8,3.2,2.9c.8-1.5.2-3.3.8-4.8s.2-.5.6-.5c-1.8-1.6-.9-1.2.1-2.4s1.3-1.4,1.3-1.6l.2-6.1Z"/>
  <path d="M31.4,56.8c.4.4-1.1,1-1.2,1.3-1.7,1.4-3.8,1.8-4.4,4.1-2.1.6-4.2,1.1-6.4,1.7s-.9,0-1.3.1-2.8,2.2-3.3,2.4-2,.4-2.8.9c-.2-1.1-.5-2,.2-3.1l6.1-8.8c2.2.3,5.2,0,7.3.6s1.4,1.2,2,1.3c1,.1,3.1-1.5,3.9-.7Z"/>
  <path d="M63.4,7.4c.4.4-.8,2.9-1.7,2.6-.4-.9-.8-1.6-.2-2.6h1.9Z"/>
  <path d="M40.8,99.8c.6,1.2-.2,2-.5,3.1h-1.2c-.4-.5-.2-1,0-1.4s1.5-1.9,1.8-1.7Z"/>
  <path d="M16.8,54.2c0,1-1,1.5-1.6,2.2l-.9-.9c-.2-1,1.7-1.3,2.4-1.3Z"/>
  <path d="M93.5,76.1c.1.2.4,1.3.3,1.4l-1.4.4c-1.3-.8.4-2.7,1.1-1.7Z"/>
  <path d="M90.2,75.1c.1.7.3,1.2-.4,1.7l-1.3-.7v-.5c.1,0,1.7-.5,1.7-.5Z"/>
  <path d="M88.3,35.5l-2.4.7c.2-1.3,1.9-2.3,2.4-.7Z"/>
  <path d="M90.2,80.1l-.7-1.7c2.3-.6,1.3,2.3.7,1.7Z"/>
  <path d="M64.3,80.2c.4.3.1,1.3-.3,1.6l-.8-1.9,1.1.3Z"/>
  <path d="M41.7,64.9c0,.1-.4.6-.6.6l-.5-2c1.8-.4,1.9,0,1.1,1.5Z"/>
</svg>