<svg version="1.2" xmlns="http://www.w3.org/2000/svg" viewBox="0 0 100 125" width="100" height="125">
	<style>
		.s0 { fill: #000000 } 
	</style>
	<path class="s0" d="m41.8 64.6l-3.8 3.61-3.8-3.61 3.8-5.43z"/>
	<path class="s0" d="m83.09 70.29c-0.2-0.58-0.23-1.21-0.07-1.81l2.83-11.18q0.21-0.84-0.03-1.67l-5.96-20.59c-0.23-0.78-0.15-1.61 0.22-2.33l5.13-10.13c0.53-1.04 0.45-2.28-0.2-3.24l-4.72-6.98c-0.5-0.74-1.29-1.25-2.18-1.39l-17.6-2.9q-0.67-0.1-1.33 0.06l-11.53 2.84c-0.6 0.15-1.24 0.12-1.83-0.07l-7.79-2.56c-0.73-0.24-1.53-0.22-2.25 0.06l-14.33 5.66c-0.62 0.24-1.14 0.66-1.51 1.21l-5.44 8.05c-0.36 0.53-0.55 1.15-0.55 1.79v8.1q0 0.62 0.23 1.2l5.68 14.01c0.4 0.99 0.28 2.11-0.31 2.99l-4.8 7.1c-0.51 0.76-0.68 1.69-0.45 2.58l2.73 10.76q0.19 0.78 0 1.57l-2.45 9.63c-0.37 1.47 0.34 3 1.72 3.67l10.07 4.97q0.69 0.34 1.46 0.34h38.24q0.32 0 0.64-0.06l14.21-2.81c1.15-0.22 2.09-1.04 2.47-2.14l2.33-6.9c0.22-0.66 0.22-1.38 0-2.05zm-52.81-33.99l5.47-2.61v-11.44c0-1.24 1.01-2.25 2.25-2.25 1.24 0 2.25 1.01 2.25 2.25v6.08l3.53-1.68c1.13-0.54 2.47-0.06 3 1.06 0.54 1.13 0.06 2.47-1.06 3l-5.47 2.6v11.44c0 1.25-1.01 2.25-2.25 2.25-1.24 0-2.25-1-2.25-2.25v-6.08l-3.53 1.69q-0.48 0.22-0.97 0.22c-0.84 0-1.64-0.48-2.03-1.29-0.54-1.12-0.06-2.46 1.06-2.99zm16.1 43.01c-0.44 0.46-1.04 0.69-1.63 0.69-0.56 0-1.12-0.2-1.55-0.62l-5.2-4.95-5.2 4.95c-0.89 0.86-2.32 0.82-3.18-0.07-0.86-0.9-0.82-2.33 0.08-3.19l5.04-4.79-5.04-4.81c-0.81-0.76-0.93-2-0.29-2.91l6.75-9.65c0.84-1.2 2.84-1.2 3.68 0l6.75 9.65c0.64 0.91 0.52 2.15-0.29 2.91l-5.04 4.81 5.04 4.79c0.9 0.86 0.94 2.29 0.08 3.19zm10.52-49.63c-0.57-0.43-0.9-1.09-0.9-1.8 0-0.71 0.33-1.38 0.9-1.8l7.5-5.63c1-0.74 2.4-0.54 3.15 0.45 0.75 1 0.54 2.41-0.45 3.15l-5.1 3.83 5.1 3.82c0.57 0.43 0.9 1.09 0.9 1.8 0 0.71-0.33 1.38-0.9 1.8l-5.1 3.83 5.1 3.82c0.99 0.75 1.2 2.16 0.45 3.15-0.44 0.59-1.12 0.9-1.8 0.9-0.47 0-0.94-0.14-1.35-0.45l-7.5-5.62c-0.57-0.43-0.9-1.09-0.9-1.8 0-0.71 0.33-1.38 0.9-1.8l5.1-3.83zm13.4 33.64l-6.05 5.76v8.68c0 1.24-1.01 2.25-2.25 2.25-1.24 0-2.25-1.01-2.25-2.25v-8.68l-6.05-5.76c-0.9-0.86-0.93-2.29-0.08-3.19 0.86-0.89 2.28-0.93 3.18-0.07l2.95 2.81v-7.61c0-1.24 1.01-2.25 2.25-2.25 1.24 0 2.25 1.01 2.25 2.25v7.61l2.95-2.81c0.9-0.86 2.32-0.82 3.18 0.07 0.86 0.9 0.82 2.33-0.08 3.19z"/>
</svg>