<?xml version="1.0" encoding="UTF-8"?>
<svg id="Layer_1" data-name="Layer 1" xmlns="http://www.w3.org/2000/svg" viewBox="0 0 284.32 481.74">
  <path d="M85.27,218.43c9.05,10.06,29.81-5.81,37.12-12.3,49.68-44.1,76.95-115.86,108.48-172.41,6.52-11.69,14.12-26.19,28.96-28.33,7.43-1.07,27.32-2.24,22.9,9.68-43.49,68.99-65.26,148.42-90.95,225.17l.56,1.65c9.73-9.45,21.15-17.46,27.66-29.66,2.56-.6,15.13,11.81,14.59,14.63-16.08,15.06-33.94,27.8-51.47,41.05-23.33,62.42-58.81,176.4-123.14,207.31-29.3,14.08-61.59,6.14-59.92-31.28,3.07-68.85,91.83-134.81,143.31-170.9l42.91-126.97c-7.53,8.99-13.18,19.49-20.02,28.98-19.38,26.88-60.1,78.97-98.15,66.59-10.7-3.48-19.05-13.98-21.45-24.81-9.56-43.07,39.7-115.13,56.1-155.92,4.58-11.38,16.64-41.93-5.19-42.65-20.13-.66-53.22,28.32-43,49.67,4.47,9.33,13.35,6.02,11.63,22.52-2.65,25.34-39.98,30.4-45.49,5.82C11.24,54.02,81.4-12.42,123.8,2.02c34.96,11.91,17.85,60.03,7.25,83.85-13.02,29.28-30.34,57.25-41.43,87.44-3.95,10.74-12.91,35.55-4.33,45.08l-.02.04ZM134.48,299.18c-33.4,25.01-67.27,53.11-91.67,87.32-8.95,12.54-19.79,29.87-23.45,44.84-3.05,12.46-5.9,35.42,13.11,35.14,28.55-.43,59.73-64.32,70.27-87.25,11.96-26.01,22.1-53.11,31.74-80.04h0Z"/>
  <path d="M282.12,160.42c-8.55,8.05-17.38,19.87-26.39,27.02-1.76,1.4-15,6.82-6.66,10.98,6.28,3.13,5.58-4.32,7.24-7.1,2.76-4.64,19.66-22.78,24.16-26.51,1.24-1.03,1.78-2.67,3.85-2.2-1.72,4.04-4.87,7.07-7.02,11.15-5.79,10.96-8.82,23.85-10.8,36.01-11.43,1.44-20.44,8.77-30.54,13.33l-12.16-12.69c5.15-9.93,11.2-19.67,12.13-31.19,14.92-2.25,32.7-8.11,42.89-19.43l3.3.63h0Z"/>
</svg>